<mxfile host="app.diagrams.net" agent="Mozilla/5.0 (Windows NT 10.0; Win64; x64) AppleWebKit/537.36 (KHTML, like Gecko) Chrome/131.0.0.0 Safari/537.36 Edg/131.0.0.0" version="25.0.3">
  <diagram name="Page-1" id="mDbjcsFZ5Mh0x3nXw2XO">
    <mxGraphModel dx="1042" dy="637" grid="1" gridSize="10" guides="1" tooltips="1" connect="1" arrows="1" fold="1" page="1" pageScale="1" pageWidth="850" pageHeight="1100" math="1" shadow="0">
      <root>
        <mxCell id="0" />
        <mxCell id="1" parent="0" />
        <mxCell id="MuEgCA0l2RGkUJCn2qk8-27" style="edgeStyle=orthogonalEdgeStyle;rounded=0;orthogonalLoop=1;jettySize=auto;html=1;sketch=1;curveFitting=1;jiggle=2;" parent="1" source="MuEgCA0l2RGkUJCn2qk8-29" target="MuEgCA0l2RGkUJCn2qk8-26" edge="1">
          <mxGeometry relative="1" as="geometry" />
        </mxCell>
        <mxCell id="MuEgCA0l2RGkUJCn2qk8-2" value="" style="shape=image;verticalLabelPosition=bottom;labelBackgroundColor=default;verticalAlign=top;aspect=fixed;imageAspect=0;image=data:image/svg+xml,PHN2ZyB4bWxuczp4bGluaz0iaHR0cDovL3d3dy53My5vcmcvMTk5OS94bGluayIgeG1sbnM9Imh0dHA6Ly93d3cudzMub3JnLzIwMDAvc3ZnIiBwcmVzZXJ2ZUFzcGVjdFJhdGlvPSJ4TWlkWU1pZCBtZWV0IiBjbGFzcz0iaWNvbmlmeSBpY29uaWZ5LS1ub3RvIiByb2xlPSJpbWciIGFyaWEtaGlkZGVuPSJ0cnVlIiB2aWV3Qm94PSIwIDAgMTI4IDEyOCIgaGVpZ2h0PSI4MDBweCIgd2lkdGg9IjgwMHB4Ij48cGF0aCBmaWxsPSIjODQ4NDg0IiBkPSJNMTA2Ljg4IDIyLjk3TDEwMy45MSAyMGwxMy45NC0xMy45NGMuNjktLjY5IDEuMjctLjkzIDEuODQtLjk0bDMuOTYuMmMuMzIuMDIuNDcuNDIuMjQuNjVsLTE3LjAxIDE3eiIvPjxlbGxpcHNlIGZpbGw9IiNiOWU0ZWEiIHJ5PSIxNy4xNyIgcng9IjMuMTQiIGN5PSIxMDguMTkiIGN4PSIxOC42OSIgdHJhbnNmb3JtPSJyb3RhdGUoLTQ1LjAwMSAxOC42ODYgMTA4LjE5NSkiLz48cGF0aCBmaWxsPSIjODJhZWMwIiBkPSJNMTYuNTggMTEwLjNDMTEuNCAxMDUuMTIgNS43MiA5Ny41NCA2LjU1IDk2LjA1bC0yLjAyIDIuMDJjLTIuMTQgMi4xNCAyLjQ3IDguNCA5LjE3IDE1LjFzMTIuOTYgMTEuMzEgMTUuMSA5LjE3bDIuMDItMi4wMmMtMS4wNSAxLjA3LTkuMDYtNC44NC0xNC4yNC0xMC4wMnoiLz48cGF0aCBmaWxsPSIjYjllNGVhIiBkPSJNMjYuOTkgMTE0LjQ1cy0yLjMyLS40My04LjIyLTYuMzRjLTUuOS01LjktNi4zNC04LjIyLTYuMzQtOC4yMmwyMi42Mi0yMi42MmwxNC41NiAxNC41NmwtMjIuNjIgMjIuNjJ6Ii8+PHBhdGggZmlsbD0iI2I5ZTRlYSIgZD0iTTYyLjU4IDg4LjU5bDQzLjM1LTQzLjM1Yy41Mi0uNTIuNTItMS4zNyAwLTEuODlMODMuNTIgMjAuOTZhMS4zNCAxLjM0IDAgMCAwLTEuODkgMEwzOC4zMiA2NC4yN3MtMi40OC44Ni02LjAyLTEuMjhjLTIuMDItMS4yMy0zLjY0LTIuMDgtNS40My0uMjljMCAwLS43NiAyLjk5IDE2LjY1IDIwLjRzMjAuOCAxNi43IDIwLjggMTYuN2MxLjAyLTEuMDIuNTctMi43My0uNjMtNS40Yy0xLjQ2LTMuMjItMS4xMS01LjgxLTEuMTEtNS44MXoiLz48cGF0aCBmaWxsPSIjMDA5MzdhIiBkPSJNMTA2LjUxIDIwLjM3YTMuOTcxIDMuOTcxIDAgMCAwLTUuNjMgMGwtOS4wNiA5LjA2bDUuNjMgNS42M2w5LjA2LTkuMDZhMy45NzEgMy45NzEgMCAwIDAgMC01LjYzeiIvPjxwYXRoIGZpbGw9IiMxMmQ4YjciIGQ9Ik05NC4wNiAzMC43NGwtMS40LTEuNGw3LjMtNy4zYS45ODQuOTg0IDAgMCAxIDEuNCAwYy4zOS4zOS4zOSAxLjAyIDAgMS40bC03LjMgNy4zeiIvPjxwYXRoIGZpbGw9IiM4MmFlYzAiIGQ9Ik01NS45IDg1LjU0cy0yLjMyLS40My04LjIyLTYuMzRzLTYuMzQtOC4yMi02LjM0LTguMjJsMTcuNTItMTcuNTJsMTQuNTYgMTQuNTZMNTUuOSA4NS41NHoiLz48cGF0aCBmaWxsPSIjODJhZWMwIiBkPSJNNjMuNDkgMTAwLjY3Yy4zMy0uMzkuNjUtLjc4IDEuMDItMS4xM2MtLjI1LjA2LS41Mi4wMy0uNzYtLjA2Yy0uMjUtLjA5LS40Ni0uMjMtLjY2LS40Yy0xLjQzLTEuMTktMi44Ni0yLjM4LTQuMjctMy41OWMtMi4yLTEuODktNC4zNy0zLjgxLTYuNTEtNS43N2EyMzkuNTYgMjM5LjU2IDAgMCAxLTcuODItNy40N2MtMi41NC0yLjU0LTUuMDItNS4xNC03LjQ1LTcuNzhjLTEuOTQtMi4xMS0zLjg1LTQuMjYtNS43Mi02LjQzYy0uNjgtLjc5LTEuMzYtMS41OS0yLjAzLTIuMzljLS42LS43Mi0xLjQ0LTEuNDgtMS43My0yLjM3Yy0uMTEtLjM1LS4xNS0uNzItLjA1LTEuMDdjLTEuMTYuNzktMi4wNyAxLjkzLTMuMDcgMi45MmEuOS45IDAgMCAwLS4wOCAxLjE5YzEuNDYgMS45NCA2LjUgOC4zIDE3LjMyIDE5LjEyYzEwLjggMTAuOCAxNy4wMiAxNS43IDE4LjkyIDE3LjEzYy4zNi4yNy44Ni4yMyAxLjE4LS4wOGwxLjA4LTEuMDhjLjIyLS4yNi40My0uNS42My0uNzR6Ii8+PHBhdGggZmlsbD0iI2ZmZmZmZiIgZD0iTTgzLjUyIDI1LjgxYzEuODQgMS44NC0uNjkgNC4wMS0uNjkgNC4wMVM0OC44OSA2My41IDQ1LjIyIDY3LjE0Yy0xLjE0IDEuMTQtMi4zNiAyLjY5LTQuMDIgMi45MmMtMi41LjI1LTQuOTQtMS4yOS02LjM5LTMuMjVjLS4xOS0uMjYtLjIxLS42NC4xOC0uNTdjMy42Ni43OCA0Ljg1LS4xNiA3LjIzLTIuNzljMS45My0xLjkxIDM0LjczLTM0LjUgMzcuMzctMzcuMTJjMS4wMy0xLjAyIDIuNDQtMi4wMiAzLjkzLS41MnoiLz48cGF0aCBkPSJNODEuNDUgNjYuNzdMNjAuMTcgNDUuNjNsLTUuNTMgNS41MWwyMS4yMSAyMS4yM3oiIGZpbGw9IiM0NTVhNjQiLz48cGF0aCBmaWxsPSIjMjEyMTIxIiBkPSJNNTkuODMgNTIuNjVsMS44NS0xLjg3YTIuNjA3IDIuNjA3IDAgMCAxIDMuNjkgMGwxMi42MiAxMi41NGMxLjAzIDEuMDMgMS4wMSAyLjcxLS4wMiAzLjc0bC0xLjg1IDEuODVhMi42MjUgMi42MjUgMCAwIDEtMy43MiAwTDU5LjgyIDU2LjM0YTIuNjE2IDIuNjE2IDAgMCAxIC4wMS0zLjY5eiIvPjwvc3ZnPg==;" parent="1" vertex="1">
          <mxGeometry x="372" y="429" width="50" height="50" as="geometry" />
        </mxCell>
        <mxCell id="MuEgCA0l2RGkUJCn2qk8-5" style="edgeStyle=orthogonalEdgeStyle;rounded=0;orthogonalLoop=1;jettySize=auto;html=1;exitX=0.5;exitY=1;exitDx=0;exitDy=0;entryX=0.5;entryY=0;entryDx=0;entryDy=0;sketch=1;curveFitting=1;jiggle=2;" parent="1" source="MuEgCA0l2RGkUJCn2qk8-12" target="MuEgCA0l2RGkUJCn2qk8-4" edge="1">
          <mxGeometry relative="1" as="geometry" />
        </mxCell>
        <mxCell id="MuEgCA0l2RGkUJCn2qk8-3" value="" style="shape=image;verticalLabelPosition=bottom;labelBackgroundColor=default;verticalAlign=top;aspect=fixed;imageAspect=0;image=data:image/svg+xml,PHN2ZyB4bWxucz0iaHR0cDovL3d3dy53My5vcmcvMjAwMC9zdmciIHZlcnNpb249IjEuMSIgY2xhc3M9Imljb24iIHZpZXdCb3g9IjAgMCAxMDI0IDEwMjQiIGhlaWdodD0iODAwcHgiIHdpZHRoPSI4MDBweCI+PHBhdGggZmlsbD0iI0E0QTlBRCIgZD0iTTY2My40IDczNmgxOTJ2MTY3LjVoLTE5MnoiLz48cGF0aCBmaWxsPSIiIGQ9Ik02ODEuMiA3OTAuM2g4Mi4zdjM5LjZoLTgyLjN6TTc3MyA4NDNoODIuM3YzOS42SDc3M3pNNjYzLjQgNzM2aDE5MnY0NWgtMTkyeiIvPjxwYXRoIGZpbGw9IiNENjgyMzEiIGQ9Ik04NzIuNCA3MjAuM2MwLTUuMi00LjMtOS41LTkuNS05LjVINjU1LjhjLTUuMiAwLTkuNSA0LjMtOS41IDkuNXYzMS41YzAgNS4yIDQuMyA5LjUgOS41IDkuNWgyMDcuMWM1LjIgMCA5LjUtNC4zIDkuNS05LjV2LTMxLjV6Ii8+PHBhdGggZmlsbD0iI0QxRDNEMyIgZD0iTTczOC42IDgyLjFjLTIxLjMgMC00MC41IDguOC01NC4yIDIzLTExLjYtNy4zLTI1LjQtMTEuNi00MC4yLTExLjYtNDEuNiAwLTc1LjQgMzMuNy03NS40IDc1LjR2MWMtNDMgNi42LTc2IDQzLjctNzYgODguNiAwIDQ5LjUgNDAuMSA4OS42IDg5LjYgODkuNlM2NzIgMzA4IDY3MiAyNTguNWMwLTYuNS0wLjctMTIuNy0yLTE4LjggMTAuOC00IDIwLjUtMTAuMyAyOC4zLTE4LjUgMTEuNiA3LjMgMjUuNCAxMS42IDQwLjIgMTEuNiA0MS42IDAgNzUuNC0zMy43IDc1LjQtNzUuNCAwLTQxLjYtMzMuNy03NS4zLTc1LjMtNzUuM3oiLz48cGF0aCBmaWxsPSIjMzMzRTQ4IiBkPSJNNjczIDI1OC40SDQ5MmwtMzkuOCA2NDUuMWgyNjAuNXoiLz48cGF0aCBmaWxsPSIjRDY4MjMxIiBkPSJNNjc5IDM1Ny4ySDQ4NS45bC0xLjggMjguNWgxOTYuN2wtMS44LTI4LjV6IG0zLjYgNTcuOEg0ODIuM2wtMS44IDI4LjVoMjAzLjhsLTEuNy0yOC41eiIvPjxwYXRoIGZpbGw9IiNBNEE5QUQiIGQ9Ik0xMzEuNCA1NDYuOGg0OTAuOXYzNTYuN0gxMzEuNHoiLz48cGF0aCBmaWxsPSIiIGQ9Ik01NDAgNzczLjJoODIuM3YzOS42SDU0MHpNMTMxLjIgNzI1LjJoODIuM3YzOS42aC04Mi4zek00MTEgNTc2LjJoODIuM3YzOS42SDQxMXpNMjMzLjIgNTQ2LjhoODIuM3YzOS42aC04Mi4zek0yMDEuOCA4MjkuOWg4Mi4zdjM5LjZoLTgyLjN6TTU3My42IDY2NC4zYzAtMTAuNC04LjUtMTktMTktMTlIMTk5LjFjLTEwLjQgMC0xOSA4LjUtMTkgMTl2MzQuOWMwIDEwLjQgOC41IDE5IDE5IDE5aDM1NS41YzEwLjQgMCAxOS04LjUgMTktMTl2LTM0Ljl6Ii8+PHBhdGggZmlsbD0iI0ZGRkZGRiIgZD0iTTU3My42IDYzNC44YzAtMTAuNC04LjUtMTktMTktMTlIMTk5LjFjLTEwLjQgMC0xOSA4LjUtMTkgMTl2MzQuOWMwIDEwLjQgOC41IDE5IDE5IDE5aDM1NS41YzEwLjQgMCAxOS04LjUgMTktMTl2LTM0Ljl6Ii8+PHBhdGggZmlsbD0iIiBkPSJNNTU0LjYgNjE1LjhIMTk5LjFjLTEwLjQgMC0xOSA4LjUtMTkgMTlWNjU5YzAtMTAuNCA4LjUtMTkgMTktMTloMzU1LjVjMTAuNCAwIDE5IDguNSAxOSAxOXYtMjQuMmMwLTEwLjQtOC41LTE5LTE5LTE5eiIvPjxwYXRoIGZpbGw9IiNEMUQzRDMiIGQ9Ik0xMzEuNCA0NzIuNnY3NC4yaDgxLjhsLTc0LjMtNzQuM2MtMy0zLTcuNS00LjYtNy41IDAuMXpNMjEzLjIgNDcyLjZ2NzQuMkgyOTVsLTc0LjMtNzQuM2MtMi45LTMtNy41LTQuNi03LjUgMC4xek0yOTUuMSA0NzIuNnY3NC4yaDgxLjhsLTc0LjMtNzQuM2MtMy0zLTcuNS00LjYtNy41IDAuMXoiLz48cGF0aCBmaWxsPSIjRDFEM0QzIiBkPSJNMzc2LjkgNDcyLjZ2NzQuMmg4MS44bC03NC4zLTc0LjNjLTMtMy03LjUtNC42LTcuNSAwLjF6TTQ1OC43IDQ3Mi42djc0LjJoODEuOGwtNzQuMy03NC4zYy0zLTMtNy41LTQuNi03LjUgMC4xek01NDAuNSA0NzIuNnY3NC4yaDgxLjhMNTQ4IDQ3Mi41Yy0yLjktMy03LjUtNC42LTcuNSAwLjF6TTI2My4xIDc1Ni4zaDIyNy43djE0Ny4ySDI2My4xeiIvPjxwYXRoIGZpbGw9IiIgZD0iTTI2My4xIDc4Ni43aDIyNy43djI4LjVIMjYzLjF6TTI2My4xIDg0MC44aDIyNy43djI4LjVIMjYzLjF6Ii8+PHBhdGggZmlsbD0iI0E0QTlBRCIgZD0iTTI2MC4xIDYxNS44aDI4LjV2NzIuOWgtMjguNXpNMzYyLjYgNjE1LjhoMjguNXY3Mi45aC0yOC41ek00NjUuMiA2MTUuOGgyOC41djcyLjloLTI4LjV6Ii8+PHBhdGggZmlsbD0iI0Q2ODIzMSIgZD0iTTE5OS4xIDYzMC4xYy0yLjYgMC00LjcgMi4yLTQuNyA0Ljd2MzQuOWMwIDIuNiAyLjIgNC43IDQuNyA0LjdoMzU1LjVjMi42IDAgNC43LTIuMiA0LjctNC43di0zNC45YzAtMi42LTIuMi00LjctNC43LTQuN0gxOTkuMXpNNTU0LjYgNzAzSDE5OS4xYy0xOC4zIDAtMzMuMi0xNC45LTMzLjItMzMuMnYtMzQuOWMwLTE4LjMgMTQuOS0zMy4yIDMzLjItMzMuMmgzNTUuNWMxOC4zIDAgMzMuMiAxNC45IDMzLjIgMzMuMnYzNC45YzAuMSAxOC4zLTE0LjggMzMuMi0zMy4yIDMzLjJ6Ii8+PHBhdGggZmlsbD0iIzMzM0U0OCIgZD0iTTk1Ny45IDkzMy4zYzAgNC4yLTMuNSA3LjctNy43IDcuN2gtODc1Yy00LjIgMC03LjctMy41LTcuNy03Ljd2LTI3LjVjMC00LjIgMy41LTcuNyA3LjctNy43aDg3NS4xYzQuMiAwIDcuNyAzLjUgNy43IDcuN3YyNy41eiIvPjwvc3ZnPg==;" parent="1" vertex="1">
          <mxGeometry x="372" y="209" width="50" height="50" as="geometry" />
        </mxCell>
        <mxCell id="MuEgCA0l2RGkUJCn2qk8-6" style="edgeStyle=orthogonalEdgeStyle;rounded=0;orthogonalLoop=1;jettySize=auto;html=1;entryX=0.5;entryY=0;entryDx=0;entryDy=0;sketch=1;curveFitting=1;jiggle=2;" parent="1" source="MuEgCA0l2RGkUJCn2qk8-14" target="MuEgCA0l2RGkUJCn2qk8-2" edge="1">
          <mxGeometry relative="1" as="geometry" />
        </mxCell>
        <mxCell id="MuEgCA0l2RGkUJCn2qk8-4" value="" style="shape=image;verticalLabelPosition=bottom;labelBackgroundColor=default;verticalAlign=top;aspect=fixed;imageAspect=0;image=data:image/svg+xml,PHN2ZyB4bWxuczp4bGluaz0iaHR0cDovL3d3dy53My5vcmcvMTk5OS94bGluayIgeG1sbnM9Imh0dHA6Ly93d3cudzMub3JnLzIwMDAvc3ZnIiB4bWw6c3BhY2U9InByZXNlcnZlIiB2aWV3Qm94PSIwIDAgNTEyIDUxMiIgaWQ9IkxheWVyXzEiIHZlcnNpb249IjEuMSI+JiN4YTs8cmVjdCBoZWlnaHQ9Ijg4LjMyIiB3aWR0aD0iMjY0Ljk2IiBzdHlsZT0iZmlsbDojQ0ZEQ0U1OyIgeD0iMTY3LjY4NCIvPiYjeGE7PHJlY3QgaGVpZ2h0PSI4OC4zMiIgd2lkdGg9Ijg4LjMyIiBzdHlsZT0iZmlsbDojMjVCNkQyOyIgeD0iNzkuMzU2Ii8+JiN4YTs8cmVjdCBoZWlnaHQ9Ijg4LjMyIiB3aWR0aD0iMjY0Ljk2IiBzdHlsZT0iZmlsbDojQ0ZEQ0U1OyIgeT0iMTQyLjE0NCIgeD0iNzkuMzU2Ii8+JiN4YTs8cmVjdCBoZWlnaHQ9Ijg4LjMyIiB3aWR0aD0iODguMzIiIHN0eWxlPSJmaWxsOiNFMDRGNUY7IiB5PSIxNDIuMTQ0IiB4PSIzNDQuMzI0Ii8+JiN4YTs8cmVjdCBoZWlnaHQ9Ijg4LjMyIiB3aWR0aD0iMjY0Ljk2IiBzdHlsZT0iZmlsbDojQ0ZEQ0U1OyIgeT0iMjgyLjg4IiB4PSIxNjcuNjg0Ii8+JiN4YTs8cmVjdCBoZWlnaHQ9Ijg4LjMyIiB3aWR0aD0iODguMzIiIHN0eWxlPSJmaWxsOiMyNUI2RDI7IiB5PSIyODIuODgiIHg9Ijc5LjM1NiIvPiYjeGE7PHJlY3QgaGVpZ2h0PSI4OC4zMiIgd2lkdGg9IjI2NC45NiIgc3R5bGU9ImZpbGw6I0NGRENFNTsiIHk9IjQyMy42OCIgeD0iNzkuMzU2Ii8+JiN4YTs8cmVjdCBoZWlnaHQ9Ijg4LjMyIiB3aWR0aD0iODguMzIiIHN0eWxlPSJmaWxsOiNFMDRGNUY7IiB5PSI0MjMuNjgiIHg9IjM0NC4zMjQiLz4mI3hhOzwvc3ZnPg==;" parent="1" vertex="1">
          <mxGeometry x="372" y="319" width="50" height="50" as="geometry" />
        </mxCell>
        <mxCell id="MuEgCA0l2RGkUJCn2qk8-9" value="&lt;font face=&quot;Tahoma&quot; style=&quot;font-size: 11px;&quot;&gt;warehouse&lt;/font&gt;" style="text;html=1;align=center;verticalAlign=middle;whiteSpace=wrap;rounded=0;fontSize=11;" parent="1" vertex="1">
          <mxGeometry x="489.5" y="259" width="45" height="30" as="geometry" />
        </mxCell>
        <mxCell id="MuEgCA0l2RGkUJCn2qk8-10" value="&lt;font face=&quot;Tahoma&quot; style=&quot;font-size: 11px;&quot;&gt;manufacturing lines&lt;/font&gt;" style="text;html=1;align=center;verticalAlign=middle;whiteSpace=wrap;rounded=0;fontSize=11;" parent="1" vertex="1">
          <mxGeometry x="277" y="329" width="90" height="30" as="geometry" />
        </mxCell>
        <mxCell id="MuEgCA0l2RGkUJCn2qk8-11" value="" style="edgeStyle=orthogonalEdgeStyle;rounded=0;orthogonalLoop=1;jettySize=auto;html=1;exitX=0.5;exitY=1;exitDx=0;exitDy=0;entryX=0.5;entryY=0;entryDx=0;entryDy=0;endArrow=none;endFill=0;sketch=1;curveFitting=1;jiggle=2;" parent="1" source="MuEgCA0l2RGkUJCn2qk8-3" target="MuEgCA0l2RGkUJCn2qk8-12" edge="1">
          <mxGeometry relative="1" as="geometry">
            <mxPoint x="397" y="269" as="sourcePoint" />
            <mxPoint x="397" y="319" as="targetPoint" />
          </mxGeometry>
        </mxCell>
        <mxCell id="MuEgCA0l2RGkUJCn2qk8-12" value="&lt;font face=&quot;Tahoma&quot; style=&quot;font-size: 11px;&quot;&gt;consists of&lt;/font&gt;" style="text;html=1;align=center;verticalAlign=middle;whiteSpace=wrap;rounded=0;fontSize=11;" parent="1" vertex="1">
          <mxGeometry x="367" y="286.13" width="60" height="11" as="geometry" />
        </mxCell>
        <mxCell id="MuEgCA0l2RGkUJCn2qk8-13" value="" style="edgeStyle=orthogonalEdgeStyle;rounded=0;orthogonalLoop=1;jettySize=auto;html=1;entryX=0.5;entryY=0;entryDx=0;entryDy=0;endArrow=none;endFill=0;sketch=1;curveFitting=1;jiggle=2;" parent="1" source="MuEgCA0l2RGkUJCn2qk8-4" target="MuEgCA0l2RGkUJCn2qk8-14" edge="1">
          <mxGeometry relative="1" as="geometry">
            <mxPoint x="397" y="369" as="sourcePoint" />
            <mxPoint x="397" y="419" as="targetPoint" />
          </mxGeometry>
        </mxCell>
        <mxCell id="MuEgCA0l2RGkUJCn2qk8-14" value="&lt;font face=&quot;Tahoma&quot; style=&quot;font-size: 11px;&quot;&gt;to produce&lt;/font&gt;" style="text;html=1;align=center;verticalAlign=middle;whiteSpace=wrap;rounded=0;fontSize=11;" parent="1" vertex="1">
          <mxGeometry x="367" y="390" width="60" height="11" as="geometry" />
        </mxCell>
        <mxCell id="MuEgCA0l2RGkUJCn2qk8-15" value="&lt;font face=&quot;Tahoma&quot; style=&quot;font-size: 11px;&quot;&gt;primary packaged drug product&lt;/font&gt;" style="text;html=1;align=center;verticalAlign=middle;whiteSpace=wrap;rounded=0;fontSize=11;" parent="1" vertex="1">
          <mxGeometry x="286.5" y="439" width="81.5" height="30" as="geometry" />
        </mxCell>
        <mxCell id="MuEgCA0l2RGkUJCn2qk8-17" value="&lt;ul style=&quot;font-size: 11px;&quot;&gt;&lt;li&gt;&lt;span style=&quot;font-family: Tahoma; background-color: initial;&quot;&gt;multiple&amp;nbsp;manufacturing&lt;/span&gt;&lt;span style=&quot;font-family: Tahoma; background-color: initial;&quot;&gt;&amp;nbsp;lines (with different shift models) and multiple primary packaged&amp;nbsp;&lt;/span&gt;&lt;span style=&quot;font-family: Tahoma; background-color: initial;&quot;&gt;products&lt;/span&gt;&lt;/li&gt;&lt;li style=&quot;font-size: 11px;&quot;&gt;&lt;font face=&quot;Tahoma&quot; style=&quot;font-size: 11px;&quot;&gt;each product can only be produced on a specific line with dedicated equipment (e.g., vessels, filters) as defined in the manufacturing instruction&lt;/font&gt;&lt;/li&gt;&lt;/ul&gt;" style="text;html=1;align=left;verticalAlign=middle;whiteSpace=wrap;rounded=0;fontSize=11;" parent="1" vertex="1">
          <mxGeometry y="302.09" width="240" height="103.81" as="geometry" />
        </mxCell>
        <mxCell id="MuEgCA0l2RGkUJCn2qk8-19" value="" style="shape=image;verticalLabelPosition=bottom;labelBackgroundColor=default;verticalAlign=top;aspect=fixed;imageAspect=0;image=data:image/svg+xml,PHN2ZyB4bWxuczp4bGluaz0iaHR0cDovL3d3dy53My5vcmcvMTk5OS94bGluayIgeG1sbnM9Imh0dHA6Ly93d3cudzMub3JnLzIwMDAvc3ZnIiB4bWw6c3BhY2U9InByZXNlcnZlIiB2ZXJzaW9uPSIxLjEiIHN0eWxlPSJmaWxsLXJ1bGU6ZXZlbm9kZDtjbGlwLXJ1bGU6ZXZlbm9kZDtzdHJva2UtbGluZWpvaW46cm91bmQ7c3Ryb2tlLW1pdGVybGltaXQ6MjsiIHZpZXdCb3g9IjAgMCAxMjkgMTI5IiBoZWlnaHQ9IjgwMHB4IiB3aWR0aD0iODAwcHgiIGZpbGw9IiMwMDAwMDAiPiYjeGE7JiN4YTs8ZyB0cmFuc2Zvcm09Im1hdHJpeCgxLDAsMCwxLC0xNTcsLTE2OSkiPiYjeGE7JiN4YTs8ZyB0cmFuc2Zvcm09Im1hdHJpeCgxLDAsMCwxLDE1Ny43MDksMTY5LjU4MykiIGlkPSJ3b3JrZXIiPiYjeGE7JiN4YTs8cmVjdCB5PSIwIiB4PSIwIiB3aWR0aD0iMTI4IiBzdHlsZT0iZmlsbDpub25lOyIgaGVpZ2h0PSIxMjgiLz4mI3hhOyYjeGE7PGc+JiN4YTsmI3hhOzxnIHRyYW5zZm9ybT0ibWF0cml4KDEuMDUyOTgsMCwwLDAuODM0Njc2LC0yOTE0LjY3LDQ2Ny45NjUpIj4mI3hhOyYjeGE7PHBhdGggc3R5bGU9ImZpbGw6cmdiKDI0NCw0OSw0OSk7IiBkPSJNMjg4MS4zLC00MTcuODI3QzI4ODEuMywtNDQyLjA2MSAyODY1LjczLC00NjEuNzA2IDI4NDYuNTIsLTQ2MS43MDZDMjgzNS4xMiwtNDYxLjcwNiAyODIyLjQ1LC00NjEuNzA2IDI4MTEuMDUsLTQ2MS43MDZDMjc5MS44NCwtNDYxLjcwNiAyNzc2LjI3LC00NDIuMDYxIDI3NzYuMjcsLTQxNy44MjdMMjc3Ni4yNywtNDExLjMxOUwyODgxLjMsLTQxMS4zMTlMMjg4MS4zLC00MTcuODI3WiIvPiYjeGE7JiN4YTs8L2c+JiN4YTsmI3hhOzxnIHRyYW5zZm9ybT0ibWF0cml4KDEsMCwwLDEsLTIzNDUuNzIsLTI3OTEuMjUpIj4mI3hhOyYjeGE7PHBhdGggc3R5bGU9ImZpbGw6cmdiKDE4MywzNywzNyk7IiBkPSJNMjQ2NS4wMSwyOTA5LjYxTDIzNTQuNDMsMjkwOS42MUMyMzU0LjQzLDI5MDkuOSAyMzU0LjQzLDI5MTAuMTggMjM1NC40MywyOTEwLjQ3TDIzNTQuNDMsMjkxNS45TDI0NjUuMDIsMjkxNS45TDI0NjUuMDIsMjkxMC40N0MyNDY1LjAyLDI5MTAuMTggMjQ2NS4wMiwyOTA5LjkgMjQ2NS4wMSwyOTA5LjYxWiIvPiYjeGE7JiN4YTs8L2c+JiN4YTsmI3hhOzxnIHRyYW5zZm9ybT0ibWF0cml4KDEsMCwwLDEsLTIzNDUuNzIsLTI3OTEuMjUpIj4mI3hhOyYjeGE7PHBhdGggc3R5bGU9ImZpbGw6cmdiKDI0NywxMDEsMTAxKTsiIGQ9Ik0yMzU0LjUzLDI5MTUuOUMyMzU1Ljk3LDI4OTYuOTkgMjM3MS43NywyODgyLjA5IDIzOTEuMDUsMjg4Mi4wOUwyNDI4LjQsMjg4Mi4wOUMyNDQ3LjY4LDI4ODIuMDkgMjQ2My40OCwyODk2Ljk5IDI0NjQuOTEsMjkxNS45TDI0NjUuMDIsMjkxNS45TDI0NjUuMDIsMjkxMC40N0MyNDY1LjAyLDI4OTAuMjQgMjQ0OC42MiwyODczLjg1IDI0MjguNCwyODczLjg1TDIzOTEuMDUsMjg3My44NUMyMzcwLjgyLDI4NzMuODUgMjM1NC40MywyODkwLjI0IDIzNTQuNDMsMjkxMC40N0wyMzU0LjQzLDI5MTUuOUwyMzU0LjUzLDI5MTUuOVoiLz4mI3hhOyYjeGE7PC9nPiYjeGE7JiN4YTs8ZyB0cmFuc2Zvcm09Im1hdHJpeCgxLjA1Mjk4LDAsMCwwLjkzMjYwMywtMjkxNS44MSw1MTAuNzkpIj4mI3hhOyYjeGE7PHBhdGggc3R5bGU9ImZpbGw6cmdiKDE4NSwxNTYsODQpOyIgZD0iTTI4MzcuOSwtNDgxLjU1MUwyODIyLjU2LC00ODEuNTUxTDI4MjIuNTYsLTQ1OS4xNDVDMjgyOC4wMywtNDUzLjMyOSAyODMzLjE0LC00NTMuMzI5IDI4MzcuOSwtNDU5LjE0NUwyODM3LjksLTQ4MS41NTFaIi8+JiN4YTsmI3hhOzwvZz4mI3hhOyYjeGE7PGcgdHJhbnNmb3JtPSJtYXRyaXgoMSwwLDAsMSwtMjM0NS43MiwtMjc5MS4yNSkiPiYjeGE7JiN4YTs8cGF0aCBzdHlsZT0iZmlsbDpyZ2IoMjQ3LDIwOCwxMTIpOyIgZD0iTTI0MDIuMDIsMjg2Ni4wNEwyNDAyLjAyLDI4NzMuODVDMjQwNy43OCwyODc5LjI3IDI0MTMuMTYsMjg3OS4yNyAyNDE4LjE4LDI4NzMuODVMMjQxOC4xOCwyODY2LjA0QzI0MTMuMTYsMjg3MS40NiAyNDA3Ljc4LDI4NzEuNDYgMjQwMi4wMiwyODY2LjA0WiIvPiYjeGE7JiN4YTs8L2c+JiN4YTsmI3hhOzxnIHRyYW5zZm9ybT0ibWF0cml4KDEuMTkzNjgsMCwwLDEuMzI3MzMsLTMzMTAuMTMsNjg4LjkwNCkiPiYjeGE7JiN4YTs8Y2lyY2xlIHN0eWxlPSJmaWxsOnJnYigyNDcsMjA4LDExMik7IiByPSIxNy43MDUiIGN5PSItNDgxLjU2MyIgY3g9IjI4MjYuOTkiLz4mI3hhOyYjeGE7PC9nPiYjeGE7JiN4YTs8ZyB0cmFuc2Zvcm09Im1hdHJpeCgwLjcwNTQ2NywwLDAsMC45NTUxNzksLTE5MzMuODUsNTI3LjUwOSkiPiYjeGE7JiN4YTs8cGF0aCBzdHlsZT0iZmlsbDpyZ2IoMTMsMTIxLDI0Mik7IiBkPSJNMjc4OS44NiwtNDYzLjM5N0wyNzg5Ljg2LC00MzYuMzc3QzI3ODkuODYsLTQzMi44NzcgMjc4OC4zOCwtNDI5LjQ2NCAyNzg1LjYyLC00MjYuNjE5QzI3ODMuMywtNDI0LjIzNSAyNzgwLjkxLC00MjEuNzY2IDI3ODAuOTEsLTQyMS43NjZMMjg4MS4zNCwtNDIxLjc2NkMyODgxLjM0LC00MjEuNzY2IDI4NzguOTQsLTQyNC4yMzUgMjg3Ni42MywtNDI2LjYxOUMyODczLjg3LC00MjkuNDY0IDI4NzIuMzgsLTQzMi44NzcgMjg3Mi4zOCwtNDM2LjM3N0MyODcyLjM4LC00NDUuNjkzIDI4NzIuMzgsLTQ2My44MzUgMjg3Mi4zOCwtNDYzLjgzNUMyODY3LjA0LC00NjUuMTMxIDI4NjEuNCwtNDY1Ljc5NiAyODU1LjY3LC00NjUuNzk2QzI4NTUuNjcsLTQ2NS43OTYgMjg1My4zNiwtNDUyLjExNCAyODUyLjIxLC00NDUuMzcxQzI4NTEuODYsLTQ0My4yNzUgMjg0OS40NSwtNDQxLjcwMyAyODQ2LjU5LC00NDEuNzAzQzI4MzkuMTgsLTQ0MS43MDMgMjgyNS4zOSwtNDQxLjcwMyAyODE4LjA1LC00NDEuNzAzQzI4MTUuMjUsLTQ0MS43MDMgMjgxMi44NywtNDQzLjIxNiAyODEyLjQ1LC00NDUuMjYzQzI4MTEuMDcsLTQ1MS45NjcgMjgwOC4yMywtNDY1Ljc5NiAyODA4LjIzLC00NjUuNzk2QzI4MDEuOSwtNDY1Ljc5NiAyNzk1LjY5LC00NjQuOTg2IDI3ODkuODYsLTQ2My4zOTdaIi8+JiN4YTsmI3hhOzwvZz4mI3hhOyYjeGE7PGcgdHJhbnNmb3JtPSJtYXRyaXgoMSwwLDAsMSwtMjM0NS43MiwtMjc5MS4yNSkiPiYjeGE7JiN4YTs8cGF0aCBzdHlsZT0iZmlsbDpyZ2IoNzQsMTU1LDI0NSk7IiBkPSJNMjM5NC4yNiwyODgyLjE4TDIzOTIuOTksMjg3My44NUMyMzg4LjUzLDI4NzMuODUgMjM4NC4xNCwyODc0LjYyIDIzODAuMDMsMjg3Ni4xNEwyMzgwLjAzLDI4ODQuNDhDMjM4NC4xNCwyODgyLjk2IDIzODguNTMsMjg4Mi4xOCAyMzkyLjk5LDI4ODIuMThMMjM5NC4yNiwyODgyLjE4WiIvPiYjeGE7JiN4YTs8L2c+JiN4YTsmI3hhOzxnIHRyYW5zZm9ybT0ibWF0cml4KDEsMCwwLDEsLTIzNDUuNzIsLTI3OTEuMjUpIj4mI3hhOyYjeGE7PHBhdGggc3R5bGU9ImZpbGw6cmdiKDc0LDE1NSwyNDUpOyIgZD0iTTI0MjkuNDcsMjg3My45NkwyNDI2LjQ2LDI4NzMuODVMMjQyNS40MSwyODgyLjE4TDI0MjYuNDYsMjg4Mi4xOEMyNDMwLjUsMjg4Mi4xOCAyNDM0LjQ4LDI4ODIuODIgMjQzOC4yNSwyODg0LjA2TDI0MzguMjUsMjg3NS43MkMyNDM1LjQyLDI4NzQuNzkgMjQzMi40NywyODc0LjIgMjQyOS40NywyODczLjk2WiIvPiYjeGE7JiN4YTs8L2c+JiN4YTsmI3hhOzxnIHRyYW5zZm9ybT0ibWF0cml4KDEsMCwwLDEsLTIzNDUuNzIsLTI3OTEuMjUpIj4mI3hhOyYjeGE7PHBhdGggc3R5bGU9ImZpbGw6cmdiKDEwLDkxLDE4MSk7IiBkPSJNMjQ0MC4yMSwyOTA5LjYzTDIzNzguMDcsMjkwOS42M0MyMzc3Ljc2LDI5MTAuMTkgMjM3Ny40MSwyOTEwLjc0IDIzNzcuMDQsMjkxMS4yN0MyMzc1LjQsMjkxMy41NCAyMzczLjcxLDI5MTUuOSAyMzczLjcxLDI5MTUuOUwyNDQ0LjU3LDI5MTUuOUMyNDQ0LjU3LDI5MTUuOSAyNDQyLjg4LDI5MTMuNTQgMjQ0MS4yNCwyOTExLjI3QzI0NDAuODcsMjkxMC43NCAyNDQwLjUyLDI5MTAuMTkgMjQ0MC4yMSwyOTA5LjYzWiIvPiYjeGE7JiN4YTs8L2c+JiN4YTsmI3hhOzxnIHRyYW5zZm9ybT0ibWF0cml4KDEuMDUyOTgsMCwwLDEuMDUyOTgsLTI5MTUuNzQsNTY4Ljc2KSI+JiN4YTsmI3hhOzxwYXRoIHN0eWxlPSJmaWxsOnJnYigxNTgsMTU4LDE1OCk7IiBkPSJNMjgzMC4xNiwtNTAyLjEwMkMyODMyLjEzLC01MDUuMTQzIDI4MzUuNTgsLTUwNy4xNTkgMjgzOS41LC01MDcuMTU5QzI4NDUuNjIsLTUwNy4xNTkgMjg1MC42LC01MDIuMjQ0IDI4NTAuNiwtNDk2LjE5MUMyODUwLjYsLTQ5MC4xMzcgMjg0NS42MiwtNDg1LjIyMyAyODM5LjUsLTQ4NS4yMjNDMjgzNy4yOSwtNDg1LjIyMyAyODM1LjIzLC00ODUuODY1IDI4MzMuNSwtNDg2Ljk3QzI4MzEuNDcsLTQ4OC4yODcgMjgyOC44NSwtNDg4LjI4NiAyODI2LjgyLC00ODYuOTY5QzI4MjUuMDksLTQ4NS44NjUgMjgyMy4wMywtNDg1LjIyMyAyODIwLjgxLC00ODUuMjIzQzI4MTQuNjksLTQ4NS4yMjMgMjgwOS43MiwtNDkwLjEzNyAyODA5LjcyLC00OTYuMTkxQzI4MDkuNzIsLTUwMi4yNDQgMjgxNC42OSwtNTA3LjE1OSAyODIwLjgxLC01MDcuMTU5QzI4MjQuNzQsLTUwNy4xNTkgMjgyOC4xOCwtNTA1LjE0MyAyODMwLjE2LC01MDIuMTAyWiIvPiYjeGE7JiN4YTs8L2c+JiN4YTsmI3hhOzxnIHRyYW5zZm9ybT0ibWF0cml4KDEuMDUyOTgsMCwwLDEuMDUyOTgsLTI5MTUuNzQsNTY4Ljc2KSI+JiN4YTsmI3hhOzxwYXRoIHN0eWxlPSJmaWxsOnJnYig1MSw1MSw1MSk7IiBkPSJNMjgzMC4xNiwtNTA1LjEyOUMyODI3LjgsLTUwNy41NSAyODI0LjQ4LC01MDkuMDU4IDI4MjAuODEsLTUwOS4wNThDMjgxMy42NCwtNTA5LjA1OCAyODA3LjgyLC01MDMuMjg3IDI4MDcuODIsLTQ5Ni4xOTFDMjgwNy44MiwtNDg5LjA5NSAyODEzLjY0LC00ODMuMzIzIDI4MjAuODEsLTQ4My4zMjNDMjgyMy40LC00ODMuMzIzIDI4MjUuODIsLTQ4NC4wNzUgMjgyNy44NCwtNDg1LjM2OEMyODI3Ljg1LC00ODUuMzcxIDI4MjcuODUsLTQ4NS4zNzMgMjgyNy44NiwtNDg1LjM3NkMyODI5LjI2LC00ODYuMjg1IDI4MzEuMDYsLTQ4Ni4yODUgMjgzMi40NiwtNDg1LjM3NkMyODMyLjQ3LC00ODUuMzc0IDI4MzIuNDcsLTQ4NS4zNzIgMjgzMi40NywtNDg1LjM2OUMyODM0LjUsLTQ4NC4wNzYgMjgzNi45MSwtNDgzLjMyMyAyODM5LjUsLTQ4My4zMjNDMjg0Ni42OCwtNDgzLjMyMyAyODUyLjUsLTQ4OS4wOTUgMjg1Mi41LC00OTYuMTkxQzI4NTIuNSwtNTAzLjI4NyAyODQ2LjY4LC01MDkuMDU4IDI4MzkuNSwtNTA5LjA1OEMyODM1Ljg0LC01MDkuMDU4IDI4MzIuNTIsLTUwNy41NSAyODMwLjE2LC01MDUuMTI5Wk0yODI4LjU3LC01MDEuMDY4QzI4MjguOTEsLTUwMC41MjggMjgyOS41MSwtNTAwLjIwMyAyODMwLjE2LC01MDAuMjAzQzI4MzAuOCwtNTAwLjIwMyAyODMxLjQsLTUwMC41MjggMjgzMS43NSwtNTAxLjA2OEMyODMzLjM5LC01MDMuNTkgMjgzNi4yNSwtNTA1LjI2IDI4MzkuNSwtNTA1LjI2QzI4NDQuNTcsLTUwNS4yNiAyODQ4LjcsLTUwMS4yMDIgMjg0OC43LC00OTYuMTkxQzI4NDguNywtNDkxLjE4IDI4NDQuNTcsLTQ4Ny4xMjIgMjgzOS41LC00ODcuMTIyQzI4MzcuNjcsLTQ4Ny4xMjIgMjgzNS45NiwtNDg3LjY1MyAyODM0LjUyLC00ODguNTdDMjgzMS44NywtNDkwLjI4NiAyODI4LjQ1LC00OTAuMjg2IDI4MjUuOCwtNDg4LjU2OUMyODI0LjM2LC00ODcuNjUzIDI4MjIuNjUsLTQ4Ny4xMjIgMjgyMC44MSwtNDg3LjEyMkMyODE1Ljc1LC00ODcuMTIyIDI4MTEuNjIsLTQ5MS4xOCAyODExLjYyLC00OTYuMTkxQzI4MTEuNjIsLTUwMS4yMDIgMjgxNS43NSwtNTA1LjI2IDI4MjAuODEsLTUwNS4yNkMyODI0LjA3LC01MDUuMjYgMjgyNi45MywtNTAzLjU5IDI4MjguNTcsLTUwMS4wNjhaIi8+JiN4YTsmI3hhOzwvZz4mI3hhOyYjeGE7PGcgdHJhbnNmb3JtPSJtYXRyaXgoMS4wNTI5OCwwLDAsMS4wNTI5OCwtMjkxNS43NCw1NjguNzYpIj4mI3hhOyYjeGE7PHBhdGggc3R5bGU9ImZpbGw6cmdiKDI0NCwxODcsNDkpOyIgZD0iTTI4MDQuMTYsLTUwMS40NDJDMjgwMy4zOCwtNTAyLjcxOSAyODA4LjcyLC01MDYuMDc2IDI4MDguMiwtNTA3LjQ5OEMyODA3LjI3LC01MTAuMDE0IDI4MDYuNzcsLTUxMC43MzIgMjgwNi43NywtNTEzLjU2N0MyODA2Ljc3LC01MjYuNDc2IDI4MTcuMjUsLTUzNi45NTcgMjgzMC4xNiwtNTM2Ljk1N0MyODQzLjA3LC01MzYuOTU3IDI4NTMuNTUsLTUyNi40NzYgMjg1My41NSwtNTEzLjU2N0MyODUzLjU1LC01MTAuNzMyIDI4NTMuMDQsLTUxMC4wMTQgMjg1Mi4xMiwtNTA3LjQ5OEMyODUxLjU5LC01MDYuMDc2IDI4NTYuOTQsLTUwMi43MTkgMjg1Ni4xNiwtNTAxLjQ0MkwyODA0LjE2LC01MDEuNDQyWiIvPiYjeGE7JiN4YTs8L2c+JiN4YTsmI3hhOzxnIHRyYW5zZm9ybT0ibWF0cml4KDEsMCwwLDEsLTIzNDUuNzIsLTI3OTEuMjUpIj4mI3hhOyYjeGE7PHBhdGggc3R5bGU9ImZpbGw6cmdiKDI0NywyMDQsMTAxKTsiIGQ9Ik0yMzg1LjkyLDI4MjIuNzZDMjM4NS42MiwyODIxLjggMjM4NS40NywyODIwLjg0IDIzODUuNDcsMjgxOS4yNEMyMzg1LjQ3LDI4MDUuNjQgMjM5Ni41MSwyNzk0LjYxIDI0MTAuMSwyNzk0LjYxQzI0MjMuNjksMjc5NC42MSAyNDM0LjczLDI4MDUuNjQgMjQzNC43MywyODE5LjI0QzI0MzQuNzMsMjgyMC44NCAyNDM0LjU3LDI4MjEuOCAyNDM0LjI4LDI4MjIuNzZDMjQzMi4wOCwyODExLjQxIDI0MjIuMDksMjgwMi44MyAyNDEwLjEsMjgwMi44M0MyMzk4LjExLDI4MDIuODMgMjM4OC4xMSwyODExLjQxIDIzODUuOTIsMjgyMi43NloiLz4mI3hhOyYjeGE7PC9nPiYjeGE7JiN4YTs8ZyB0cmFuc2Zvcm09Im1hdHJpeCgwLjkxMDIzNiwwLDAsMS4wNTI5OCwtMjUzNi40NSw1NjguODAyKSI+JiN4YTsmI3hhOzxwYXRoIHN0eWxlPSJmaWxsOnJnYigxODMsMTQwLDM3KTsiIGQ9Ik0yODQ0Ljc1LC01MzQuMzE1QzI4NTEuMzcsLTUyOS43ODMgMjg1NS43NSwtNTIyLjE4NSAyODU1Ljc1LC01MTMuNTY3QzI4NTUuNzUsLTUxMi41MTggMjg1NC43NiwtNTExLjY2NyAyODUzLjU1LC01MTEuNjY3QzI4NTIuMzQsLTUxMS42NjcgMjg1MS4zNSwtNTEyLjUxOCAyODUxLjM1LC01MTMuNTY3QzI4NTEuMzUsLTUyMS4wNjYgMjg0Ny41NiwtNTI3LjY5MyAyODQxLjc0LC01MzEuNTU3QzI4NDEuNDQsLTUzMS43NTcgMjg0MS4yMiwtNTMyLjAxMSAyODQxLjEsLTUzMi4zMDJDMjg0Mi4yNSwtNTMzLjA1NiAyODQzLjQ3LC01MzMuNzMxIDI4NDQuNzUsLTUzNC4zMTVaIi8+JiN4YTsmI3hhOzwvZz4mI3hhOyYjeGE7PGcgdHJhbnNmb3JtPSJtYXRyaXgoLTAuOTEwMjM2LDAsMCwxLjA1Mjk4LDI2NjUuMiw1NjguODAyKSI+JiN4YTsmI3hhOzxwYXRoIHN0eWxlPSJmaWxsOnJnYigxODMsMTQwLDM3KTsiIGQ9Ik0yODQ0Ljc1LC01MzQuMzE1QzI4NDMuNDcsLTUzMy43MzMgMjg0Mi4yNCwtNTMzLjA2NCAyODQxLjEsLTUzMi4zMDJDMjg0MS4yMiwtNTMyLjAxMSAyODQxLjQ0LC01MzEuNzU3IDI4NDEuNzQsLTUzMS41NTdDMjg0Ny41NiwtNTI3LjY5MyAyODUxLjM1LC01MjEuMDY2IDI4NTEuMzUsLTUxMy41NjdDMjg1MS4zNSwtNTEyLjUxOCAyODUyLjM0LC01MTEuNjY3IDI4NTMuNTUsLTUxMS42NjdDMjg1NC43NiwtNTExLjY2NyAyODU1Ljc1LC01MTIuNTE4IDI4NTUuNzUsLTUxMy41NjdDMjg1NS43NSwtNTIyLjE4NSAyODUxLjM3LC01MjkuNzgzIDI4NDQuNzUsLTUzNC4zMTVaIi8+JiN4YTsmI3hhOzwvZz4mI3hhOyYjeGE7PGcgdHJhbnNmb3JtPSJtYXRyaXgoMS4wNTI5OCwwLDAsMS4wNTI5OCwtMjkxNS42OSw1NjguNzYpIj4mI3hhOyYjeGE7PHBhdGggc3R5bGU9ImZpbGw6cmdiKDE4MywxNDAsMzcpOyIgZD0iTTI4MDcuNDksLTUwOS4yOTZMMjgwOC4yMywtNTA5LjQ0NEwyODE4LjE0LC01MDkuNDQ0QzI4MTkuMTksLTUwOS40NDQgMjgyMC4wNCwtNTA4LjU5MyAyODIwLjA0LC01MDcuNTQ1QzI4MjAuMDQsLTUwNi40OTYgMjgxOS4xOSwtNTA1LjY0NSAyODE4LjE0LC01MDUuNjQ1TDI4MDguMjMsLTUwNS42NDVDMjgwNy45MiwtNTA1LjY0NSAyODA3LjYzLC01MDUuNzE4IDI4MDcuMzgsLTUwNS44NjZDMjgwNy45NSwtNTA2LjQ5OSAyODA4LjMsLTUwNy4wODIgMjgwOC4xNSwtNTA3LjQ5OEwyODA3LjQ5LC01MDkuMjk2WiIvPiYjeGE7JiN4YTs8L2c+JiN4YTsmI3hhOzwvZz4mI3hhOyYjeGE7PC9nPiYjeGE7JiN4YTs8L2c+JiN4YTsmI3hhOzwvc3ZnPg==;" parent="1" vertex="1">
          <mxGeometry x="417" y="319" width="10" height="10" as="geometry" />
        </mxCell>
        <mxCell id="MuEgCA0l2RGkUJCn2qk8-21" value="" style="shape=image;verticalLabelPosition=bottom;labelBackgroundColor=default;verticalAlign=top;aspect=fixed;imageAspect=0;image=data:image/svg+xml,PHN2ZyB4bWxuczp4bGluaz0iaHR0cDovL3d3dy53My5vcmcvMTk5OS94bGluayIgeG1sbnM9Imh0dHA6Ly93d3cudzMub3JnLzIwMDAvc3ZnIiB4bWw6c3BhY2U9InByZXNlcnZlIiB2ZXJzaW9uPSIxLjEiIHN0eWxlPSJmaWxsLXJ1bGU6ZXZlbm9kZDtjbGlwLXJ1bGU6ZXZlbm9kZDtzdHJva2UtbGluZWpvaW46cm91bmQ7c3Ryb2tlLW1pdGVybGltaXQ6MjsiIHZpZXdCb3g9IjAgMCAxMjkgMTI5IiBoZWlnaHQ9IjgwMHB4IiB3aWR0aD0iODAwcHgiIGZpbGw9IiMwMDAwMDAiPiYjeGE7JiN4YTs8ZyB0cmFuc2Zvcm09Im1hdHJpeCgxLDAsMCwxLC0xNTcsLTE2OSkiPiYjeGE7JiN4YTs8ZyB0cmFuc2Zvcm09Im1hdHJpeCgxLDAsMCwxLDE1Ny43MDksMTY5LjU4MykiIGlkPSJ3b3JrZXIiPiYjeGE7JiN4YTs8cmVjdCB5PSIwIiB4PSIwIiB3aWR0aD0iMTI4IiBzdHlsZT0iZmlsbDpub25lOyIgaGVpZ2h0PSIxMjgiLz4mI3hhOyYjeGE7PGc+JiN4YTsmI3hhOzxnIHRyYW5zZm9ybT0ibWF0cml4KDEuMDUyOTgsMCwwLDAuODM0Njc2LC0yOTE0LjY3LDQ2Ny45NjUpIj4mI3hhOyYjeGE7PHBhdGggc3R5bGU9ImZpbGw6cmdiKDI0NCw0OSw0OSk7IiBkPSJNMjg4MS4zLC00MTcuODI3QzI4ODEuMywtNDQyLjA2MSAyODY1LjczLC00NjEuNzA2IDI4NDYuNTIsLTQ2MS43MDZDMjgzNS4xMiwtNDYxLjcwNiAyODIyLjQ1LC00NjEuNzA2IDI4MTEuMDUsLTQ2MS43MDZDMjc5MS44NCwtNDYxLjcwNiAyNzc2LjI3LC00NDIuMDYxIDI3NzYuMjcsLTQxNy44MjdMMjc3Ni4yNywtNDExLjMxOUwyODgxLjMsLTQxMS4zMTlMMjg4MS4zLC00MTcuODI3WiIvPiYjeGE7JiN4YTs8L2c+JiN4YTsmI3hhOzxnIHRyYW5zZm9ybT0ibWF0cml4KDEsMCwwLDEsLTIzNDUuNzIsLTI3OTEuMjUpIj4mI3hhOyYjeGE7PHBhdGggc3R5bGU9ImZpbGw6cmdiKDE4MywzNywzNyk7IiBkPSJNMjQ2NS4wMSwyOTA5LjYxTDIzNTQuNDMsMjkwOS42MUMyMzU0LjQzLDI5MDkuOSAyMzU0LjQzLDI5MTAuMTggMjM1NC40MywyOTEwLjQ3TDIzNTQuNDMsMjkxNS45TDI0NjUuMDIsMjkxNS45TDI0NjUuMDIsMjkxMC40N0MyNDY1LjAyLDI5MTAuMTggMjQ2NS4wMiwyOTA5LjkgMjQ2NS4wMSwyOTA5LjYxWiIvPiYjeGE7JiN4YTs8L2c+JiN4YTsmI3hhOzxnIHRyYW5zZm9ybT0ibWF0cml4KDEsMCwwLDEsLTIzNDUuNzIsLTI3OTEuMjUpIj4mI3hhOyYjeGE7PHBhdGggc3R5bGU9ImZpbGw6cmdiKDI0NywxMDEsMTAxKTsiIGQ9Ik0yMzU0LjUzLDI5MTUuOUMyMzU1Ljk3LDI4OTYuOTkgMjM3MS43NywyODgyLjA5IDIzOTEuMDUsMjg4Mi4wOUwyNDI4LjQsMjg4Mi4wOUMyNDQ3LjY4LDI4ODIuMDkgMjQ2My40OCwyODk2Ljk5IDI0NjQuOTEsMjkxNS45TDI0NjUuMDIsMjkxNS45TDI0NjUuMDIsMjkxMC40N0MyNDY1LjAyLDI4OTAuMjQgMjQ0OC42MiwyODczLjg1IDI0MjguNCwyODczLjg1TDIzOTEuMDUsMjg3My44NUMyMzcwLjgyLDI4NzMuODUgMjM1NC40MywyODkwLjI0IDIzNTQuNDMsMjkxMC40N0wyMzU0LjQzLDI5MTUuOUwyMzU0LjUzLDI5MTUuOVoiLz4mI3hhOyYjeGE7PC9nPiYjeGE7JiN4YTs8ZyB0cmFuc2Zvcm09Im1hdHJpeCgxLjA1Mjk4LDAsMCwwLjkzMjYwMywtMjkxNS44MSw1MTAuNzkpIj4mI3hhOyYjeGE7PHBhdGggc3R5bGU9ImZpbGw6cmdiKDE4NSwxNTYsODQpOyIgZD0iTTI4MzcuOSwtNDgxLjU1MUwyODIyLjU2LC00ODEuNTUxTDI4MjIuNTYsLTQ1OS4xNDVDMjgyOC4wMywtNDUzLjMyOSAyODMzLjE0LC00NTMuMzI5IDI4MzcuOSwtNDU5LjE0NUwyODM3LjksLTQ4MS41NTFaIi8+JiN4YTsmI3hhOzwvZz4mI3hhOyYjeGE7PGcgdHJhbnNmb3JtPSJtYXRyaXgoMSwwLDAsMSwtMjM0NS43MiwtMjc5MS4yNSkiPiYjeGE7JiN4YTs8cGF0aCBzdHlsZT0iZmlsbDpyZ2IoMjQ3LDIwOCwxMTIpOyIgZD0iTTI0MDIuMDIsMjg2Ni4wNEwyNDAyLjAyLDI4NzMuODVDMjQwNy43OCwyODc5LjI3IDI0MTMuMTYsMjg3OS4yNyAyNDE4LjE4LDI4NzMuODVMMjQxOC4xOCwyODY2LjA0QzI0MTMuMTYsMjg3MS40NiAyNDA3Ljc4LDI4NzEuNDYgMjQwMi4wMiwyODY2LjA0WiIvPiYjeGE7JiN4YTs8L2c+JiN4YTsmI3hhOzxnIHRyYW5zZm9ybT0ibWF0cml4KDEuMTkzNjgsMCwwLDEuMzI3MzMsLTMzMTAuMTMsNjg4LjkwNCkiPiYjeGE7JiN4YTs8Y2lyY2xlIHN0eWxlPSJmaWxsOnJnYigyNDcsMjA4LDExMik7IiByPSIxNy43MDUiIGN5PSItNDgxLjU2MyIgY3g9IjI4MjYuOTkiLz4mI3hhOyYjeGE7PC9nPiYjeGE7JiN4YTs8ZyB0cmFuc2Zvcm09Im1hdHJpeCgwLjcwNTQ2NywwLDAsMC45NTUxNzksLTE5MzMuODUsNTI3LjUwOSkiPiYjeGE7JiN4YTs8cGF0aCBzdHlsZT0iZmlsbDpyZ2IoMTMsMTIxLDI0Mik7IiBkPSJNMjc4OS44NiwtNDYzLjM5N0wyNzg5Ljg2LC00MzYuMzc3QzI3ODkuODYsLTQzMi44NzcgMjc4OC4zOCwtNDI5LjQ2NCAyNzg1LjYyLC00MjYuNjE5QzI3ODMuMywtNDI0LjIzNSAyNzgwLjkxLC00MjEuNzY2IDI3ODAuOTEsLTQyMS43NjZMMjg4MS4zNCwtNDIxLjc2NkMyODgxLjM0LC00MjEuNzY2IDI4NzguOTQsLTQyNC4yMzUgMjg3Ni42MywtNDI2LjYxOUMyODczLjg3LC00MjkuNDY0IDI4NzIuMzgsLTQzMi44NzcgMjg3Mi4zOCwtNDM2LjM3N0MyODcyLjM4LC00NDUuNjkzIDI4NzIuMzgsLTQ2My44MzUgMjg3Mi4zOCwtNDYzLjgzNUMyODY3LjA0LC00NjUuMTMxIDI4NjEuNCwtNDY1Ljc5NiAyODU1LjY3LC00NjUuNzk2QzI4NTUuNjcsLTQ2NS43OTYgMjg1My4zNiwtNDUyLjExNCAyODUyLjIxLC00NDUuMzcxQzI4NTEuODYsLTQ0My4yNzUgMjg0OS40NSwtNDQxLjcwMyAyODQ2LjU5LC00NDEuNzAzQzI4MzkuMTgsLTQ0MS43MDMgMjgyNS4zOSwtNDQxLjcwMyAyODE4LjA1LC00NDEuNzAzQzI4MTUuMjUsLTQ0MS43MDMgMjgxMi44NywtNDQzLjIxNiAyODEyLjQ1LC00NDUuMjYzQzI4MTEuMDcsLTQ1MS45NjcgMjgwOC4yMywtNDY1Ljc5NiAyODA4LjIzLC00NjUuNzk2QzI4MDEuOSwtNDY1Ljc5NiAyNzk1LjY5LC00NjQuOTg2IDI3ODkuODYsLTQ2My4zOTdaIi8+JiN4YTsmI3hhOzwvZz4mI3hhOyYjeGE7PGcgdHJhbnNmb3JtPSJtYXRyaXgoMSwwLDAsMSwtMjM0NS43MiwtMjc5MS4yNSkiPiYjeGE7JiN4YTs8cGF0aCBzdHlsZT0iZmlsbDpyZ2IoNzQsMTU1LDI0NSk7IiBkPSJNMjM5NC4yNiwyODgyLjE4TDIzOTIuOTksMjg3My44NUMyMzg4LjUzLDI4NzMuODUgMjM4NC4xNCwyODc0LjYyIDIzODAuMDMsMjg3Ni4xNEwyMzgwLjAzLDI4ODQuNDhDMjM4NC4xNCwyODgyLjk2IDIzODguNTMsMjg4Mi4xOCAyMzkyLjk5LDI4ODIuMThMMjM5NC4yNiwyODgyLjE4WiIvPiYjeGE7JiN4YTs8L2c+JiN4YTsmI3hhOzxnIHRyYW5zZm9ybT0ibWF0cml4KDEsMCwwLDEsLTIzNDUuNzIsLTI3OTEuMjUpIj4mI3hhOyYjeGE7PHBhdGggc3R5bGU9ImZpbGw6cmdiKDc0LDE1NSwyNDUpOyIgZD0iTTI0MjkuNDcsMjg3My45NkwyNDI2LjQ2LDI4NzMuODVMMjQyNS40MSwyODgyLjE4TDI0MjYuNDYsMjg4Mi4xOEMyNDMwLjUsMjg4Mi4xOCAyNDM0LjQ4LDI4ODIuODIgMjQzOC4yNSwyODg0LjA2TDI0MzguMjUsMjg3NS43MkMyNDM1LjQyLDI4NzQuNzkgMjQzMi40NywyODc0LjIgMjQyOS40NywyODczLjk2WiIvPiYjeGE7JiN4YTs8L2c+JiN4YTsmI3hhOzxnIHRyYW5zZm9ybT0ibWF0cml4KDEsMCwwLDEsLTIzNDUuNzIsLTI3OTEuMjUpIj4mI3hhOyYjeGE7PHBhdGggc3R5bGU9ImZpbGw6cmdiKDEwLDkxLDE4MSk7IiBkPSJNMjQ0MC4yMSwyOTA5LjYzTDIzNzguMDcsMjkwOS42M0MyMzc3Ljc2LDI5MTAuMTkgMjM3Ny40MSwyOTEwLjc0IDIzNzcuMDQsMjkxMS4yN0MyMzc1LjQsMjkxMy41NCAyMzczLjcxLDI5MTUuOSAyMzczLjcxLDI5MTUuOUwyNDQ0LjU3LDI5MTUuOUMyNDQ0LjU3LDI5MTUuOSAyNDQyLjg4LDI5MTMuNTQgMjQ0MS4yNCwyOTExLjI3QzI0NDAuODcsMjkxMC43NCAyNDQwLjUyLDI5MTAuMTkgMjQ0MC4yMSwyOTA5LjYzWiIvPiYjeGE7JiN4YTs8L2c+JiN4YTsmI3hhOzxnIHRyYW5zZm9ybT0ibWF0cml4KDEuMDUyOTgsMCwwLDEuMDUyOTgsLTI5MTUuNzQsNTY4Ljc2KSI+JiN4YTsmI3hhOzxwYXRoIHN0eWxlPSJmaWxsOnJnYigxNTgsMTU4LDE1OCk7IiBkPSJNMjgzMC4xNiwtNTAyLjEwMkMyODMyLjEzLC01MDUuMTQzIDI4MzUuNTgsLTUwNy4xNTkgMjgzOS41LC01MDcuMTU5QzI4NDUuNjIsLTUwNy4xNTkgMjg1MC42LC01MDIuMjQ0IDI4NTAuNiwtNDk2LjE5MUMyODUwLjYsLTQ5MC4xMzcgMjg0NS42MiwtNDg1LjIyMyAyODM5LjUsLTQ4NS4yMjNDMjgzNy4yOSwtNDg1LjIyMyAyODM1LjIzLC00ODUuODY1IDI4MzMuNSwtNDg2Ljk3QzI4MzEuNDcsLTQ4OC4yODcgMjgyOC44NSwtNDg4LjI4NiAyODI2LjgyLC00ODYuOTY5QzI4MjUuMDksLTQ4NS44NjUgMjgyMy4wMywtNDg1LjIyMyAyODIwLjgxLC00ODUuMjIzQzI4MTQuNjksLTQ4NS4yMjMgMjgwOS43MiwtNDkwLjEzNyAyODA5LjcyLC00OTYuMTkxQzI4MDkuNzIsLTUwMi4yNDQgMjgxNC42OSwtNTA3LjE1OSAyODIwLjgxLC01MDcuMTU5QzI4MjQuNzQsLTUwNy4xNTkgMjgyOC4xOCwtNTA1LjE0MyAyODMwLjE2LC01MDIuMTAyWiIvPiYjeGE7JiN4YTs8L2c+JiN4YTsmI3hhOzxnIHRyYW5zZm9ybT0ibWF0cml4KDEuMDUyOTgsMCwwLDEuMDUyOTgsLTI5MTUuNzQsNTY4Ljc2KSI+JiN4YTsmI3hhOzxwYXRoIHN0eWxlPSJmaWxsOnJnYig1MSw1MSw1MSk7IiBkPSJNMjgzMC4xNiwtNTA1LjEyOUMyODI3LjgsLTUwNy41NSAyODI0LjQ4LC01MDkuMDU4IDI4MjAuODEsLTUwOS4wNThDMjgxMy42NCwtNTA5LjA1OCAyODA3LjgyLC01MDMuMjg3IDI4MDcuODIsLTQ5Ni4xOTFDMjgwNy44MiwtNDg5LjA5NSAyODEzLjY0LC00ODMuMzIzIDI4MjAuODEsLTQ4My4zMjNDMjgyMy40LC00ODMuMzIzIDI4MjUuODIsLTQ4NC4wNzUgMjgyNy44NCwtNDg1LjM2OEMyODI3Ljg1LC00ODUuMzcxIDI4MjcuODUsLTQ4NS4zNzMgMjgyNy44NiwtNDg1LjM3NkMyODI5LjI2LC00ODYuMjg1IDI4MzEuMDYsLTQ4Ni4yODUgMjgzMi40NiwtNDg1LjM3NkMyODMyLjQ3LC00ODUuMzc0IDI4MzIuNDcsLTQ4NS4zNzIgMjgzMi40NywtNDg1LjM2OUMyODM0LjUsLTQ4NC4wNzYgMjgzNi45MSwtNDgzLjMyMyAyODM5LjUsLTQ4My4zMjNDMjg0Ni42OCwtNDgzLjMyMyAyODUyLjUsLTQ4OS4wOTUgMjg1Mi41LC00OTYuMTkxQzI4NTIuNSwtNTAzLjI4NyAyODQ2LjY4LC01MDkuMDU4IDI4MzkuNSwtNTA5LjA1OEMyODM1Ljg0LC01MDkuMDU4IDI4MzIuNTIsLTUwNy41NSAyODMwLjE2LC01MDUuMTI5Wk0yODI4LjU3LC01MDEuMDY4QzI4MjguOTEsLTUwMC41MjggMjgyOS41MSwtNTAwLjIwMyAyODMwLjE2LC01MDAuMjAzQzI4MzAuOCwtNTAwLjIwMyAyODMxLjQsLTUwMC41MjggMjgzMS43NSwtNTAxLjA2OEMyODMzLjM5LC01MDMuNTkgMjgzNi4yNSwtNTA1LjI2IDI4MzkuNSwtNTA1LjI2QzI4NDQuNTcsLTUwNS4yNiAyODQ4LjcsLTUwMS4yMDIgMjg0OC43LC00OTYuMTkxQzI4NDguNywtNDkxLjE4IDI4NDQuNTcsLTQ4Ny4xMjIgMjgzOS41LC00ODcuMTIyQzI4MzcuNjcsLTQ4Ny4xMjIgMjgzNS45NiwtNDg3LjY1MyAyODM0LjUyLC00ODguNTdDMjgzMS44NywtNDkwLjI4NiAyODI4LjQ1LC00OTAuMjg2IDI4MjUuOCwtNDg4LjU2OUMyODI0LjM2LC00ODcuNjUzIDI4MjIuNjUsLTQ4Ny4xMjIgMjgyMC44MSwtNDg3LjEyMkMyODE1Ljc1LC00ODcuMTIyIDI4MTEuNjIsLTQ5MS4xOCAyODExLjYyLC00OTYuMTkxQzI4MTEuNjIsLTUwMS4yMDIgMjgxNS43NSwtNTA1LjI2IDI4MjAuODEsLTUwNS4yNkMyODI0LjA3LC01MDUuMjYgMjgyNi45MywtNTAzLjU5IDI4MjguNTcsLTUwMS4wNjhaIi8+JiN4YTsmI3hhOzwvZz4mI3hhOyYjeGE7PGcgdHJhbnNmb3JtPSJtYXRyaXgoMS4wNTI5OCwwLDAsMS4wNTI5OCwtMjkxNS43NCw1NjguNzYpIj4mI3hhOyYjeGE7PHBhdGggc3R5bGU9ImZpbGw6cmdiKDI0NCwxODcsNDkpOyIgZD0iTTI4MDQuMTYsLTUwMS40NDJDMjgwMy4zOCwtNTAyLjcxOSAyODA4LjcyLC01MDYuMDc2IDI4MDguMiwtNTA3LjQ5OEMyODA3LjI3LC01MTAuMDE0IDI4MDYuNzcsLTUxMC43MzIgMjgwNi43NywtNTEzLjU2N0MyODA2Ljc3LC01MjYuNDc2IDI4MTcuMjUsLTUzNi45NTcgMjgzMC4xNiwtNTM2Ljk1N0MyODQzLjA3LC01MzYuOTU3IDI4NTMuNTUsLTUyNi40NzYgMjg1My41NSwtNTEzLjU2N0MyODUzLjU1LC01MTAuNzMyIDI4NTMuMDQsLTUxMC4wMTQgMjg1Mi4xMiwtNTA3LjQ5OEMyODUxLjU5LC01MDYuMDc2IDI4NTYuOTQsLTUwMi43MTkgMjg1Ni4xNiwtNTAxLjQ0MkwyODA0LjE2LC01MDEuNDQyWiIvPiYjeGE7JiN4YTs8L2c+JiN4YTsmI3hhOzxnIHRyYW5zZm9ybT0ibWF0cml4KDEsMCwwLDEsLTIzNDUuNzIsLTI3OTEuMjUpIj4mI3hhOyYjeGE7PHBhdGggc3R5bGU9ImZpbGw6cmdiKDI0NywyMDQsMTAxKTsiIGQ9Ik0yMzg1LjkyLDI4MjIuNzZDMjM4NS42MiwyODIxLjggMjM4NS40NywyODIwLjg0IDIzODUuNDcsMjgxOS4yNEMyMzg1LjQ3LDI4MDUuNjQgMjM5Ni41MSwyNzk0LjYxIDI0MTAuMSwyNzk0LjYxQzI0MjMuNjksMjc5NC42MSAyNDM0LjczLDI4MDUuNjQgMjQzNC43MywyODE5LjI0QzI0MzQuNzMsMjgyMC44NCAyNDM0LjU3LDI4MjEuOCAyNDM0LjI4LDI4MjIuNzZDMjQzMi4wOCwyODExLjQxIDI0MjIuMDksMjgwMi44MyAyNDEwLjEsMjgwMi44M0MyMzk4LjExLDI4MDIuODMgMjM4OC4xMSwyODExLjQxIDIzODUuOTIsMjgyMi43NloiLz4mI3hhOyYjeGE7PC9nPiYjeGE7JiN4YTs8ZyB0cmFuc2Zvcm09Im1hdHJpeCgwLjkxMDIzNiwwLDAsMS4wNTI5OCwtMjUzNi40NSw1NjguODAyKSI+JiN4YTsmI3hhOzxwYXRoIHN0eWxlPSJmaWxsOnJnYigxODMsMTQwLDM3KTsiIGQ9Ik0yODQ0Ljc1LC01MzQuMzE1QzI4NTEuMzcsLTUyOS43ODMgMjg1NS43NSwtNTIyLjE4NSAyODU1Ljc1LC01MTMuNTY3QzI4NTUuNzUsLTUxMi41MTggMjg1NC43NiwtNTExLjY2NyAyODUzLjU1LC01MTEuNjY3QzI4NTIuMzQsLTUxMS42NjcgMjg1MS4zNSwtNTEyLjUxOCAyODUxLjM1LC01MTMuNTY3QzI4NTEuMzUsLTUyMS4wNjYgMjg0Ny41NiwtNTI3LjY5MyAyODQxLjc0LC01MzEuNTU3QzI4NDEuNDQsLTUzMS43NTcgMjg0MS4yMiwtNTMyLjAxMSAyODQxLjEsLTUzMi4zMDJDMjg0Mi4yNSwtNTMzLjA1NiAyODQzLjQ3LC01MzMuNzMxIDI4NDQuNzUsLTUzNC4zMTVaIi8+JiN4YTsmI3hhOzwvZz4mI3hhOyYjeGE7PGcgdHJhbnNmb3JtPSJtYXRyaXgoLTAuOTEwMjM2LDAsMCwxLjA1Mjk4LDI2NjUuMiw1NjguODAyKSI+JiN4YTsmI3hhOzxwYXRoIHN0eWxlPSJmaWxsOnJnYigxODMsMTQwLDM3KTsiIGQ9Ik0yODQ0Ljc1LC01MzQuMzE1QzI4NDMuNDcsLTUzMy43MzMgMjg0Mi4yNCwtNTMzLjA2NCAyODQxLjEsLTUzMi4zMDJDMjg0MS4yMiwtNTMyLjAxMSAyODQxLjQ0LC01MzEuNzU3IDI4NDEuNzQsLTUzMS41NTdDMjg0Ny41NiwtNTI3LjY5MyAyODUxLjM1LC01MjEuMDY2IDI4NTEuMzUsLTUxMy41NjdDMjg1MS4zNSwtNTEyLjUxOCAyODUyLjM0LC01MTEuNjY3IDI4NTMuNTUsLTUxMS42NjdDMjg1NC43NiwtNTExLjY2NyAyODU1Ljc1LC01MTIuNTE4IDI4NTUuNzUsLTUxMy41NjdDMjg1NS43NSwtNTIyLjE4NSAyODUxLjM3LC01MjkuNzgzIDI4NDQuNzUsLTUzNC4zMTVaIi8+JiN4YTsmI3hhOzwvZz4mI3hhOyYjeGE7PGcgdHJhbnNmb3JtPSJtYXRyaXgoMS4wNTI5OCwwLDAsMS4wNTI5OCwtMjkxNS42OSw1NjguNzYpIj4mI3hhOyYjeGE7PHBhdGggc3R5bGU9ImZpbGw6cmdiKDE4MywxNDAsMzcpOyIgZD0iTTI4MDcuNDksLTUwOS4yOTZMMjgwOC4yMywtNTA5LjQ0NEwyODE4LjE0LC01MDkuNDQ0QzI4MTkuMTksLTUwOS40NDQgMjgyMC4wNCwtNTA4LjU5MyAyODIwLjA0LC01MDcuNTQ1QzI4MjAuMDQsLTUwNi40OTYgMjgxOS4xOSwtNTA1LjY0NSAyODE4LjE0LC01MDUuNjQ1TDI4MDguMjMsLTUwNS42NDVDMjgwNy45MiwtNTA1LjY0NSAyODA3LjYzLC01MDUuNzE4IDI4MDcuMzgsLTUwNS44NjZDMjgwNy45NSwtNTA2LjQ5OSAyODA4LjMsLTUwNy4wODIgMjgwOC4xNSwtNTA3LjQ5OEwyODA3LjQ5LC01MDkuMjk2WiIvPiYjeGE7JiN4YTs8L2c+JiN4YTsmI3hhOzwvZz4mI3hhOyYjeGE7PC9nPiYjeGE7JiN4YTs8L2c+JiN4YTsmI3hhOzwvc3ZnPg==;" parent="1" vertex="1">
          <mxGeometry x="417" y="329" width="10" height="10" as="geometry" />
        </mxCell>
        <mxCell id="MuEgCA0l2RGkUJCn2qk8-22" value="" style="shape=image;verticalLabelPosition=bottom;labelBackgroundColor=default;verticalAlign=top;aspect=fixed;imageAspect=0;image=data:image/svg+xml,PHN2ZyB4bWxuczp4bGluaz0iaHR0cDovL3d3dy53My5vcmcvMTk5OS94bGluayIgeG1sbnM9Imh0dHA6Ly93d3cudzMub3JnLzIwMDAvc3ZnIiB4bWw6c3BhY2U9InByZXNlcnZlIiB2ZXJzaW9uPSIxLjEiIHN0eWxlPSJmaWxsLXJ1bGU6ZXZlbm9kZDtjbGlwLXJ1bGU6ZXZlbm9kZDtzdHJva2UtbGluZWpvaW46cm91bmQ7c3Ryb2tlLW1pdGVybGltaXQ6MjsiIHZpZXdCb3g9IjAgMCAxMjkgMTI5IiBoZWlnaHQ9IjgwMHB4IiB3aWR0aD0iODAwcHgiIGZpbGw9IiMwMDAwMDAiPiYjeGE7JiN4YTs8ZyB0cmFuc2Zvcm09Im1hdHJpeCgxLDAsMCwxLC0xNTcsLTE2OSkiPiYjeGE7JiN4YTs8ZyB0cmFuc2Zvcm09Im1hdHJpeCgxLDAsMCwxLDE1Ny43MDksMTY5LjU4MykiIGlkPSJ3b3JrZXIiPiYjeGE7JiN4YTs8cmVjdCB5PSIwIiB4PSIwIiB3aWR0aD0iMTI4IiBzdHlsZT0iZmlsbDpub25lOyIgaGVpZ2h0PSIxMjgiLz4mI3hhOyYjeGE7PGc+JiN4YTsmI3hhOzxnIHRyYW5zZm9ybT0ibWF0cml4KDEuMDUyOTgsMCwwLDAuODM0Njc2LC0yOTE0LjY3LDQ2Ny45NjUpIj4mI3hhOyYjeGE7PHBhdGggc3R5bGU9ImZpbGw6cmdiKDI0NCw0OSw0OSk7IiBkPSJNMjg4MS4zLC00MTcuODI3QzI4ODEuMywtNDQyLjA2MSAyODY1LjczLC00NjEuNzA2IDI4NDYuNTIsLTQ2MS43MDZDMjgzNS4xMiwtNDYxLjcwNiAyODIyLjQ1LC00NjEuNzA2IDI4MTEuMDUsLTQ2MS43MDZDMjc5MS44NCwtNDYxLjcwNiAyNzc2LjI3LC00NDIuMDYxIDI3NzYuMjcsLTQxNy44MjdMMjc3Ni4yNywtNDExLjMxOUwyODgxLjMsLTQxMS4zMTlMMjg4MS4zLC00MTcuODI3WiIvPiYjeGE7JiN4YTs8L2c+JiN4YTsmI3hhOzxnIHRyYW5zZm9ybT0ibWF0cml4KDEsMCwwLDEsLTIzNDUuNzIsLTI3OTEuMjUpIj4mI3hhOyYjeGE7PHBhdGggc3R5bGU9ImZpbGw6cmdiKDE4MywzNywzNyk7IiBkPSJNMjQ2NS4wMSwyOTA5LjYxTDIzNTQuNDMsMjkwOS42MUMyMzU0LjQzLDI5MDkuOSAyMzU0LjQzLDI5MTAuMTggMjM1NC40MywyOTEwLjQ3TDIzNTQuNDMsMjkxNS45TDI0NjUuMDIsMjkxNS45TDI0NjUuMDIsMjkxMC40N0MyNDY1LjAyLDI5MTAuMTggMjQ2NS4wMiwyOTA5LjkgMjQ2NS4wMSwyOTA5LjYxWiIvPiYjeGE7JiN4YTs8L2c+JiN4YTsmI3hhOzxnIHRyYW5zZm9ybT0ibWF0cml4KDEsMCwwLDEsLTIzNDUuNzIsLTI3OTEuMjUpIj4mI3hhOyYjeGE7PHBhdGggc3R5bGU9ImZpbGw6cmdiKDI0NywxMDEsMTAxKTsiIGQ9Ik0yMzU0LjUzLDI5MTUuOUMyMzU1Ljk3LDI4OTYuOTkgMjM3MS43NywyODgyLjA5IDIzOTEuMDUsMjg4Mi4wOUwyNDI4LjQsMjg4Mi4wOUMyNDQ3LjY4LDI4ODIuMDkgMjQ2My40OCwyODk2Ljk5IDI0NjQuOTEsMjkxNS45TDI0NjUuMDIsMjkxNS45TDI0NjUuMDIsMjkxMC40N0MyNDY1LjAyLDI4OTAuMjQgMjQ0OC42MiwyODczLjg1IDI0MjguNCwyODczLjg1TDIzOTEuMDUsMjg3My44NUMyMzcwLjgyLDI4NzMuODUgMjM1NC40MywyODkwLjI0IDIzNTQuNDMsMjkxMC40N0wyMzU0LjQzLDI5MTUuOUwyMzU0LjUzLDI5MTUuOVoiLz4mI3hhOyYjeGE7PC9nPiYjeGE7JiN4YTs8ZyB0cmFuc2Zvcm09Im1hdHJpeCgxLjA1Mjk4LDAsMCwwLjkzMjYwMywtMjkxNS44MSw1MTAuNzkpIj4mI3hhOyYjeGE7PHBhdGggc3R5bGU9ImZpbGw6cmdiKDE4NSwxNTYsODQpOyIgZD0iTTI4MzcuOSwtNDgxLjU1MUwyODIyLjU2LC00ODEuNTUxTDI4MjIuNTYsLTQ1OS4xNDVDMjgyOC4wMywtNDUzLjMyOSAyODMzLjE0LC00NTMuMzI5IDI4MzcuOSwtNDU5LjE0NUwyODM3LjksLTQ4MS41NTFaIi8+JiN4YTsmI3hhOzwvZz4mI3hhOyYjeGE7PGcgdHJhbnNmb3JtPSJtYXRyaXgoMSwwLDAsMSwtMjM0NS43MiwtMjc5MS4yNSkiPiYjeGE7JiN4YTs8cGF0aCBzdHlsZT0iZmlsbDpyZ2IoMjQ3LDIwOCwxMTIpOyIgZD0iTTI0MDIuMDIsMjg2Ni4wNEwyNDAyLjAyLDI4NzMuODVDMjQwNy43OCwyODc5LjI3IDI0MTMuMTYsMjg3OS4yNyAyNDE4LjE4LDI4NzMuODVMMjQxOC4xOCwyODY2LjA0QzI0MTMuMTYsMjg3MS40NiAyNDA3Ljc4LDI4NzEuNDYgMjQwMi4wMiwyODY2LjA0WiIvPiYjeGE7JiN4YTs8L2c+JiN4YTsmI3hhOzxnIHRyYW5zZm9ybT0ibWF0cml4KDEuMTkzNjgsMCwwLDEuMzI3MzMsLTMzMTAuMTMsNjg4LjkwNCkiPiYjeGE7JiN4YTs8Y2lyY2xlIHN0eWxlPSJmaWxsOnJnYigyNDcsMjA4LDExMik7IiByPSIxNy43MDUiIGN5PSItNDgxLjU2MyIgY3g9IjI4MjYuOTkiLz4mI3hhOyYjeGE7PC9nPiYjeGE7JiN4YTs8ZyB0cmFuc2Zvcm09Im1hdHJpeCgwLjcwNTQ2NywwLDAsMC45NTUxNzksLTE5MzMuODUsNTI3LjUwOSkiPiYjeGE7JiN4YTs8cGF0aCBzdHlsZT0iZmlsbDpyZ2IoMTMsMTIxLDI0Mik7IiBkPSJNMjc4OS44NiwtNDYzLjM5N0wyNzg5Ljg2LC00MzYuMzc3QzI3ODkuODYsLTQzMi44NzcgMjc4OC4zOCwtNDI5LjQ2NCAyNzg1LjYyLC00MjYuNjE5QzI3ODMuMywtNDI0LjIzNSAyNzgwLjkxLC00MjEuNzY2IDI3ODAuOTEsLTQyMS43NjZMMjg4MS4zNCwtNDIxLjc2NkMyODgxLjM0LC00MjEuNzY2IDI4NzguOTQsLTQyNC4yMzUgMjg3Ni42MywtNDI2LjYxOUMyODczLjg3LC00MjkuNDY0IDI4NzIuMzgsLTQzMi44NzcgMjg3Mi4zOCwtNDM2LjM3N0MyODcyLjM4LC00NDUuNjkzIDI4NzIuMzgsLTQ2My44MzUgMjg3Mi4zOCwtNDYzLjgzNUMyODY3LjA0LC00NjUuMTMxIDI4NjEuNCwtNDY1Ljc5NiAyODU1LjY3LC00NjUuNzk2QzI4NTUuNjcsLTQ2NS43OTYgMjg1My4zNiwtNDUyLjExNCAyODUyLjIxLC00NDUuMzcxQzI4NTEuODYsLTQ0My4yNzUgMjg0OS40NSwtNDQxLjcwMyAyODQ2LjU5LC00NDEuNzAzQzI4MzkuMTgsLTQ0MS43MDMgMjgyNS4zOSwtNDQxLjcwMyAyODE4LjA1LC00NDEuNzAzQzI4MTUuMjUsLTQ0MS43MDMgMjgxMi44NywtNDQzLjIxNiAyODEyLjQ1LC00NDUuMjYzQzI4MTEuMDcsLTQ1MS45NjcgMjgwOC4yMywtNDY1Ljc5NiAyODA4LjIzLC00NjUuNzk2QzI4MDEuOSwtNDY1Ljc5NiAyNzk1LjY5LC00NjQuOTg2IDI3ODkuODYsLTQ2My4zOTdaIi8+JiN4YTsmI3hhOzwvZz4mI3hhOyYjeGE7PGcgdHJhbnNmb3JtPSJtYXRyaXgoMSwwLDAsMSwtMjM0NS43MiwtMjc5MS4yNSkiPiYjeGE7JiN4YTs8cGF0aCBzdHlsZT0iZmlsbDpyZ2IoNzQsMTU1LDI0NSk7IiBkPSJNMjM5NC4yNiwyODgyLjE4TDIzOTIuOTksMjg3My44NUMyMzg4LjUzLDI4NzMuODUgMjM4NC4xNCwyODc0LjYyIDIzODAuMDMsMjg3Ni4xNEwyMzgwLjAzLDI4ODQuNDhDMjM4NC4xNCwyODgyLjk2IDIzODguNTMsMjg4Mi4xOCAyMzkyLjk5LDI4ODIuMThMMjM5NC4yNiwyODgyLjE4WiIvPiYjeGE7JiN4YTs8L2c+JiN4YTsmI3hhOzxnIHRyYW5zZm9ybT0ibWF0cml4KDEsMCwwLDEsLTIzNDUuNzIsLTI3OTEuMjUpIj4mI3hhOyYjeGE7PHBhdGggc3R5bGU9ImZpbGw6cmdiKDc0LDE1NSwyNDUpOyIgZD0iTTI0MjkuNDcsMjg3My45NkwyNDI2LjQ2LDI4NzMuODVMMjQyNS40MSwyODgyLjE4TDI0MjYuNDYsMjg4Mi4xOEMyNDMwLjUsMjg4Mi4xOCAyNDM0LjQ4LDI4ODIuODIgMjQzOC4yNSwyODg0LjA2TDI0MzguMjUsMjg3NS43MkMyNDM1LjQyLDI4NzQuNzkgMjQzMi40NywyODc0LjIgMjQyOS40NywyODczLjk2WiIvPiYjeGE7JiN4YTs8L2c+JiN4YTsmI3hhOzxnIHRyYW5zZm9ybT0ibWF0cml4KDEsMCwwLDEsLTIzNDUuNzIsLTI3OTEuMjUpIj4mI3hhOyYjeGE7PHBhdGggc3R5bGU9ImZpbGw6cmdiKDEwLDkxLDE4MSk7IiBkPSJNMjQ0MC4yMSwyOTA5LjYzTDIzNzguMDcsMjkwOS42M0MyMzc3Ljc2LDI5MTAuMTkgMjM3Ny40MSwyOTEwLjc0IDIzNzcuMDQsMjkxMS4yN0MyMzc1LjQsMjkxMy41NCAyMzczLjcxLDI5MTUuOSAyMzczLjcxLDI5MTUuOUwyNDQ0LjU3LDI5MTUuOUMyNDQ0LjU3LDI5MTUuOSAyNDQyLjg4LDI5MTMuNTQgMjQ0MS4yNCwyOTExLjI3QzI0NDAuODcsMjkxMC43NCAyNDQwLjUyLDI5MTAuMTkgMjQ0MC4yMSwyOTA5LjYzWiIvPiYjeGE7JiN4YTs8L2c+JiN4YTsmI3hhOzxnIHRyYW5zZm9ybT0ibWF0cml4KDEuMDUyOTgsMCwwLDEuMDUyOTgsLTI5MTUuNzQsNTY4Ljc2KSI+JiN4YTsmI3hhOzxwYXRoIHN0eWxlPSJmaWxsOnJnYigxNTgsMTU4LDE1OCk7IiBkPSJNMjgzMC4xNiwtNTAyLjEwMkMyODMyLjEzLC01MDUuMTQzIDI4MzUuNTgsLTUwNy4xNTkgMjgzOS41LC01MDcuMTU5QzI4NDUuNjIsLTUwNy4xNTkgMjg1MC42LC01MDIuMjQ0IDI4NTAuNiwtNDk2LjE5MUMyODUwLjYsLTQ5MC4xMzcgMjg0NS42MiwtNDg1LjIyMyAyODM5LjUsLTQ4NS4yMjNDMjgzNy4yOSwtNDg1LjIyMyAyODM1LjIzLC00ODUuODY1IDI4MzMuNSwtNDg2Ljk3QzI4MzEuNDcsLTQ4OC4yODcgMjgyOC44NSwtNDg4LjI4NiAyODI2LjgyLC00ODYuOTY5QzI4MjUuMDksLTQ4NS44NjUgMjgyMy4wMywtNDg1LjIyMyAyODIwLjgxLC00ODUuMjIzQzI4MTQuNjksLTQ4NS4yMjMgMjgwOS43MiwtNDkwLjEzNyAyODA5LjcyLC00OTYuMTkxQzI4MDkuNzIsLTUwMi4yNDQgMjgxNC42OSwtNTA3LjE1OSAyODIwLjgxLC01MDcuMTU5QzI4MjQuNzQsLTUwNy4xNTkgMjgyOC4xOCwtNTA1LjE0MyAyODMwLjE2LC01MDIuMTAyWiIvPiYjeGE7JiN4YTs8L2c+JiN4YTsmI3hhOzxnIHRyYW5zZm9ybT0ibWF0cml4KDEuMDUyOTgsMCwwLDEuMDUyOTgsLTI5MTUuNzQsNTY4Ljc2KSI+JiN4YTsmI3hhOzxwYXRoIHN0eWxlPSJmaWxsOnJnYig1MSw1MSw1MSk7IiBkPSJNMjgzMC4xNiwtNTA1LjEyOUMyODI3LjgsLTUwNy41NSAyODI0LjQ4LC01MDkuMDU4IDI4MjAuODEsLTUwOS4wNThDMjgxMy42NCwtNTA5LjA1OCAyODA3LjgyLC01MDMuMjg3IDI4MDcuODIsLTQ5Ni4xOTFDMjgwNy44MiwtNDg5LjA5NSAyODEzLjY0LC00ODMuMzIzIDI4MjAuODEsLTQ4My4zMjNDMjgyMy40LC00ODMuMzIzIDI4MjUuODIsLTQ4NC4wNzUgMjgyNy44NCwtNDg1LjM2OEMyODI3Ljg1LC00ODUuMzcxIDI4MjcuODUsLTQ4NS4zNzMgMjgyNy44NiwtNDg1LjM3NkMyODI5LjI2LC00ODYuMjg1IDI4MzEuMDYsLTQ4Ni4yODUgMjgzMi40NiwtNDg1LjM3NkMyODMyLjQ3LC00ODUuMzc0IDI4MzIuNDcsLTQ4NS4zNzIgMjgzMi40NywtNDg1LjM2OUMyODM0LjUsLTQ4NC4wNzYgMjgzNi45MSwtNDgzLjMyMyAyODM5LjUsLTQ4My4zMjNDMjg0Ni42OCwtNDgzLjMyMyAyODUyLjUsLTQ4OS4wOTUgMjg1Mi41LC00OTYuMTkxQzI4NTIuNSwtNTAzLjI4NyAyODQ2LjY4LC01MDkuMDU4IDI4MzkuNSwtNTA5LjA1OEMyODM1Ljg0LC01MDkuMDU4IDI4MzIuNTIsLTUwNy41NSAyODMwLjE2LC01MDUuMTI5Wk0yODI4LjU3LC01MDEuMDY4QzI4MjguOTEsLTUwMC41MjggMjgyOS41MSwtNTAwLjIwMyAyODMwLjE2LC01MDAuMjAzQzI4MzAuOCwtNTAwLjIwMyAyODMxLjQsLTUwMC41MjggMjgzMS43NSwtNTAxLjA2OEMyODMzLjM5LC01MDMuNTkgMjgzNi4yNSwtNTA1LjI2IDI4MzkuNSwtNTA1LjI2QzI4NDQuNTcsLTUwNS4yNiAyODQ4LjcsLTUwMS4yMDIgMjg0OC43LC00OTYuMTkxQzI4NDguNywtNDkxLjE4IDI4NDQuNTcsLTQ4Ny4xMjIgMjgzOS41LC00ODcuMTIyQzI4MzcuNjcsLTQ4Ny4xMjIgMjgzNS45NiwtNDg3LjY1MyAyODM0LjUyLC00ODguNTdDMjgzMS44NywtNDkwLjI4NiAyODI4LjQ1LC00OTAuMjg2IDI4MjUuOCwtNDg4LjU2OUMyODI0LjM2LC00ODcuNjUzIDI4MjIuNjUsLTQ4Ny4xMjIgMjgyMC44MSwtNDg3LjEyMkMyODE1Ljc1LC00ODcuMTIyIDI4MTEuNjIsLTQ5MS4xOCAyODExLjYyLC00OTYuMTkxQzI4MTEuNjIsLTUwMS4yMDIgMjgxNS43NSwtNTA1LjI2IDI4MjAuODEsLTUwNS4yNkMyODI0LjA3LC01MDUuMjYgMjgyNi45MywtNTAzLjU5IDI4MjguNTcsLTUwMS4wNjhaIi8+JiN4YTsmI3hhOzwvZz4mI3hhOyYjeGE7PGcgdHJhbnNmb3JtPSJtYXRyaXgoMS4wNTI5OCwwLDAsMS4wNTI5OCwtMjkxNS43NCw1NjguNzYpIj4mI3hhOyYjeGE7PHBhdGggc3R5bGU9ImZpbGw6cmdiKDI0NCwxODcsNDkpOyIgZD0iTTI4MDQuMTYsLTUwMS40NDJDMjgwMy4zOCwtNTAyLjcxOSAyODA4LjcyLC01MDYuMDc2IDI4MDguMiwtNTA3LjQ5OEMyODA3LjI3LC01MTAuMDE0IDI4MDYuNzcsLTUxMC43MzIgMjgwNi43NywtNTEzLjU2N0MyODA2Ljc3LC01MjYuNDc2IDI4MTcuMjUsLTUzNi45NTcgMjgzMC4xNiwtNTM2Ljk1N0MyODQzLjA3LC01MzYuOTU3IDI4NTMuNTUsLTUyNi40NzYgMjg1My41NSwtNTEzLjU2N0MyODUzLjU1LC01MTAuNzMyIDI4NTMuMDQsLTUxMC4wMTQgMjg1Mi4xMiwtNTA3LjQ5OEMyODUxLjU5LC01MDYuMDc2IDI4NTYuOTQsLTUwMi43MTkgMjg1Ni4xNiwtNTAxLjQ0MkwyODA0LjE2LC01MDEuNDQyWiIvPiYjeGE7JiN4YTs8L2c+JiN4YTsmI3hhOzxnIHRyYW5zZm9ybT0ibWF0cml4KDEsMCwwLDEsLTIzNDUuNzIsLTI3OTEuMjUpIj4mI3hhOyYjeGE7PHBhdGggc3R5bGU9ImZpbGw6cmdiKDI0NywyMDQsMTAxKTsiIGQ9Ik0yMzg1LjkyLDI4MjIuNzZDMjM4NS42MiwyODIxLjggMjM4NS40NywyODIwLjg0IDIzODUuNDcsMjgxOS4yNEMyMzg1LjQ3LDI4MDUuNjQgMjM5Ni41MSwyNzk0LjYxIDI0MTAuMSwyNzk0LjYxQzI0MjMuNjksMjc5NC42MSAyNDM0LjczLDI4MDUuNjQgMjQzNC43MywyODE5LjI0QzI0MzQuNzMsMjgyMC44NCAyNDM0LjU3LDI4MjEuOCAyNDM0LjI4LDI4MjIuNzZDMjQzMi4wOCwyODExLjQxIDI0MjIuMDksMjgwMi44MyAyNDEwLjEsMjgwMi44M0MyMzk4LjExLDI4MDIuODMgMjM4OC4xMSwyODExLjQxIDIzODUuOTIsMjgyMi43NloiLz4mI3hhOyYjeGE7PC9nPiYjeGE7JiN4YTs8ZyB0cmFuc2Zvcm09Im1hdHJpeCgwLjkxMDIzNiwwLDAsMS4wNTI5OCwtMjUzNi40NSw1NjguODAyKSI+JiN4YTsmI3hhOzxwYXRoIHN0eWxlPSJmaWxsOnJnYigxODMsMTQwLDM3KTsiIGQ9Ik0yODQ0Ljc1LC01MzQuMzE1QzI4NTEuMzcsLTUyOS43ODMgMjg1NS43NSwtNTIyLjE4NSAyODU1Ljc1LC01MTMuNTY3QzI4NTUuNzUsLTUxMi41MTggMjg1NC43NiwtNTExLjY2NyAyODUzLjU1LC01MTEuNjY3QzI4NTIuMzQsLTUxMS42NjcgMjg1MS4zNSwtNTEyLjUxOCAyODUxLjM1LC01MTMuNTY3QzI4NTEuMzUsLTUyMS4wNjYgMjg0Ny41NiwtNTI3LjY5MyAyODQxLjc0LC01MzEuNTU3QzI4NDEuNDQsLTUzMS43NTcgMjg0MS4yMiwtNTMyLjAxMSAyODQxLjEsLTUzMi4zMDJDMjg0Mi4yNSwtNTMzLjA1NiAyODQzLjQ3LC01MzMuNzMxIDI4NDQuNzUsLTUzNC4zMTVaIi8+JiN4YTsmI3hhOzwvZz4mI3hhOyYjeGE7PGcgdHJhbnNmb3JtPSJtYXRyaXgoLTAuOTEwMjM2LDAsMCwxLjA1Mjk4LDI2NjUuMiw1NjguODAyKSI+JiN4YTsmI3hhOzxwYXRoIHN0eWxlPSJmaWxsOnJnYigxODMsMTQwLDM3KTsiIGQ9Ik0yODQ0Ljc1LC01MzQuMzE1QzI4NDMuNDcsLTUzMy43MzMgMjg0Mi4yNCwtNTMzLjA2NCAyODQxLjEsLTUzMi4zMDJDMjg0MS4yMiwtNTMyLjAxMSAyODQxLjQ0LC01MzEuNzU3IDI4NDEuNzQsLTUzMS41NTdDMjg0Ny41NiwtNTI3LjY5MyAyODUxLjM1LC01MjEuMDY2IDI4NTEuMzUsLTUxMy41NjdDMjg1MS4zNSwtNTEyLjUxOCAyODUyLjM0LC01MTEuNjY3IDI4NTMuNTUsLTUxMS42NjdDMjg1NC43NiwtNTExLjY2NyAyODU1Ljc1LC01MTIuNTE4IDI4NTUuNzUsLTUxMy41NjdDMjg1NS43NSwtNTIyLjE4NSAyODUxLjM3LC01MjkuNzgzIDI4NDQuNzUsLTUzNC4zMTVaIi8+JiN4YTsmI3hhOzwvZz4mI3hhOyYjeGE7PGcgdHJhbnNmb3JtPSJtYXRyaXgoMS4wNTI5OCwwLDAsMS4wNTI5OCwtMjkxNS42OSw1NjguNzYpIj4mI3hhOyYjeGE7PHBhdGggc3R5bGU9ImZpbGw6cmdiKDE4MywxNDAsMzcpOyIgZD0iTTI4MDcuNDksLTUwOS4yOTZMMjgwOC4yMywtNTA5LjQ0NEwyODE4LjE0LC01MDkuNDQ0QzI4MTkuMTksLTUwOS40NDQgMjgyMC4wNCwtNTA4LjU5MyAyODIwLjA0LC01MDcuNTQ1QzI4MjAuMDQsLTUwNi40OTYgMjgxOS4xOSwtNTA1LjY0NSAyODE4LjE0LC01MDUuNjQ1TDI4MDguMjMsLTUwNS42NDVDMjgwNy45MiwtNTA1LjY0NSAyODA3LjYzLC01MDUuNzE4IDI4MDcuMzgsLTUwNS44NjZDMjgwNy45NSwtNTA2LjQ5OSAyODA4LjMsLTUwNy4wODIgMjgwOC4xNSwtNTA3LjQ5OEwyODA3LjQ5LC01MDkuMjk2WiIvPiYjeGE7JiN4YTs8L2c+JiN4YTsmI3hhOzwvZz4mI3hhOyYjeGE7PC9nPiYjeGE7JiN4YTs8L2c+JiN4YTsmI3hhOzwvc3ZnPg==;" parent="1" vertex="1">
          <mxGeometry x="417" y="339" width="10" height="10" as="geometry" />
        </mxCell>
        <mxCell id="MuEgCA0l2RGkUJCn2qk8-23" value="" style="shape=image;verticalLabelPosition=bottom;labelBackgroundColor=default;verticalAlign=top;aspect=fixed;imageAspect=0;image=data:image/svg+xml,PHN2ZyB4bWxuczp4bGluaz0iaHR0cDovL3d3dy53My5vcmcvMTk5OS94bGluayIgeG1sbnM9Imh0dHA6Ly93d3cudzMub3JnLzIwMDAvc3ZnIiB4bWw6c3BhY2U9InByZXNlcnZlIiB2ZXJzaW9uPSIxLjEiIHN0eWxlPSJmaWxsLXJ1bGU6ZXZlbm9kZDtjbGlwLXJ1bGU6ZXZlbm9kZDtzdHJva2UtbGluZWpvaW46cm91bmQ7c3Ryb2tlLW1pdGVybGltaXQ6MjsiIHZpZXdCb3g9IjAgMCAxMjkgMTI5IiBoZWlnaHQ9IjgwMHB4IiB3aWR0aD0iODAwcHgiIGZpbGw9IiMwMDAwMDAiPiYjeGE7JiN4YTs8ZyB0cmFuc2Zvcm09Im1hdHJpeCgxLDAsMCwxLC0xNTcsLTE2OSkiPiYjeGE7JiN4YTs8ZyB0cmFuc2Zvcm09Im1hdHJpeCgxLDAsMCwxLDE1Ny43MDksMTY5LjU4MykiIGlkPSJ3b3JrZXIiPiYjeGE7JiN4YTs8cmVjdCB5PSIwIiB4PSIwIiB3aWR0aD0iMTI4IiBzdHlsZT0iZmlsbDpub25lOyIgaGVpZ2h0PSIxMjgiLz4mI3hhOyYjeGE7PGc+JiN4YTsmI3hhOzxnIHRyYW5zZm9ybT0ibWF0cml4KDEuMDUyOTgsMCwwLDAuODM0Njc2LC0yOTE0LjY3LDQ2Ny45NjUpIj4mI3hhOyYjeGE7PHBhdGggc3R5bGU9ImZpbGw6cmdiKDI0NCw0OSw0OSk7IiBkPSJNMjg4MS4zLC00MTcuODI3QzI4ODEuMywtNDQyLjA2MSAyODY1LjczLC00NjEuNzA2IDI4NDYuNTIsLTQ2MS43MDZDMjgzNS4xMiwtNDYxLjcwNiAyODIyLjQ1LC00NjEuNzA2IDI4MTEuMDUsLTQ2MS43MDZDMjc5MS44NCwtNDYxLjcwNiAyNzc2LjI3LC00NDIuMDYxIDI3NzYuMjcsLTQxNy44MjdMMjc3Ni4yNywtNDExLjMxOUwyODgxLjMsLTQxMS4zMTlMMjg4MS4zLC00MTcuODI3WiIvPiYjeGE7JiN4YTs8L2c+JiN4YTsmI3hhOzxnIHRyYW5zZm9ybT0ibWF0cml4KDEsMCwwLDEsLTIzNDUuNzIsLTI3OTEuMjUpIj4mI3hhOyYjeGE7PHBhdGggc3R5bGU9ImZpbGw6cmdiKDE4MywzNywzNyk7IiBkPSJNMjQ2NS4wMSwyOTA5LjYxTDIzNTQuNDMsMjkwOS42MUMyMzU0LjQzLDI5MDkuOSAyMzU0LjQzLDI5MTAuMTggMjM1NC40MywyOTEwLjQ3TDIzNTQuNDMsMjkxNS45TDI0NjUuMDIsMjkxNS45TDI0NjUuMDIsMjkxMC40N0MyNDY1LjAyLDI5MTAuMTggMjQ2NS4wMiwyOTA5LjkgMjQ2NS4wMSwyOTA5LjYxWiIvPiYjeGE7JiN4YTs8L2c+JiN4YTsmI3hhOzxnIHRyYW5zZm9ybT0ibWF0cml4KDEsMCwwLDEsLTIzNDUuNzIsLTI3OTEuMjUpIj4mI3hhOyYjeGE7PHBhdGggc3R5bGU9ImZpbGw6cmdiKDI0NywxMDEsMTAxKTsiIGQ9Ik0yMzU0LjUzLDI5MTUuOUMyMzU1Ljk3LDI4OTYuOTkgMjM3MS43NywyODgyLjA5IDIzOTEuMDUsMjg4Mi4wOUwyNDI4LjQsMjg4Mi4wOUMyNDQ3LjY4LDI4ODIuMDkgMjQ2My40OCwyODk2Ljk5IDI0NjQuOTEsMjkxNS45TDI0NjUuMDIsMjkxNS45TDI0NjUuMDIsMjkxMC40N0MyNDY1LjAyLDI4OTAuMjQgMjQ0OC42MiwyODczLjg1IDI0MjguNCwyODczLjg1TDIzOTEuMDUsMjg3My44NUMyMzcwLjgyLDI4NzMuODUgMjM1NC40MywyODkwLjI0IDIzNTQuNDMsMjkxMC40N0wyMzU0LjQzLDI5MTUuOUwyMzU0LjUzLDI5MTUuOVoiLz4mI3hhOyYjeGE7PC9nPiYjeGE7JiN4YTs8ZyB0cmFuc2Zvcm09Im1hdHJpeCgxLjA1Mjk4LDAsMCwwLjkzMjYwMywtMjkxNS44MSw1MTAuNzkpIj4mI3hhOyYjeGE7PHBhdGggc3R5bGU9ImZpbGw6cmdiKDE4NSwxNTYsODQpOyIgZD0iTTI4MzcuOSwtNDgxLjU1MUwyODIyLjU2LC00ODEuNTUxTDI4MjIuNTYsLTQ1OS4xNDVDMjgyOC4wMywtNDUzLjMyOSAyODMzLjE0LC00NTMuMzI5IDI4MzcuOSwtNDU5LjE0NUwyODM3LjksLTQ4MS41NTFaIi8+JiN4YTsmI3hhOzwvZz4mI3hhOyYjeGE7PGcgdHJhbnNmb3JtPSJtYXRyaXgoMSwwLDAsMSwtMjM0NS43MiwtMjc5MS4yNSkiPiYjeGE7JiN4YTs8cGF0aCBzdHlsZT0iZmlsbDpyZ2IoMjQ3LDIwOCwxMTIpOyIgZD0iTTI0MDIuMDIsMjg2Ni4wNEwyNDAyLjAyLDI4NzMuODVDMjQwNy43OCwyODc5LjI3IDI0MTMuMTYsMjg3OS4yNyAyNDE4LjE4LDI4NzMuODVMMjQxOC4xOCwyODY2LjA0QzI0MTMuMTYsMjg3MS40NiAyNDA3Ljc4LDI4NzEuNDYgMjQwMi4wMiwyODY2LjA0WiIvPiYjeGE7JiN4YTs8L2c+JiN4YTsmI3hhOzxnIHRyYW5zZm9ybT0ibWF0cml4KDEuMTkzNjgsMCwwLDEuMzI3MzMsLTMzMTAuMTMsNjg4LjkwNCkiPiYjeGE7JiN4YTs8Y2lyY2xlIHN0eWxlPSJmaWxsOnJnYigyNDcsMjA4LDExMik7IiByPSIxNy43MDUiIGN5PSItNDgxLjU2MyIgY3g9IjI4MjYuOTkiLz4mI3hhOyYjeGE7PC9nPiYjeGE7JiN4YTs8ZyB0cmFuc2Zvcm09Im1hdHJpeCgwLjcwNTQ2NywwLDAsMC45NTUxNzksLTE5MzMuODUsNTI3LjUwOSkiPiYjeGE7JiN4YTs8cGF0aCBzdHlsZT0iZmlsbDpyZ2IoMTMsMTIxLDI0Mik7IiBkPSJNMjc4OS44NiwtNDYzLjM5N0wyNzg5Ljg2LC00MzYuMzc3QzI3ODkuODYsLTQzMi44NzcgMjc4OC4zOCwtNDI5LjQ2NCAyNzg1LjYyLC00MjYuNjE5QzI3ODMuMywtNDI0LjIzNSAyNzgwLjkxLC00MjEuNzY2IDI3ODAuOTEsLTQyMS43NjZMMjg4MS4zNCwtNDIxLjc2NkMyODgxLjM0LC00MjEuNzY2IDI4NzguOTQsLTQyNC4yMzUgMjg3Ni42MywtNDI2LjYxOUMyODczLjg3LC00MjkuNDY0IDI4NzIuMzgsLTQzMi44NzcgMjg3Mi4zOCwtNDM2LjM3N0MyODcyLjM4LC00NDUuNjkzIDI4NzIuMzgsLTQ2My44MzUgMjg3Mi4zOCwtNDYzLjgzNUMyODY3LjA0LC00NjUuMTMxIDI4NjEuNCwtNDY1Ljc5NiAyODU1LjY3LC00NjUuNzk2QzI4NTUuNjcsLTQ2NS43OTYgMjg1My4zNiwtNDUyLjExNCAyODUyLjIxLC00NDUuMzcxQzI4NTEuODYsLTQ0My4yNzUgMjg0OS40NSwtNDQxLjcwMyAyODQ2LjU5LC00NDEuNzAzQzI4MzkuMTgsLTQ0MS43MDMgMjgyNS4zOSwtNDQxLjcwMyAyODE4LjA1LC00NDEuNzAzQzI4MTUuMjUsLTQ0MS43MDMgMjgxMi44NywtNDQzLjIxNiAyODEyLjQ1LC00NDUuMjYzQzI4MTEuMDcsLTQ1MS45NjcgMjgwOC4yMywtNDY1Ljc5NiAyODA4LjIzLC00NjUuNzk2QzI4MDEuOSwtNDY1Ljc5NiAyNzk1LjY5LC00NjQuOTg2IDI3ODkuODYsLTQ2My4zOTdaIi8+JiN4YTsmI3hhOzwvZz4mI3hhOyYjeGE7PGcgdHJhbnNmb3JtPSJtYXRyaXgoMSwwLDAsMSwtMjM0NS43MiwtMjc5MS4yNSkiPiYjeGE7JiN4YTs8cGF0aCBzdHlsZT0iZmlsbDpyZ2IoNzQsMTU1LDI0NSk7IiBkPSJNMjM5NC4yNiwyODgyLjE4TDIzOTIuOTksMjg3My44NUMyMzg4LjUzLDI4NzMuODUgMjM4NC4xNCwyODc0LjYyIDIzODAuMDMsMjg3Ni4xNEwyMzgwLjAzLDI4ODQuNDhDMjM4NC4xNCwyODgyLjk2IDIzODguNTMsMjg4Mi4xOCAyMzkyLjk5LDI4ODIuMThMMjM5NC4yNiwyODgyLjE4WiIvPiYjeGE7JiN4YTs8L2c+JiN4YTsmI3hhOzxnIHRyYW5zZm9ybT0ibWF0cml4KDEsMCwwLDEsLTIzNDUuNzIsLTI3OTEuMjUpIj4mI3hhOyYjeGE7PHBhdGggc3R5bGU9ImZpbGw6cmdiKDc0LDE1NSwyNDUpOyIgZD0iTTI0MjkuNDcsMjg3My45NkwyNDI2LjQ2LDI4NzMuODVMMjQyNS40MSwyODgyLjE4TDI0MjYuNDYsMjg4Mi4xOEMyNDMwLjUsMjg4Mi4xOCAyNDM0LjQ4LDI4ODIuODIgMjQzOC4yNSwyODg0LjA2TDI0MzguMjUsMjg3NS43MkMyNDM1LjQyLDI4NzQuNzkgMjQzMi40NywyODc0LjIgMjQyOS40NywyODczLjk2WiIvPiYjeGE7JiN4YTs8L2c+JiN4YTsmI3hhOzxnIHRyYW5zZm9ybT0ibWF0cml4KDEsMCwwLDEsLTIzNDUuNzIsLTI3OTEuMjUpIj4mI3hhOyYjeGE7PHBhdGggc3R5bGU9ImZpbGw6cmdiKDEwLDkxLDE4MSk7IiBkPSJNMjQ0MC4yMSwyOTA5LjYzTDIzNzguMDcsMjkwOS42M0MyMzc3Ljc2LDI5MTAuMTkgMjM3Ny40MSwyOTEwLjc0IDIzNzcuMDQsMjkxMS4yN0MyMzc1LjQsMjkxMy41NCAyMzczLjcxLDI5MTUuOSAyMzczLjcxLDI5MTUuOUwyNDQ0LjU3LDI5MTUuOUMyNDQ0LjU3LDI5MTUuOSAyNDQyLjg4LDI5MTMuNTQgMjQ0MS4yNCwyOTExLjI3QzI0NDAuODcsMjkxMC43NCAyNDQwLjUyLDI5MTAuMTkgMjQ0MC4yMSwyOTA5LjYzWiIvPiYjeGE7JiN4YTs8L2c+JiN4YTsmI3hhOzxnIHRyYW5zZm9ybT0ibWF0cml4KDEuMDUyOTgsMCwwLDEuMDUyOTgsLTI5MTUuNzQsNTY4Ljc2KSI+JiN4YTsmI3hhOzxwYXRoIHN0eWxlPSJmaWxsOnJnYigxNTgsMTU4LDE1OCk7IiBkPSJNMjgzMC4xNiwtNTAyLjEwMkMyODMyLjEzLC01MDUuMTQzIDI4MzUuNTgsLTUwNy4xNTkgMjgzOS41LC01MDcuMTU5QzI4NDUuNjIsLTUwNy4xNTkgMjg1MC42LC01MDIuMjQ0IDI4NTAuNiwtNDk2LjE5MUMyODUwLjYsLTQ5MC4xMzcgMjg0NS42MiwtNDg1LjIyMyAyODM5LjUsLTQ4NS4yMjNDMjgzNy4yOSwtNDg1LjIyMyAyODM1LjIzLC00ODUuODY1IDI4MzMuNSwtNDg2Ljk3QzI4MzEuNDcsLTQ4OC4yODcgMjgyOC44NSwtNDg4LjI4NiAyODI2LjgyLC00ODYuOTY5QzI4MjUuMDksLTQ4NS44NjUgMjgyMy4wMywtNDg1LjIyMyAyODIwLjgxLC00ODUuMjIzQzI4MTQuNjksLTQ4NS4yMjMgMjgwOS43MiwtNDkwLjEzNyAyODA5LjcyLC00OTYuMTkxQzI4MDkuNzIsLTUwMi4yNDQgMjgxNC42OSwtNTA3LjE1OSAyODIwLjgxLC01MDcuMTU5QzI4MjQuNzQsLTUwNy4xNTkgMjgyOC4xOCwtNTA1LjE0MyAyODMwLjE2LC01MDIuMTAyWiIvPiYjeGE7JiN4YTs8L2c+JiN4YTsmI3hhOzxnIHRyYW5zZm9ybT0ibWF0cml4KDEuMDUyOTgsMCwwLDEuMDUyOTgsLTI5MTUuNzQsNTY4Ljc2KSI+JiN4YTsmI3hhOzxwYXRoIHN0eWxlPSJmaWxsOnJnYig1MSw1MSw1MSk7IiBkPSJNMjgzMC4xNiwtNTA1LjEyOUMyODI3LjgsLTUwNy41NSAyODI0LjQ4LC01MDkuMDU4IDI4MjAuODEsLTUwOS4wNThDMjgxMy42NCwtNTA5LjA1OCAyODA3LjgyLC01MDMuMjg3IDI4MDcuODIsLTQ5Ni4xOTFDMjgwNy44MiwtNDg5LjA5NSAyODEzLjY0LC00ODMuMzIzIDI4MjAuODEsLTQ4My4zMjNDMjgyMy40LC00ODMuMzIzIDI4MjUuODIsLTQ4NC4wNzUgMjgyNy44NCwtNDg1LjM2OEMyODI3Ljg1LC00ODUuMzcxIDI4MjcuODUsLTQ4NS4zNzMgMjgyNy44NiwtNDg1LjM3NkMyODI5LjI2LC00ODYuMjg1IDI4MzEuMDYsLTQ4Ni4yODUgMjgzMi40NiwtNDg1LjM3NkMyODMyLjQ3LC00ODUuMzc0IDI4MzIuNDcsLTQ4NS4zNzIgMjgzMi40NywtNDg1LjM2OUMyODM0LjUsLTQ4NC4wNzYgMjgzNi45MSwtNDgzLjMyMyAyODM5LjUsLTQ4My4zMjNDMjg0Ni42OCwtNDgzLjMyMyAyODUyLjUsLTQ4OS4wOTUgMjg1Mi41LC00OTYuMTkxQzI4NTIuNSwtNTAzLjI4NyAyODQ2LjY4LC01MDkuMDU4IDI4MzkuNSwtNTA5LjA1OEMyODM1Ljg0LC01MDkuMDU4IDI4MzIuNTIsLTUwNy41NSAyODMwLjE2LC01MDUuMTI5Wk0yODI4LjU3LC01MDEuMDY4QzI4MjguOTEsLTUwMC41MjggMjgyOS41MSwtNTAwLjIwMyAyODMwLjE2LC01MDAuMjAzQzI4MzAuOCwtNTAwLjIwMyAyODMxLjQsLTUwMC41MjggMjgzMS43NSwtNTAxLjA2OEMyODMzLjM5LC01MDMuNTkgMjgzNi4yNSwtNTA1LjI2IDI4MzkuNSwtNTA1LjI2QzI4NDQuNTcsLTUwNS4yNiAyODQ4LjcsLTUwMS4yMDIgMjg0OC43LC00OTYuMTkxQzI4NDguNywtNDkxLjE4IDI4NDQuNTcsLTQ4Ny4xMjIgMjgzOS41LC00ODcuMTIyQzI4MzcuNjcsLTQ4Ny4xMjIgMjgzNS45NiwtNDg3LjY1MyAyODM0LjUyLC00ODguNTdDMjgzMS44NywtNDkwLjI4NiAyODI4LjQ1LC00OTAuMjg2IDI4MjUuOCwtNDg4LjU2OUMyODI0LjM2LC00ODcuNjUzIDI4MjIuNjUsLTQ4Ny4xMjIgMjgyMC44MSwtNDg3LjEyMkMyODE1Ljc1LC00ODcuMTIyIDI4MTEuNjIsLTQ5MS4xOCAyODExLjYyLC00OTYuMTkxQzI4MTEuNjIsLTUwMS4yMDIgMjgxNS43NSwtNTA1LjI2IDI4MjAuODEsLTUwNS4yNkMyODI0LjA3LC01MDUuMjYgMjgyNi45MywtNTAzLjU5IDI4MjguNTcsLTUwMS4wNjhaIi8+JiN4YTsmI3hhOzwvZz4mI3hhOyYjeGE7PGcgdHJhbnNmb3JtPSJtYXRyaXgoMS4wNTI5OCwwLDAsMS4wNTI5OCwtMjkxNS43NCw1NjguNzYpIj4mI3hhOyYjeGE7PHBhdGggc3R5bGU9ImZpbGw6cmdiKDI0NCwxODcsNDkpOyIgZD0iTTI4MDQuMTYsLTUwMS40NDJDMjgwMy4zOCwtNTAyLjcxOSAyODA4LjcyLC01MDYuMDc2IDI4MDguMiwtNTA3LjQ5OEMyODA3LjI3LC01MTAuMDE0IDI4MDYuNzcsLTUxMC43MzIgMjgwNi43NywtNTEzLjU2N0MyODA2Ljc3LC01MjYuNDc2IDI4MTcuMjUsLTUzNi45NTcgMjgzMC4xNiwtNTM2Ljk1N0MyODQzLjA3LC01MzYuOTU3IDI4NTMuNTUsLTUyNi40NzYgMjg1My41NSwtNTEzLjU2N0MyODUzLjU1LC01MTAuNzMyIDI4NTMuMDQsLTUxMC4wMTQgMjg1Mi4xMiwtNTA3LjQ5OEMyODUxLjU5LC01MDYuMDc2IDI4NTYuOTQsLTUwMi43MTkgMjg1Ni4xNiwtNTAxLjQ0MkwyODA0LjE2LC01MDEuNDQyWiIvPiYjeGE7JiN4YTs8L2c+JiN4YTsmI3hhOzxnIHRyYW5zZm9ybT0ibWF0cml4KDEsMCwwLDEsLTIzNDUuNzIsLTI3OTEuMjUpIj4mI3hhOyYjeGE7PHBhdGggc3R5bGU9ImZpbGw6cmdiKDI0NywyMDQsMTAxKTsiIGQ9Ik0yMzg1LjkyLDI4MjIuNzZDMjM4NS42MiwyODIxLjggMjM4NS40NywyODIwLjg0IDIzODUuNDcsMjgxOS4yNEMyMzg1LjQ3LDI4MDUuNjQgMjM5Ni41MSwyNzk0LjYxIDI0MTAuMSwyNzk0LjYxQzI0MjMuNjksMjc5NC42MSAyNDM0LjczLDI4MDUuNjQgMjQzNC43MywyODE5LjI0QzI0MzQuNzMsMjgyMC44NCAyNDM0LjU3LDI4MjEuOCAyNDM0LjI4LDI4MjIuNzZDMjQzMi4wOCwyODExLjQxIDI0MjIuMDksMjgwMi44MyAyNDEwLjEsMjgwMi44M0MyMzk4LjExLDI4MDIuODMgMjM4OC4xMSwyODExLjQxIDIzODUuOTIsMjgyMi43NloiLz4mI3hhOyYjeGE7PC9nPiYjeGE7JiN4YTs8ZyB0cmFuc2Zvcm09Im1hdHJpeCgwLjkxMDIzNiwwLDAsMS4wNTI5OCwtMjUzNi40NSw1NjguODAyKSI+JiN4YTsmI3hhOzxwYXRoIHN0eWxlPSJmaWxsOnJnYigxODMsMTQwLDM3KTsiIGQ9Ik0yODQ0Ljc1LC01MzQuMzE1QzI4NTEuMzcsLTUyOS43ODMgMjg1NS43NSwtNTIyLjE4NSAyODU1Ljc1LC01MTMuNTY3QzI4NTUuNzUsLTUxMi41MTggMjg1NC43NiwtNTExLjY2NyAyODUzLjU1LC01MTEuNjY3QzI4NTIuMzQsLTUxMS42NjcgMjg1MS4zNSwtNTEyLjUxOCAyODUxLjM1LC01MTMuNTY3QzI4NTEuMzUsLTUyMS4wNjYgMjg0Ny41NiwtNTI3LjY5MyAyODQxLjc0LC01MzEuNTU3QzI4NDEuNDQsLTUzMS43NTcgMjg0MS4yMiwtNTMyLjAxMSAyODQxLjEsLTUzMi4zMDJDMjg0Mi4yNSwtNTMzLjA1NiAyODQzLjQ3LC01MzMuNzMxIDI4NDQuNzUsLTUzNC4zMTVaIi8+JiN4YTsmI3hhOzwvZz4mI3hhOyYjeGE7PGcgdHJhbnNmb3JtPSJtYXRyaXgoLTAuOTEwMjM2LDAsMCwxLjA1Mjk4LDI2NjUuMiw1NjguODAyKSI+JiN4YTsmI3hhOzxwYXRoIHN0eWxlPSJmaWxsOnJnYigxODMsMTQwLDM3KTsiIGQ9Ik0yODQ0Ljc1LC01MzQuMzE1QzI4NDMuNDcsLTUzMy43MzMgMjg0Mi4yNCwtNTMzLjA2NCAyODQxLjEsLTUzMi4zMDJDMjg0MS4yMiwtNTMyLjAxMSAyODQxLjQ0LC01MzEuNzU3IDI4NDEuNzQsLTUzMS41NTdDMjg0Ny41NiwtNTI3LjY5MyAyODUxLjM1LC01MjEuMDY2IDI4NTEuMzUsLTUxMy41NjdDMjg1MS4zNSwtNTEyLjUxOCAyODUyLjM0LC01MTEuNjY3IDI4NTMuNTUsLTUxMS42NjdDMjg1NC43NiwtNTExLjY2NyAyODU1Ljc1LC01MTIuNTE4IDI4NTUuNzUsLTUxMy41NjdDMjg1NS43NSwtNTIyLjE4NSAyODUxLjM3LC01MjkuNzgzIDI4NDQuNzUsLTUzNC4zMTVaIi8+JiN4YTsmI3hhOzwvZz4mI3hhOyYjeGE7PGcgdHJhbnNmb3JtPSJtYXRyaXgoMS4wNTI5OCwwLDAsMS4wNTI5OCwtMjkxNS42OSw1NjguNzYpIj4mI3hhOyYjeGE7PHBhdGggc3R5bGU9ImZpbGw6cmdiKDE4MywxNDAsMzcpOyIgZD0iTTI4MDcuNDksLTUwOS4yOTZMMjgwOC4yMywtNTA5LjQ0NEwyODE4LjE0LC01MDkuNDQ0QzI4MTkuMTksLTUwOS40NDQgMjgyMC4wNCwtNTA4LjU5MyAyODIwLjA0LC01MDcuNTQ1QzI4MjAuMDQsLTUwNi40OTYgMjgxOS4xOSwtNTA1LjY0NSAyODE4LjE0LC01MDUuNjQ1TDI4MDguMjMsLTUwNS42NDVDMjgwNy45MiwtNTA1LjY0NSAyODA3LjYzLC01MDUuNzE4IDI4MDcuMzgsLTUwNS44NjZDMjgwNy45NSwtNTA2LjQ5OSAyODA4LjMsLTUwNy4wODIgMjgwOC4xNSwtNTA3LjQ5OEwyODA3LjQ5LC01MDkuMjk2WiIvPiYjeGE7JiN4YTs8L2c+JiN4YTsmI3hhOzwvZz4mI3hhOyYjeGE7PC9nPiYjeGE7JiN4YTs8L2c+JiN4YTsmI3hhOzwvc3ZnPg==;" parent="1" vertex="1">
          <mxGeometry x="417" y="349" width="10" height="10" as="geometry" />
        </mxCell>
        <mxCell id="MuEgCA0l2RGkUJCn2qk8-24" value="" style="shape=image;verticalLabelPosition=bottom;labelBackgroundColor=default;verticalAlign=top;aspect=fixed;imageAspect=0;image=data:image/svg+xml,PHN2ZyB4bWxuczp4bGluaz0iaHR0cDovL3d3dy53My5vcmcvMTk5OS94bGluayIgeG1sbnM9Imh0dHA6Ly93d3cudzMub3JnLzIwMDAvc3ZnIiB4bWw6c3BhY2U9InByZXNlcnZlIiB2ZXJzaW9uPSIxLjEiIHN0eWxlPSJmaWxsLXJ1bGU6ZXZlbm9kZDtjbGlwLXJ1bGU6ZXZlbm9kZDtzdHJva2UtbGluZWpvaW46cm91bmQ7c3Ryb2tlLW1pdGVybGltaXQ6MjsiIHZpZXdCb3g9IjAgMCAxMjkgMTI5IiBoZWlnaHQ9IjgwMHB4IiB3aWR0aD0iODAwcHgiIGZpbGw9IiMwMDAwMDAiPiYjeGE7JiN4YTs8ZyB0cmFuc2Zvcm09Im1hdHJpeCgxLDAsMCwxLC0xNTcsLTE2OSkiPiYjeGE7JiN4YTs8ZyB0cmFuc2Zvcm09Im1hdHJpeCgxLDAsMCwxLDE1Ny43MDksMTY5LjU4MykiIGlkPSJ3b3JrZXIiPiYjeGE7JiN4YTs8cmVjdCB5PSIwIiB4PSIwIiB3aWR0aD0iMTI4IiBzdHlsZT0iZmlsbDpub25lOyIgaGVpZ2h0PSIxMjgiLz4mI3hhOyYjeGE7PGc+JiN4YTsmI3hhOzxnIHRyYW5zZm9ybT0ibWF0cml4KDEuMDUyOTgsMCwwLDAuODM0Njc2LC0yOTE0LjY3LDQ2Ny45NjUpIj4mI3hhOyYjeGE7PHBhdGggc3R5bGU9ImZpbGw6cmdiKDI0NCw0OSw0OSk7IiBkPSJNMjg4MS4zLC00MTcuODI3QzI4ODEuMywtNDQyLjA2MSAyODY1LjczLC00NjEuNzA2IDI4NDYuNTIsLTQ2MS43MDZDMjgzNS4xMiwtNDYxLjcwNiAyODIyLjQ1LC00NjEuNzA2IDI4MTEuMDUsLTQ2MS43MDZDMjc5MS44NCwtNDYxLjcwNiAyNzc2LjI3LC00NDIuMDYxIDI3NzYuMjcsLTQxNy44MjdMMjc3Ni4yNywtNDExLjMxOUwyODgxLjMsLTQxMS4zMTlMMjg4MS4zLC00MTcuODI3WiIvPiYjeGE7JiN4YTs8L2c+JiN4YTsmI3hhOzxnIHRyYW5zZm9ybT0ibWF0cml4KDEsMCwwLDEsLTIzNDUuNzIsLTI3OTEuMjUpIj4mI3hhOyYjeGE7PHBhdGggc3R5bGU9ImZpbGw6cmdiKDE4MywzNywzNyk7IiBkPSJNMjQ2NS4wMSwyOTA5LjYxTDIzNTQuNDMsMjkwOS42MUMyMzU0LjQzLDI5MDkuOSAyMzU0LjQzLDI5MTAuMTggMjM1NC40MywyOTEwLjQ3TDIzNTQuNDMsMjkxNS45TDI0NjUuMDIsMjkxNS45TDI0NjUuMDIsMjkxMC40N0MyNDY1LjAyLDI5MTAuMTggMjQ2NS4wMiwyOTA5LjkgMjQ2NS4wMSwyOTA5LjYxWiIvPiYjeGE7JiN4YTs8L2c+JiN4YTsmI3hhOzxnIHRyYW5zZm9ybT0ibWF0cml4KDEsMCwwLDEsLTIzNDUuNzIsLTI3OTEuMjUpIj4mI3hhOyYjeGE7PHBhdGggc3R5bGU9ImZpbGw6cmdiKDI0NywxMDEsMTAxKTsiIGQ9Ik0yMzU0LjUzLDI5MTUuOUMyMzU1Ljk3LDI4OTYuOTkgMjM3MS43NywyODgyLjA5IDIzOTEuMDUsMjg4Mi4wOUwyNDI4LjQsMjg4Mi4wOUMyNDQ3LjY4LDI4ODIuMDkgMjQ2My40OCwyODk2Ljk5IDI0NjQuOTEsMjkxNS45TDI0NjUuMDIsMjkxNS45TDI0NjUuMDIsMjkxMC40N0MyNDY1LjAyLDI4OTAuMjQgMjQ0OC42MiwyODczLjg1IDI0MjguNCwyODczLjg1TDIzOTEuMDUsMjg3My44NUMyMzcwLjgyLDI4NzMuODUgMjM1NC40MywyODkwLjI0IDIzNTQuNDMsMjkxMC40N0wyMzU0LjQzLDI5MTUuOUwyMzU0LjUzLDI5MTUuOVoiLz4mI3hhOyYjeGE7PC9nPiYjeGE7JiN4YTs8ZyB0cmFuc2Zvcm09Im1hdHJpeCgxLjA1Mjk4LDAsMCwwLjkzMjYwMywtMjkxNS44MSw1MTAuNzkpIj4mI3hhOyYjeGE7PHBhdGggc3R5bGU9ImZpbGw6cmdiKDE4NSwxNTYsODQpOyIgZD0iTTI4MzcuOSwtNDgxLjU1MUwyODIyLjU2LC00ODEuNTUxTDI4MjIuNTYsLTQ1OS4xNDVDMjgyOC4wMywtNDUzLjMyOSAyODMzLjE0LC00NTMuMzI5IDI4MzcuOSwtNDU5LjE0NUwyODM3LjksLTQ4MS41NTFaIi8+JiN4YTsmI3hhOzwvZz4mI3hhOyYjeGE7PGcgdHJhbnNmb3JtPSJtYXRyaXgoMSwwLDAsMSwtMjM0NS43MiwtMjc5MS4yNSkiPiYjeGE7JiN4YTs8cGF0aCBzdHlsZT0iZmlsbDpyZ2IoMjQ3LDIwOCwxMTIpOyIgZD0iTTI0MDIuMDIsMjg2Ni4wNEwyNDAyLjAyLDI4NzMuODVDMjQwNy43OCwyODc5LjI3IDI0MTMuMTYsMjg3OS4yNyAyNDE4LjE4LDI4NzMuODVMMjQxOC4xOCwyODY2LjA0QzI0MTMuMTYsMjg3MS40NiAyNDA3Ljc4LDI4NzEuNDYgMjQwMi4wMiwyODY2LjA0WiIvPiYjeGE7JiN4YTs8L2c+JiN4YTsmI3hhOzxnIHRyYW5zZm9ybT0ibWF0cml4KDEuMTkzNjgsMCwwLDEuMzI3MzMsLTMzMTAuMTMsNjg4LjkwNCkiPiYjeGE7JiN4YTs8Y2lyY2xlIHN0eWxlPSJmaWxsOnJnYigyNDcsMjA4LDExMik7IiByPSIxNy43MDUiIGN5PSItNDgxLjU2MyIgY3g9IjI4MjYuOTkiLz4mI3hhOyYjeGE7PC9nPiYjeGE7JiN4YTs8ZyB0cmFuc2Zvcm09Im1hdHJpeCgwLjcwNTQ2NywwLDAsMC45NTUxNzksLTE5MzMuODUsNTI3LjUwOSkiPiYjeGE7JiN4YTs8cGF0aCBzdHlsZT0iZmlsbDpyZ2IoMTMsMTIxLDI0Mik7IiBkPSJNMjc4OS44NiwtNDYzLjM5N0wyNzg5Ljg2LC00MzYuMzc3QzI3ODkuODYsLTQzMi44NzcgMjc4OC4zOCwtNDI5LjQ2NCAyNzg1LjYyLC00MjYuNjE5QzI3ODMuMywtNDI0LjIzNSAyNzgwLjkxLC00MjEuNzY2IDI3ODAuOTEsLTQyMS43NjZMMjg4MS4zNCwtNDIxLjc2NkMyODgxLjM0LC00MjEuNzY2IDI4NzguOTQsLTQyNC4yMzUgMjg3Ni42MywtNDI2LjYxOUMyODczLjg3LC00MjkuNDY0IDI4NzIuMzgsLTQzMi44NzcgMjg3Mi4zOCwtNDM2LjM3N0MyODcyLjM4LC00NDUuNjkzIDI4NzIuMzgsLTQ2My44MzUgMjg3Mi4zOCwtNDYzLjgzNUMyODY3LjA0LC00NjUuMTMxIDI4NjEuNCwtNDY1Ljc5NiAyODU1LjY3LC00NjUuNzk2QzI4NTUuNjcsLTQ2NS43OTYgMjg1My4zNiwtNDUyLjExNCAyODUyLjIxLC00NDUuMzcxQzI4NTEuODYsLTQ0My4yNzUgMjg0OS40NSwtNDQxLjcwMyAyODQ2LjU5LC00NDEuNzAzQzI4MzkuMTgsLTQ0MS43MDMgMjgyNS4zOSwtNDQxLjcwMyAyODE4LjA1LC00NDEuNzAzQzI4MTUuMjUsLTQ0MS43MDMgMjgxMi44NywtNDQzLjIxNiAyODEyLjQ1LC00NDUuMjYzQzI4MTEuMDcsLTQ1MS45NjcgMjgwOC4yMywtNDY1Ljc5NiAyODA4LjIzLC00NjUuNzk2QzI4MDEuOSwtNDY1Ljc5NiAyNzk1LjY5LC00NjQuOTg2IDI3ODkuODYsLTQ2My4zOTdaIi8+JiN4YTsmI3hhOzwvZz4mI3hhOyYjeGE7PGcgdHJhbnNmb3JtPSJtYXRyaXgoMSwwLDAsMSwtMjM0NS43MiwtMjc5MS4yNSkiPiYjeGE7JiN4YTs8cGF0aCBzdHlsZT0iZmlsbDpyZ2IoNzQsMTU1LDI0NSk7IiBkPSJNMjM5NC4yNiwyODgyLjE4TDIzOTIuOTksMjg3My44NUMyMzg4LjUzLDI4NzMuODUgMjM4NC4xNCwyODc0LjYyIDIzODAuMDMsMjg3Ni4xNEwyMzgwLjAzLDI4ODQuNDhDMjM4NC4xNCwyODgyLjk2IDIzODguNTMsMjg4Mi4xOCAyMzkyLjk5LDI4ODIuMThMMjM5NC4yNiwyODgyLjE4WiIvPiYjeGE7JiN4YTs8L2c+JiN4YTsmI3hhOzxnIHRyYW5zZm9ybT0ibWF0cml4KDEsMCwwLDEsLTIzNDUuNzIsLTI3OTEuMjUpIj4mI3hhOyYjeGE7PHBhdGggc3R5bGU9ImZpbGw6cmdiKDc0LDE1NSwyNDUpOyIgZD0iTTI0MjkuNDcsMjg3My45NkwyNDI2LjQ2LDI4NzMuODVMMjQyNS40MSwyODgyLjE4TDI0MjYuNDYsMjg4Mi4xOEMyNDMwLjUsMjg4Mi4xOCAyNDM0LjQ4LDI4ODIuODIgMjQzOC4yNSwyODg0LjA2TDI0MzguMjUsMjg3NS43MkMyNDM1LjQyLDI4NzQuNzkgMjQzMi40NywyODc0LjIgMjQyOS40NywyODczLjk2WiIvPiYjeGE7JiN4YTs8L2c+JiN4YTsmI3hhOzxnIHRyYW5zZm9ybT0ibWF0cml4KDEsMCwwLDEsLTIzNDUuNzIsLTI3OTEuMjUpIj4mI3hhOyYjeGE7PHBhdGggc3R5bGU9ImZpbGw6cmdiKDEwLDkxLDE4MSk7IiBkPSJNMjQ0MC4yMSwyOTA5LjYzTDIzNzguMDcsMjkwOS42M0MyMzc3Ljc2LDI5MTAuMTkgMjM3Ny40MSwyOTEwLjc0IDIzNzcuMDQsMjkxMS4yN0MyMzc1LjQsMjkxMy41NCAyMzczLjcxLDI5MTUuOSAyMzczLjcxLDI5MTUuOUwyNDQ0LjU3LDI5MTUuOUMyNDQ0LjU3LDI5MTUuOSAyNDQyLjg4LDI5MTMuNTQgMjQ0MS4yNCwyOTExLjI3QzI0NDAuODcsMjkxMC43NCAyNDQwLjUyLDI5MTAuMTkgMjQ0MC4yMSwyOTA5LjYzWiIvPiYjeGE7JiN4YTs8L2c+JiN4YTsmI3hhOzxnIHRyYW5zZm9ybT0ibWF0cml4KDEuMDUyOTgsMCwwLDEuMDUyOTgsLTI5MTUuNzQsNTY4Ljc2KSI+JiN4YTsmI3hhOzxwYXRoIHN0eWxlPSJmaWxsOnJnYigxNTgsMTU4LDE1OCk7IiBkPSJNMjgzMC4xNiwtNTAyLjEwMkMyODMyLjEzLC01MDUuMTQzIDI4MzUuNTgsLTUwNy4xNTkgMjgzOS41LC01MDcuMTU5QzI4NDUuNjIsLTUwNy4xNTkgMjg1MC42LC01MDIuMjQ0IDI4NTAuNiwtNDk2LjE5MUMyODUwLjYsLTQ5MC4xMzcgMjg0NS42MiwtNDg1LjIyMyAyODM5LjUsLTQ4NS4yMjNDMjgzNy4yOSwtNDg1LjIyMyAyODM1LjIzLC00ODUuODY1IDI4MzMuNSwtNDg2Ljk3QzI4MzEuNDcsLTQ4OC4yODcgMjgyOC44NSwtNDg4LjI4NiAyODI2LjgyLC00ODYuOTY5QzI4MjUuMDksLTQ4NS44NjUgMjgyMy4wMywtNDg1LjIyMyAyODIwLjgxLC00ODUuMjIzQzI4MTQuNjksLTQ4NS4yMjMgMjgwOS43MiwtNDkwLjEzNyAyODA5LjcyLC00OTYuMTkxQzI4MDkuNzIsLTUwMi4yNDQgMjgxNC42OSwtNTA3LjE1OSAyODIwLjgxLC01MDcuMTU5QzI4MjQuNzQsLTUwNy4xNTkgMjgyOC4xOCwtNTA1LjE0MyAyODMwLjE2LC01MDIuMTAyWiIvPiYjeGE7JiN4YTs8L2c+JiN4YTsmI3hhOzxnIHRyYW5zZm9ybT0ibWF0cml4KDEuMDUyOTgsMCwwLDEuMDUyOTgsLTI5MTUuNzQsNTY4Ljc2KSI+JiN4YTsmI3hhOzxwYXRoIHN0eWxlPSJmaWxsOnJnYig1MSw1MSw1MSk7IiBkPSJNMjgzMC4xNiwtNTA1LjEyOUMyODI3LjgsLTUwNy41NSAyODI0LjQ4LC01MDkuMDU4IDI4MjAuODEsLTUwOS4wNThDMjgxMy42NCwtNTA5LjA1OCAyODA3LjgyLC01MDMuMjg3IDI4MDcuODIsLTQ5Ni4xOTFDMjgwNy44MiwtNDg5LjA5NSAyODEzLjY0LC00ODMuMzIzIDI4MjAuODEsLTQ4My4zMjNDMjgyMy40LC00ODMuMzIzIDI4MjUuODIsLTQ4NC4wNzUgMjgyNy44NCwtNDg1LjM2OEMyODI3Ljg1LC00ODUuMzcxIDI4MjcuODUsLTQ4NS4zNzMgMjgyNy44NiwtNDg1LjM3NkMyODI5LjI2LC00ODYuMjg1IDI4MzEuMDYsLTQ4Ni4yODUgMjgzMi40NiwtNDg1LjM3NkMyODMyLjQ3LC00ODUuMzc0IDI4MzIuNDcsLTQ4NS4zNzIgMjgzMi40NywtNDg1LjM2OUMyODM0LjUsLTQ4NC4wNzYgMjgzNi45MSwtNDgzLjMyMyAyODM5LjUsLTQ4My4zMjNDMjg0Ni42OCwtNDgzLjMyMyAyODUyLjUsLTQ4OS4wOTUgMjg1Mi41LC00OTYuMTkxQzI4NTIuNSwtNTAzLjI4NyAyODQ2LjY4LC01MDkuMDU4IDI4MzkuNSwtNTA5LjA1OEMyODM1Ljg0LC01MDkuMDU4IDI4MzIuNTIsLTUwNy41NSAyODMwLjE2LC01MDUuMTI5Wk0yODI4LjU3LC01MDEuMDY4QzI4MjguOTEsLTUwMC41MjggMjgyOS41MSwtNTAwLjIwMyAyODMwLjE2LC01MDAuMjAzQzI4MzAuOCwtNTAwLjIwMyAyODMxLjQsLTUwMC41MjggMjgzMS43NSwtNTAxLjA2OEMyODMzLjM5LC01MDMuNTkgMjgzNi4yNSwtNTA1LjI2IDI4MzkuNSwtNTA1LjI2QzI4NDQuNTcsLTUwNS4yNiAyODQ4LjcsLTUwMS4yMDIgMjg0OC43LC00OTYuMTkxQzI4NDguNywtNDkxLjE4IDI4NDQuNTcsLTQ4Ny4xMjIgMjgzOS41LC00ODcuMTIyQzI4MzcuNjcsLTQ4Ny4xMjIgMjgzNS45NiwtNDg3LjY1MyAyODM0LjUyLC00ODguNTdDMjgzMS44NywtNDkwLjI4NiAyODI4LjQ1LC00OTAuMjg2IDI4MjUuOCwtNDg4LjU2OUMyODI0LjM2LC00ODcuNjUzIDI4MjIuNjUsLTQ4Ny4xMjIgMjgyMC44MSwtNDg3LjEyMkMyODE1Ljc1LC00ODcuMTIyIDI4MTEuNjIsLTQ5MS4xOCAyODExLjYyLC00OTYuMTkxQzI4MTEuNjIsLTUwMS4yMDIgMjgxNS43NSwtNTA1LjI2IDI4MjAuODEsLTUwNS4yNkMyODI0LjA3LC01MDUuMjYgMjgyNi45MywtNTAzLjU5IDI4MjguNTcsLTUwMS4wNjhaIi8+JiN4YTsmI3hhOzwvZz4mI3hhOyYjeGE7PGcgdHJhbnNmb3JtPSJtYXRyaXgoMS4wNTI5OCwwLDAsMS4wNTI5OCwtMjkxNS43NCw1NjguNzYpIj4mI3hhOyYjeGE7PHBhdGggc3R5bGU9ImZpbGw6cmdiKDI0NCwxODcsNDkpOyIgZD0iTTI4MDQuMTYsLTUwMS40NDJDMjgwMy4zOCwtNTAyLjcxOSAyODA4LjcyLC01MDYuMDc2IDI4MDguMiwtNTA3LjQ5OEMyODA3LjI3LC01MTAuMDE0IDI4MDYuNzcsLTUxMC43MzIgMjgwNi43NywtNTEzLjU2N0MyODA2Ljc3LC01MjYuNDc2IDI4MTcuMjUsLTUzNi45NTcgMjgzMC4xNiwtNTM2Ljk1N0MyODQzLjA3LC01MzYuOTU3IDI4NTMuNTUsLTUyNi40NzYgMjg1My41NSwtNTEzLjU2N0MyODUzLjU1LC01MTAuNzMyIDI4NTMuMDQsLTUxMC4wMTQgMjg1Mi4xMiwtNTA3LjQ5OEMyODUxLjU5LC01MDYuMDc2IDI4NTYuOTQsLTUwMi43MTkgMjg1Ni4xNiwtNTAxLjQ0MkwyODA0LjE2LC01MDEuNDQyWiIvPiYjeGE7JiN4YTs8L2c+JiN4YTsmI3hhOzxnIHRyYW5zZm9ybT0ibWF0cml4KDEsMCwwLDEsLTIzNDUuNzIsLTI3OTEuMjUpIj4mI3hhOyYjeGE7PHBhdGggc3R5bGU9ImZpbGw6cmdiKDI0NywyMDQsMTAxKTsiIGQ9Ik0yMzg1LjkyLDI4MjIuNzZDMjM4NS42MiwyODIxLjggMjM4NS40NywyODIwLjg0IDIzODUuNDcsMjgxOS4yNEMyMzg1LjQ3LDI4MDUuNjQgMjM5Ni41MSwyNzk0LjYxIDI0MTAuMSwyNzk0LjYxQzI0MjMuNjksMjc5NC42MSAyNDM0LjczLDI4MDUuNjQgMjQzNC43MywyODE5LjI0QzI0MzQuNzMsMjgyMC44NCAyNDM0LjU3LDI4MjEuOCAyNDM0LjI4LDI4MjIuNzZDMjQzMi4wOCwyODExLjQxIDI0MjIuMDksMjgwMi44MyAyNDEwLjEsMjgwMi44M0MyMzk4LjExLDI4MDIuODMgMjM4OC4xMSwyODExLjQxIDIzODUuOTIsMjgyMi43NloiLz4mI3hhOyYjeGE7PC9nPiYjeGE7JiN4YTs8ZyB0cmFuc2Zvcm09Im1hdHJpeCgwLjkxMDIzNiwwLDAsMS4wNTI5OCwtMjUzNi40NSw1NjguODAyKSI+JiN4YTsmI3hhOzxwYXRoIHN0eWxlPSJmaWxsOnJnYigxODMsMTQwLDM3KTsiIGQ9Ik0yODQ0Ljc1LC01MzQuMzE1QzI4NTEuMzcsLTUyOS43ODMgMjg1NS43NSwtNTIyLjE4NSAyODU1Ljc1LC01MTMuNTY3QzI4NTUuNzUsLTUxMi41MTggMjg1NC43NiwtNTExLjY2NyAyODUzLjU1LC01MTEuNjY3QzI4NTIuMzQsLTUxMS42NjcgMjg1MS4zNSwtNTEyLjUxOCAyODUxLjM1LC01MTMuNTY3QzI4NTEuMzUsLTUyMS4wNjYgMjg0Ny41NiwtNTI3LjY5MyAyODQxLjc0LC01MzEuNTU3QzI4NDEuNDQsLTUzMS43NTcgMjg0MS4yMiwtNTMyLjAxMSAyODQxLjEsLTUzMi4zMDJDMjg0Mi4yNSwtNTMzLjA1NiAyODQzLjQ3LC01MzMuNzMxIDI4NDQuNzUsLTUzNC4zMTVaIi8+JiN4YTsmI3hhOzwvZz4mI3hhOyYjeGE7PGcgdHJhbnNmb3JtPSJtYXRyaXgoLTAuOTEwMjM2LDAsMCwxLjA1Mjk4LDI2NjUuMiw1NjguODAyKSI+JiN4YTsmI3hhOzxwYXRoIHN0eWxlPSJmaWxsOnJnYigxODMsMTQwLDM3KTsiIGQ9Ik0yODQ0Ljc1LC01MzQuMzE1QzI4NDMuNDcsLTUzMy43MzMgMjg0Mi4yNCwtNTMzLjA2NCAyODQxLjEsLTUzMi4zMDJDMjg0MS4yMiwtNTMyLjAxMSAyODQxLjQ0LC01MzEuNzU3IDI4NDEuNzQsLTUzMS41NTdDMjg0Ny41NiwtNTI3LjY5MyAyODUxLjM1LC01MjEuMDY2IDI4NTEuMzUsLTUxMy41NjdDMjg1MS4zNSwtNTEyLjUxOCAyODUyLjM0LC01MTEuNjY3IDI4NTMuNTUsLTUxMS42NjdDMjg1NC43NiwtNTExLjY2NyAyODU1Ljc1LC01MTIuNTE4IDI4NTUuNzUsLTUxMy41NjdDMjg1NS43NSwtNTIyLjE4NSAyODUxLjM3LC01MjkuNzgzIDI4NDQuNzUsLTUzNC4zMTVaIi8+JiN4YTsmI3hhOzwvZz4mI3hhOyYjeGE7PGcgdHJhbnNmb3JtPSJtYXRyaXgoMS4wNTI5OCwwLDAsMS4wNTI5OCwtMjkxNS42OSw1NjguNzYpIj4mI3hhOyYjeGE7PHBhdGggc3R5bGU9ImZpbGw6cmdiKDE4MywxNDAsMzcpOyIgZD0iTTI4MDcuNDksLTUwOS4yOTZMMjgwOC4yMywtNTA5LjQ0NEwyODE4LjE0LC01MDkuNDQ0QzI4MTkuMTksLTUwOS40NDQgMjgyMC4wNCwtNTA4LjU5MyAyODIwLjA0LC01MDcuNTQ1QzI4MjAuMDQsLTUwNi40OTYgMjgxOS4xOSwtNTA1LjY0NSAyODE4LjE0LC01MDUuNjQ1TDI4MDguMjMsLTUwNS42NDVDMjgwNy45MiwtNTA1LjY0NSAyODA3LjYzLC01MDUuNzE4IDI4MDcuMzgsLTUwNS44NjZDMjgwNy45NSwtNTA2LjQ5OSAyODA4LjMsLTUwNy4wODIgMjgwOC4xNSwtNTA3LjQ5OEwyODA3LjQ5LC01MDkuMjk2WiIvPiYjeGE7JiN4YTs8L2c+JiN4YTsmI3hhOzwvZz4mI3hhOyYjeGE7PC9nPiYjeGE7JiN4YTs8L2c+JiN4YTsmI3hhOzwvc3ZnPg==;" parent="1" vertex="1">
          <mxGeometry x="417" y="359" width="10" height="10" as="geometry" />
        </mxCell>
        <mxCell id="MuEgCA0l2RGkUJCn2qk8-26" value="" style="shape=image;verticalLabelPosition=bottom;labelBackgroundColor=default;verticalAlign=top;aspect=fixed;imageAspect=0;image=data:image/svg+xml,PHN2ZyB4bWxuczp4bGluaz0iaHR0cDovL3d3dy53My5vcmcvMTk5OS94bGluayIgeG1sbnM9Imh0dHA6Ly93d3cudzMub3JnLzIwMDAvc3ZnIiB4bWw6c3BhY2U9InByZXNlcnZlIiB2aWV3Qm94PSIwIDAgNTEyIDUxMiIgaWQ9IkxheWVyXzEiIHZlcnNpb249IjEuMSIgd2lkdGg9IjgwMHB4IiBoZWlnaHQ9IjgwMHB4Ij4mI3hhOzxwYXRoIGQ9Ik00NDUuMjE3LDUxMkg0NC41MjJjLTEyLjI5NSwwLTIyLjI2MS05Ljk2Ni0yMi4yNjEtMjIuMjYxVjg5LjA0MyYjMTA7JiM5O2MwLTEyLjI5NSw5Ljk2Ni0yMi4yNjEsMjIuMjYxLTIyLjI2MWg0MDAuNjk2YzEyLjI5NSwwLDIyLjI2MSw5Ljk2NiwyMi4yNjEsMjIuMjYxdjQwMC42OTYmIzEwOyYjOTtDNDY3LjQ3OCw1MDIuMDM0LDQ1Ny41MTIsNTEyLDQ0NS4yMTcsNTEyeiIgc3R5bGU9ImZpbGw6Izk5Nzc0RjsiLz4mI3hhOzxwYXRoIGQ9Ik00NjcuNDc4LDEwMC4xNzR2Mzc4LjQzNUgyMi4yNjFWMTAwLjE3NEg0NjcuNDc4eiIgc3R5bGU9ImZpbGw6IzdGNUQzQjsiLz4mI3hhOzxwYXRoIGQ9Ik00NjcuNDc4LDQ0NS4yMTdIMjIuMjYxQzkuOTY2LDQ0NS4yMTcsMCw0MzUuMjUxLDAsNDIyLjk1N1Y4OS4wNDMmIzEwOyYjOTtjMC0xMi4yOTUsOS45NjYtMjIuMjYxLDIyLjI2MS0yMi4yNjFoNDQ1LjIxN2MxMi4yOTUsMCwyMi4yNjEsOS45NjYsMjIuMjYxLDIyLjI2MXYzMzMuOTEzJiMxMDsmIzk7QzQ4OS43MzksNDM1LjI1MSw0NzkuNzczLDQ0NS4yMTcsNDY3LjQ3OCw0NDUuMjE3eiIgc3R5bGU9ImZpbGw6I0VGRERBQjsiLz4mI3hhOzxwYXRoIGQ9Ik00ODkuNzM5LDE0NC42OTZ2NjYuNzgzSDM4OS41NjVjLTYuMTQ3LDAtMTEuMTMtNC45ODMtMTEuMTMtMTEuMTN2LTQ0LjUyMiYjMTA7JiM5O2MwLTYuMTQ3LDQuOTgzLTExLjEzLDExLjEzLTExLjEzSDQ4OS43Mzl6IE03Ny45MTMsMzI1LjU2NUgzMy4zOTFjLTQuNjEsMC04LjM0OCwzLjczOC04LjM0OCw4LjM0OHMzLjczOCw4LjM0OCw4LjM0OCw4LjM0OGg0NC41MjImIzEwOyYjOTtjNC42MSwwLDguMzQ4LTMuNzM4LDguMzQ4LTguMzQ4UzgyLjUyMywzMjUuNTY1LDc3LjkxMywzMjUuNTY1eiBNMzMuMzkxLDE2NC4xNzRoNDQuNTIyYzQuNjEsMCw4LjM0OC0zLjczOCw4LjM0OC04LjM0OCYjMTA7JiM5O3MtMy43MzgtOC4zNDgtOC4zNDgtOC4zNDhIMzMuMzkxYy00LjYxLDAtOC4zNDgsMy43MzgtOC4zNDgsOC4zNDhTMjguNzgxLDE2NC4xNzQsMzMuMzkxLDE2NC4xNzR6IE00NTYuMzQ4LDI0Ny42NTJIMzQyLjI2MSYjMTA7JiM5O1YxMzMuNTY1YzAtNC42MS0zLjczOC04LjM0OC04LjM0OC04LjM0OHMtOC4zNDgsMy43MzgtOC4zNDgsOC4zNDh2MTE0LjA4N0gxNjQuMTc0VjEzMy41NjVjMC00LjYxLTMuNzM4LTguMzQ4LTguMzQ4LTguMzQ4JiMxMDsmIzk7cy04LjM0OCwzLjczOC04LjM0OCw4LjM0OHYxMTQuMDg3SDMzLjM5MWMtNC42MSwwLTguMzQ4LDMuNzM4LTguMzQ4LDguMzQ4czMuNzM4LDguMzQ4LDguMzQ4LDguMzQ4aDExNC4wODd2MTI1LjIxNyYjMTA7JiM5O2MwLDQuNjEsMy43MzgsOC4zNDgsOC4zNDgsOC4zNDhzOC4zNDgtMy43MzgsOC4zNDgtOC4zNDhWMjY0LjM0OGgxNjEuMzkxdjEyNS4yMTdjMCw0LjYxLDMuNzM4LDguMzQ4LDguMzQ4LDguMzQ4JiMxMDsmIzk7czguMzQ4LTMuNzM4LDguMzQ4LTguMzQ4VjI2NC4zNDhoMTE0LjA4N2M0LjYxLDAsOC4zNDgtMy43MzgsOC4zNDgtOC4zNDhTNDYwLjk1OCwyNDcuNjUyLDQ1Ni4zNDgsMjQ3LjY1MnogTTMzLjM5MSwxMzAuNzgzaDg5LjA0MyYjMTA7JiM5O2M0LjYxLDAsOC4zNDgtMy43MzgsOC4zNDgtOC4zNDhzLTMuNzM4LTguMzQ4LTguMzQ4LTguMzQ4SDMzLjM5MWMtNC42MSwwLTguMzQ4LDMuNzM4LTguMzQ4LDguMzQ4UzI4Ljc4MSwxMzAuNzgzLDMzLjM5MSwxMzAuNzgzeiYjMTA7JiM5OyBNMTIyLjQzNSwyOTIuMTc0SDMzLjM5MWMtNC42MSwwLTguMzQ4LDMuNzM4LTguMzQ4LDguMzQ4czMuNzM4LDguMzQ4LDguMzQ4LDguMzQ4aDg5LjA0M2M0LjYxLDAsOC4zNDgtMy43MzgsOC4zNDgtOC4zNDgmIzEwOyYjOTtTMTI3LjA0NSwyOTIuMTc0LDEyMi40MzUsMjkyLjE3NHogTTI4OS4zOTEsMjkyLjE3NGgtODkuMDQzYy00LjYxLDAtOC4zNDgsMy43MzgtOC4zNDgsOC4zNDhzMy43MzgsOC4zNDgsOC4zNDgsOC4zNDhoODkuMDQzJiMxMDsmIzk7YzQuNjEsMCw4LjM0OC0zLjczOCw4LjM0OC04LjM0OFMyOTQuMDAyLDI5Mi4xNzQsMjg5LjM5MSwyOTIuMTc0eiBNMjQ0Ljg3LDMyNS41NjVoLTQ0LjUyMmMtNC42MSwwLTguMzQ4LDMuNzM4LTguMzQ4LDguMzQ4JiMxMDsmIzk7czMuNzM4LDguMzQ4LDguMzQ4LDguMzQ4aDQ0LjUyMmM0LjYxLDAsOC4zNDgtMy43MzgsOC4zNDgtOC4zNDhTMjQ5LjQ4LDMyNS41NjUsMjQ0Ljg3LDMyNS41NjV6IiBzdHlsZT0iZmlsbDojQzFCMjkxOyIvPiYjeGE7PHBhdGggZD0iTTUxMiwxMzMuNTY1djQ0LjUyMmMwLDYuMTQ3LTQuOTgzLDExLjEzLTExLjEzLDExLjEzSDM4OS41NjVjLTYuMTQ3LDAtMTEuMTMtNC45ODMtMTEuMTMtMTEuMTMmIzEwOyYjOTt2LTQ0LjUyMmMwLTYuMTQ3LDQuOTgzLTExLjEzLDExLjEzLTExLjEzSDUwMC44N0M1MDcuMDE3LDEyMi40MzUsNTEyLDEyNy40MTgsNTEyLDEzMy41NjV6IiBzdHlsZT0iZmlsbDojOTFGMThCOyIvPiYjeGE7PHBhdGggZD0iTTQ3NS44MjYsMTU1LjgyNmMwLDQuNjEtMy43MzgsOC4zNDgtOC4zNDgsOC4zNDhoLTU1LjY1MmMtNC42MSwwLTguMzQ4LTMuNzM4LTguMzQ4LTguMzQ4JiMxMDsmIzk7czMuNzM4LTguMzQ4LDguMzQ4LTguMzQ4aDU1LjY1MkM0NzIuMDg4LDE0Ny40NzgsNDc1LjgyNiwxNTEuMjE2LDQ3NS44MjYsMTU1LjgyNnoiIHN0eWxlPSJmaWxsOiM2QkFGNkU7Ii8+JiN4YTs8cGF0aCBkPSJNMzA2LjE2MywxMDAuMTc0SDE4My41NzZjLTE0LjI0MSwwLTI0LjgyLTEzLjE4Ny0yMS43MzEtMjcuMDlsMTIuMzY3LTU1LjY1MiYjMTA7JiM5O0MxNzYuNDc2LDcuMjQ3LDE4NS41MSwwLDE5NS45NDMsMGg5Ny44NTFjMTAuNDM0LDAsMTkuNDY3LDcuMjQ3LDIxLjczMSwxNy40MzFsMTIuMzY3LDU1LjY1MiYjMTA7JiM5O0MzMzAuOTgyLDg2Ljk4NywzMjAuNDA0LDEwMC4xNzQsMzA2LjE2MywxMDAuMTc0eiIgc3R5bGU9ImZpbGw6IzlCOUI5QjsiLz4mI3hhOzxwYXRoIGQ9Ik0yOTMuNzk2LDBjMTAuNDM0LDAsMTkuNDY3LDcuMjQ3LDIxLjczMSwxNy40MzFsOC40OTMsMzguMjIxSDE2NS43Mmw4LjQ5NC0zOC4yMjEmIzEwOyYjOTtDMTc2LjQ3Niw3LjI0NywxODUuNTEsMCwxOTUuOTQzLDBIMjkzLjc5NnoiIHN0eWxlPSJmaWxsOiM4MjgyODI7Ii8+JiN4YTs8cGF0aCBkPSJNMzE5LjA3MywzMy4zOTFsNC45NDYsMjIuMjYxSDE2NS43Mmw0Ljk0Ni0yMi4yNjFIMzE5LjA3M3oiIHN0eWxlPSJmaWxsOiM2NjY2NjY7Ii8+JiN4YTs8L3N2Zz4=;" parent="1" vertex="1">
          <mxGeometry x="372" y="539" width="50" height="50" as="geometry" />
        </mxCell>
        <mxCell id="MuEgCA0l2RGkUJCn2qk8-28" value="" style="edgeStyle=orthogonalEdgeStyle;rounded=0;orthogonalLoop=1;jettySize=auto;html=1;endArrow=none;endFill=0;sketch=1;curveFitting=1;jiggle=2;" parent="1" source="MuEgCA0l2RGkUJCn2qk8-2" target="MuEgCA0l2RGkUJCn2qk8-29" edge="1">
          <mxGeometry relative="1" as="geometry">
            <mxPoint x="397" y="489" as="sourcePoint" />
            <mxPoint x="397" y="549" as="targetPoint" />
          </mxGeometry>
        </mxCell>
        <mxCell id="MuEgCA0l2RGkUJCn2qk8-29" value="&lt;font face=&quot;Tahoma&quot; style=&quot;font-size: 11px;&quot;&gt;according to&lt;/font&gt;" style="text;html=1;align=center;verticalAlign=middle;whiteSpace=wrap;rounded=0;fontSize=11;" parent="1" vertex="1">
          <mxGeometry x="359.5" y="499" width="75" height="11" as="geometry" />
        </mxCell>
        <mxCell id="MuEgCA0l2RGkUJCn2qk8-30" value="&lt;font face=&quot;Tahoma&quot; style=&quot;font-size: 11px;&quot;&gt;operational schedule&lt;/font&gt;" style="text;html=1;align=center;verticalAlign=middle;whiteSpace=wrap;rounded=0;fontSize=11;" parent="1" vertex="1">
          <mxGeometry x="299.75" y="549" width="55" height="30" as="geometry" />
        </mxCell>
        <mxCell id="MuEgCA0l2RGkUJCn2qk8-32" value="&lt;ul style=&quot;&quot;&gt;&lt;li style=&quot;&quot;&gt;&lt;font face=&quot;Tahoma&quot;&gt;for operational planning, there are constraints such that some products cannot be scheduled at the same time (i.e., week) because they require the same equipment (e.g., vessels)&lt;/font&gt;&lt;br&gt;&lt;/li&gt;&lt;li style=&quot;font-size: 11px;&quot;&gt;&lt;span style=&quot;font-family: Tahoma; background-color: initial;&quot;&gt;before starting, it must be verified that the materials and equipment are indeed available&lt;/span&gt;&lt;/li&gt;&lt;/ul&gt;" style="text;html=1;align=left;verticalAlign=middle;whiteSpace=wrap;rounded=0;fontSize=11;" parent="1" vertex="1">
          <mxGeometry y="506.5" width="240" height="115" as="geometry" />
        </mxCell>
        <mxCell id="MuEgCA0l2RGkUJCn2qk8-40" style="edgeStyle=orthogonalEdgeStyle;rounded=0;orthogonalLoop=1;jettySize=auto;html=1;sketch=1;curveFitting=1;jiggle=2;" parent="1" source="MuEgCA0l2RGkUJCn2qk8-34" target="MuEgCA0l2RGkUJCn2qk8-36" edge="1">
          <mxGeometry relative="1" as="geometry" />
        </mxCell>
        <mxCell id="MuEgCA0l2RGkUJCn2qk8-34" value="&lt;font style=&quot;font-size: 11px;&quot; face=&quot;Tahoma&quot;&gt;dispensing&lt;/font&gt;" style="text;html=1;align=center;verticalAlign=middle;whiteSpace=wrap;rounded=0;" parent="1" vertex="1">
          <mxGeometry x="462" y="446.5" width="65" height="30" as="geometry" />
        </mxCell>
        <mxCell id="MuEgCA0l2RGkUJCn2qk8-42" style="edgeStyle=orthogonalEdgeStyle;rounded=0;orthogonalLoop=1;jettySize=auto;html=1;sketch=1;curveFitting=1;jiggle=2;" parent="1" source="MuEgCA0l2RGkUJCn2qk8-35" target="MuEgCA0l2RGkUJCn2qk8-37" edge="1">
          <mxGeometry relative="1" as="geometry" />
        </mxCell>
        <mxCell id="MuEgCA0l2RGkUJCn2qk8-35" value="&lt;font style=&quot;font-size: 11px;&quot; face=&quot;Tahoma&quot;&gt;filling&lt;/font&gt;" style="text;html=1;align=center;verticalAlign=middle;whiteSpace=wrap;rounded=0;" parent="1" vertex="1">
          <mxGeometry x="682" y="446.5" width="50" height="30" as="geometry" />
        </mxCell>
        <mxCell id="MuEgCA0l2RGkUJCn2qk8-41" style="edgeStyle=orthogonalEdgeStyle;rounded=0;orthogonalLoop=1;jettySize=auto;html=1;sketch=1;curveFitting=1;jiggle=2;" parent="1" source="MuEgCA0l2RGkUJCn2qk8-36" target="MuEgCA0l2RGkUJCn2qk8-35" edge="1">
          <mxGeometry relative="1" as="geometry" />
        </mxCell>
        <mxCell id="MuEgCA0l2RGkUJCn2qk8-36" value="&lt;font style=&quot;font-size: 11px;&quot; face=&quot;Tahoma&quot;&gt;compounding&lt;/font&gt;" style="text;html=1;align=center;verticalAlign=middle;whiteSpace=wrap;rounded=0;" parent="1" vertex="1">
          <mxGeometry x="562" y="446.5" width="80" height="30" as="geometry" />
        </mxCell>
        <mxCell id="MuEgCA0l2RGkUJCn2qk8-37" value="&lt;font style=&quot;font-size: 11px;&quot; face=&quot;Tahoma&quot;&gt;inspection&lt;/font&gt;" style="text;html=1;align=center;verticalAlign=middle;whiteSpace=wrap;rounded=0;" parent="1" vertex="1">
          <mxGeometry x="772" y="446.5" width="60" height="30" as="geometry" />
        </mxCell>
        <mxCell id="MuEgCA0l2RGkUJCn2qk8-43" value="" style="shape=image;verticalLabelPosition=bottom;labelBackgroundColor=default;verticalAlign=top;aspect=fixed;imageAspect=0;image=data:image/svg+xml,PHN2ZyB4bWxuczp4bGluaz0iaHR0cDovL3d3dy53My5vcmcvMTk5OS94bGluayIgeG1sbnM9Imh0dHA6Ly93d3cudzMub3JnLzIwMDAvc3ZnIiB4bWw6c3BhY2U9InByZXNlcnZlIiB2aWV3Qm94PSIwIDAgNTEyIDUxMiIgaWQ9IkxheWVyXzEiIHZlcnNpb249IjEuMSI+JiN4YTs8Zz4mI3hhOwk8cmVjdCBoZWlnaHQ9IjEwNy43ODkiIHdpZHRoPSI0MC40MjEiIHN0eWxlPSJmaWxsOiNDRkNERDI7IiB5PSI2Ny4zNjgiIHg9Ijg3LjU3OSIvPiYjeGE7CTxyZWN0IGhlaWdodD0iNDAuNDIxIiB3aWR0aD0iNTMuODk1IiBzdHlsZT0iZmlsbDojQ0ZDREQyOyIgeT0iMjAuMjExIiB4PSIyNi45NDciLz4mI3hhOwk8cmVjdCBoZWlnaHQ9IjQwLjQyMSIgd2lkdGg9IjUzLjg5NSIgc3R5bGU9ImZpbGw6I0NGQ0REMjsiIHk9IjIwLjIxMSIgeD0iMTM0LjczNyIvPiYjeGE7CTxwYXRoIGQ9Ik00ODUuMDUzLDM1MC4zMTZjMC03NC40NzMtNjAuMjY0LTEzNC43MzctMTM0LjczNy0xMzQuNzM3SDE0OC4yMTF2ODAuODQyaDIwMi4xMDUmIzEwOyYjOTsmIzk7YzI5Ljc4OSwwLDUzLjg5NSwyNC4xMDYsNTMuODk1LDUzLjg5NXYxMy40NzRoODAuODQyVjM1MC4zMTZ6IiBzdHlsZT0iZmlsbDojQ0ZDREQyOyIvPiYjeGE7PC9nPiYjeGE7PGc+JiN4YTsJPHJlY3QgaGVpZ2h0PSIxODguNjMyIiB3aWR0aD0iMTA3Ljc4OSIgc3R5bGU9ImZpbGw6I0RGREZFMTsiIHk9IjE2MS42ODQiIHg9IjUzLjg5NSIvPiYjeGE7CTxjaXJjbGUgcj0iNDAuNDIxIiBjeT0iNDAuNDIxIiBjeD0iMTA3Ljc4OSIgc3R5bGU9ImZpbGw6I0RGREZFMTsiLz4mI3hhOzwvZz4mI3hhOzxwYXRoIGQ9Ik00NDQuNjMyLDUxMmMtNS43NzksMC0xMS4yODMtMS4xNzYtMTYuMjg3LTMuMzAyYy0yMC43ODItOC44MjktMjcuOTQzLTM0Ljc0NS0xNC45OTUtNTMuMjQzJiMxMDsmIzk7bDMxLjI4Mi00NC42ODdsMzEuMjgyLDQ0LjY4OGMxMi45NSwxOC40OTgsNS43ODgsNDQuNDEzLTE0Ljk5NSw1My4yNDNDNDU1LjkxNCw1MTAuODI0LDQ1MC40MSw1MTIsNDQ0LjYzMiw1MTJ6IiBzdHlsZT0iZmlsbDojN0FCOUU4OyIvPiYjeGE7PHBhdGggZD0iTTM1MC4zMTYsMjE1LjU3OUgyNTZ2ODAuODQyaDk0LjMxNmMyOS43ODksMCw1My44OTUsMjQuMTA2LDUzLjg5NSw1My44OTV2MTMuNDc0aDgwLjg0MnYtMTMuNDc0JiMxMDsmIzk7QzQ4NS4wNTMsMjc1Ljg0Myw0MjQuNzg5LDIxNS41NzksMzUwLjMxNiwyMTUuNTc5eiIgc3R5bGU9ImZpbGw6I0FFQURCMzsiLz4mI3hhOzwvc3ZnPg==;" parent="1" vertex="1">
          <mxGeometry x="482" y="429" width="25" height="25" as="geometry" />
        </mxCell>
        <mxCell id="MuEgCA0l2RGkUJCn2qk8-45" value="" style="shape=image;verticalLabelPosition=bottom;labelBackgroundColor=default;verticalAlign=top;aspect=fixed;imageAspect=0;image=data:image/svg+xml,PHN2ZyB4bWxuczp4bGluaz0iaHR0cDovL3d3dy53My5vcmcvMTk5OS94bGluayIgeG1sbnM9Imh0dHA6Ly93d3cudzMub3JnLzIwMDAvc3ZnIiB4bWw6c3BhY2U9InByZXNlcnZlIiB2aWV3Qm94PSIwIDAgNTEyIDUxMiIgaWQ9IkxheWVyXzEiIHZlcnNpb249IjEuMSIgd2lkdGg9IjgwMHB4IiBoZWlnaHQ9IjgwMHB4Ij4mI3hhOzxwYXRoIGQ9Ik0yNTYsNjEuMjE3djYxLjIxN2MwLDkuMjIzLDcuNDczLDE2LjY5NiwxNi42OTYsMTYuNjk2SDM3Mi44N2M5LjIyMywwLDE2LjY5Ni03LjQ3MywxNi42OTYtMTYuNjk2JiMxMDsmIzk7VjYxLjIxN0gyNTZ6IiBzdHlsZT0iZmlsbDojQTY2NzNBOyIvPiYjeGE7PHBhdGggZD0iTTMyMi43ODMsNjEuMjE3djc3LjkxM2g1MC4wODdjOS4yMjMsMCwxNi42OTYtNy40NzMsMTYuNjk2LTE2LjY5NlY2MS4yMTdIMzIyLjc4M3oiIHN0eWxlPSJmaWxsOiM5OTUyMkU7Ii8+JiN4YTs8cGF0aCBkPSJNNjYuNzgzLDEwNS43MzlDMjguNzEyLDEwNS43MzksMCwxNTUuOTg0LDAsMjIyLjYwOXMyOC43MTIsMTE2Ljg3LDY2Ljc4MywxMTYuODdoNTkuNDU1JiMxMDsmIzk7YzguNjU3LDAsMTUuNjc1LTcuMDE4LDE1LjY3NS0xNS42NzVWMTIxLjQxNGMwLTguNjU3LTcuMDE4LTE1LjY3NS0xNS42NzUtMTUuNjc1SDY2Ljc4M3oiIHN0eWxlPSJmaWxsOiNGRjlGMTk7Ii8+JiN4YTs8cGF0aCBkPSJNNDQ1LjIxNywxMDUuNzM5SDI1My4wMzFjLTkuNDI1LDAtMTcuMDY2LDcuNjQxLTE3LjA2NiwxNy4wNjZ2MTk5LjYwNSYjMTA7JiM5O2MwLDkuNDI1LDcuNjQxLDE3LjA2NiwxNy4wNjYsMTcuMDY2aDE5Mi4xODZjMzguMDc2LDAsNjYuNzgzLTUwLjI0NSw2Ni43ODMtMTE2Ljg3UzQ4My4yOTMsMTA1LjczOSw0NDUuMjE3LDEwNS43Mzl6IiBzdHlsZT0iZmlsbDojRjI4NjE4OyIvPiYjeGE7PHBhdGggZD0iTTI1NiwxMDUuNzM5SDEyMi40MzV2MjMzLjczOUgyNTZWMTA1LjczOXogTTE1NS44MjYsMjA1LjkxM2g2Ni43ODN2MzMuMzkxaC02Ni43ODNWMjA1LjkxM3omIzEwOyYjOTsgTTIyMi42MDksMTM5LjEzdjMzLjM5MWgtNjYuNzgzVjEzOS4xM0gyMjIuNjA5eiBNMTU1LjgyNiwzMDYuMDg3di0zMy4zOTFoNjYuNzgzdjMzLjM5MUgxNTUuODI2eiIgc3R5bGU9ImZpbGw6I0VERjBGMjsiLz4mI3hhOzxwb2x5Z29uIHBvaW50cz0iMTg5LjIxNywxMzkuMTMgMjIyLjYwOSwxMzkuMTMgMjIyLjYwOSwxNzIuNTIyIDE4OS4yMTcsMTcyLjUyMiAxODkuMjE3LDIwNS45MTMgJiMxMDsmIzk7MjIyLjYwOSwyMDUuOTEzIDIyMi42MDksMjM5LjMwNCAxODkuMjE3LDIzOS4zMDQgMTg5LjIxNywyNzIuNjk2IDIyMi42MDksMjcyLjY5NiAyMjIuNjA5LDMwNi4wODcgMTg5LjIxNywzMDYuMDg3ICYjMTA7JiM5OzE4OS4yMTcsMzM5LjQ3OCAyNTYsMzM5LjQ3OCAyNTYsMTA1LjczOSAxODkuMjE3LDEwNS43MzkiIHN0eWxlPSJmaWxsOiNEQUUxRTY7Ii8+JiN4YTs8cGF0aCBkPSJNNDA2LjI2MSw3Mi4zNDhIMjM5LjMwNGMtOS4yMjMsMC0xNi42OTYtNy40NzMtMTYuNjk2LTE2LjY5NnM3LjQ3My0xNi42OTYsMTYuNjk2LTE2LjY5NmgxNjYuOTU3JiMxMDsmIzk7YzkuMjIzLDAsMTYuNjk2LDcuNDczLDE2LjY5NiwxNi42OTZTNDE1LjQ4NCw3Mi4zNDgsNDA2LjI2MSw3Mi4zNDh6IiBzdHlsZT0iZmlsbDojRkY5RjE5OyIvPiYjeGE7PHBhdGggZD0iTTQwNi4yNjEsMzguOTU3aC04My40Nzh2MzMuMzkxaDgzLjQ3OGM5LjIyMywwLDE2LjY5Ni03LjQ3MywxNi42OTYtMTYuNjk2JiMxMDsmIzk7UzQxNS40ODQsMzguOTU3LDQwNi4yNjEsMzguOTU3eiIgc3R5bGU9ImZpbGw6I0YyODYxODsiLz4mI3hhOzxwYXRoIGQ9Ik00NzguNjA5LDQwNi4yNjFIMzMuMzkxQzE0Ljk0OSw0MDYuMjYxLDAsMzkxLjMxMiwwLDM3Mi44N2wwLDAmIzEwOyYjOTtjMC0xOC40NDIsMTQuOTQ5LTMzLjM5MSwzMy4zOTEtMzMuMzkxaDQ0NS4yMTdjMTguNDQyLDAsMzMuMzkxLDE0Ljk0OSwzMy4zOTEsMzMuMzkxbDAsMCYjMTA7JiM5O0M1MTIsMzkxLjMxMiw0OTcuMDUxLDQwNi4yNjEsNDc4LjYwOSw0MDYuMjYxeiIgc3R5bGU9ImZpbGw6I0E2NjczQTsiLz4mI3hhOzxwYXRoIGQ9Ik00NzguNjA5LDMzOS40NzhIMjU2djY2Ljc4M2gyMjIuNjA5YzE4LjQ0MiwwLDMzLjM5MS0xNC45NDksMzMuMzkxLTMzLjM5MSYjMTA7JiM5O1M0OTcuMDUxLDMzOS40NzgsNDc4LjYwOSwzMzkuNDc4eiIgc3R5bGU9ImZpbGw6Izk5NTIyRTsiLz4mI3hhOzxwYXRoIGQ9Ik0zOTUuMTMsNDczLjA0M2MtMjcuNjE5LDAtNTAuMDg3LTIyLjQ2OC01MC4wODctNTAuMDg3YzAtMjcuNjE5LDIyLjQ2OC01MC4wODcsNTAuMDg3LTUwLjA4NyYjMTA7JiM5O2MyNy42MTksMCw1MC4wODcsMjIuNDY4LDUwLjA4Nyw1MC4wODdDNDQ1LjIxNyw0NTAuNTc2LDQyMi43NDksNDczLjA0MywzOTUuMTMsNDczLjA0M3oiIHN0eWxlPSJmaWxsOiM3MzYwNTY7Ii8+JiN4YTs8cGF0aCBkPSJNNDQ1LjIxNyw0MjIuOTU3YzAtMjcuNjE5LTIyLjQ2OC01MC4wODctNTAuMDg3LTUwLjA4N3YxMDAuMTc0JiMxMDsmIzk7QzQyMi43NDksNDczLjA0Myw0NDUuMjE3LDQ1MC41NzYsNDQ1LjIxNyw0MjIuOTU3eiIgc3R5bGU9ImZpbGw6IzY2NTI0NzsiLz4mI3hhOzxwYXRoIGQ9Ik0zOTUuMTMsNDA2LjI2MWMtOS4yMDYsMC0xNi42OTYsNy40OS0xNi42OTYsMTYuNjk2YzAsOS4yMDYsNy40OSwxNi42OTYsMTYuNjk2LDE2LjY5NiYjMTA7JiM5O2M5LjIwNiwwLDE2LjY5Ni03LjQ5LDE2LjY5Ni0xNi42OTZDNDExLjgyNiw0MTMuNzUxLDQwNC4zMzYsNDA2LjI2MSwzOTUuMTMsNDA2LjI2MXoiIHN0eWxlPSJmaWxsOiNEN0VCRkY7Ii8+JiN4YTs8cGF0aCBkPSJNNDExLjgyNiw0MjIuOTU3YzAtOS4yMDYtNy40OS0xNi42OTYtMTYuNjk2LTE2LjY5NnYzMy4zOTEmIzEwOyYjOTtDNDA0LjMzNiw0MzkuNjUyLDQxMS44MjYsNDMyLjE2Miw0MTEuODI2LDQyMi45NTd6IiBzdHlsZT0iZmlsbDojQkRERUZGOyIvPiYjeGE7PHBhdGggZD0iTTExNi44Nyw0NzMuMDQzYy0yNy42MTksMC01MC4wODctMjIuNDY4LTUwLjA4Ny01MC4wODdjMC0yNy42MTksMjIuNDY4LTUwLjA4Nyw1MC4wODctNTAuMDg3JiMxMDsmIzk7czUwLjA4NywyMi40NjgsNTAuMDg3LDUwLjA4N0MxNjYuOTU3LDQ1MC41NzYsMTQ0LjQ4OSw0NzMuMDQzLDExNi44Nyw0NzMuMDQzeiIgc3R5bGU9ImZpbGw6IzczNjA1NjsiLz4mI3hhOzxwYXRoIGQ9Ik0xNjYuOTU3LDQyMi45NTdjMC0yNy42MTktMjIuNDY4LTUwLjA4Ny01MC4wODctNTAuMDg3djEwMC4xNzQmIzEwOyYjOTtDMTQ0LjQ4OSw0NzMuMDQzLDE2Ni45NTcsNDUwLjU3NiwxNjYuOTU3LDQyMi45NTd6IiBzdHlsZT0iZmlsbDojNjY1MjQ3OyIvPiYjeGE7PHBhdGggZD0iTTExNi44Nyw0MDYuMjYxYy05LjIwNiwwLTE2LjY5Niw3LjQ5LTE2LjY5NiwxNi42OTZjMCw5LjIwNiw3LjQ5LDE2LjY5NiwxNi42OTYsMTYuNjk2JiMxMDsmIzk7czE2LjY5Ni03LjQ5LDE2LjY5Ni0xNi42OTZDMTMzLjU2NSw0MTMuNzUxLDEyNi4wNzYsNDA2LjI2MSwxMTYuODcsNDA2LjI2MXoiIHN0eWxlPSJmaWxsOiNEN0VCRkY7Ii8+JiN4YTs8cGF0aCBkPSJNMTMzLjU2NSw0MjIuOTU3YzAtOS4yMDYtNy40OS0xNi42OTYtMTYuNjk2LTE2LjY5NnYzMy4zOTEmIzEwOyYjOTtDMTI2LjA3Niw0MzkuNjUyLDEzMy41NjUsNDMyLjE2MiwxMzMuNTY1LDQyMi45NTd6IiBzdHlsZT0iZmlsbDojQkRERUZGOyIvPiYjeGE7PC9zdmc+;" parent="1" vertex="1">
          <mxGeometry x="589.5" y="429" width="25" height="25" as="geometry" />
        </mxCell>
        <mxCell id="MuEgCA0l2RGkUJCn2qk8-46" value="" style="shape=image;verticalLabelPosition=bottom;labelBackgroundColor=default;verticalAlign=top;aspect=fixed;imageAspect=0;image=data:image/svg+xml,PHN2ZyB4bWxuczp4bGluaz0iaHR0cDovL3d3dy53My5vcmcvMTk5OS94bGluayIgeG1sbnM9Imh0dHA6Ly93d3cudzMub3JnLzIwMDAvc3ZnIiB4bWw6c3BhY2U9InByZXNlcnZlIiB2aWV3Qm94PSIwIDAgMzIgMzIiIGhlaWdodD0iODAwcHgiIHdpZHRoPSI4MDBweCIgaWQ9IlVwbG9hZGVkIHRvIHN2Z3JlcG8uY29tIiB2ZXJzaW9uPSIxLjEiPiYjeGE7PHN0eWxlIHR5cGU9InRleHQvY3NzIj4mI3hhOwkuaXNvbWV0cmljX3ZpamZ7ZmlsbDojRjI5MjI3O30mI3hhOwkuaXNvbWV0cmljX2FjaHR7ZmlsbDojRjA1QTI4O30mI3hhOwkuaXNvbWV0cmljX3RpZW57ZmlsbDojN0JENkM0O30mI3hhOwkuaXNvbWV0cmljX2VsZntmaWxsOiM3MkMwQUI7fSYjeGE7CS5pc29tZXRyaWNfdHdhYWxme2ZpbGw6IzU2OTA4MDt9JiN4YTsJLnN0MHtmaWxsOiMyMjVCNDk7fSYjeGE7CS5zdDF7ZmlsbDojRkY3MzQ0O30mI3hhOwkuc3Qye2ZpbGw6I0JFMUUyRDt9JiN4YTsJLnN0M3tmaWxsOiNGNURGODk7fSYjeGE7CS5zdDR7ZmlsbDojRjJENzZDO30mI3hhOwkuc3Q1e2ZpbGw6I0YyODEwMzt9JiN4YTsJLnN0NntmaWxsOiNGOEY3QzU7fSYjeGE7CS5zdDd7ZmlsbDojQUQ5QTc0O30mI3hhOwkuc3Q4e2ZpbGw6IzdCRDZDNDt9JiN4YTs8L3N0eWxlPiYjeGE7PGc+JiN4YTsJPHBhdGggZD0iTTE1Ljg3OCwyNi42NzRjLTMuNDUyLDAtNS44NzgtMS4zOTktNS44NzgtMy4xMjVjMCwwLjIyOCwwLDEuMDk5LDAsMS4zMjYmIzEwOyYjOTsmIzk7QzEwLDI2LjYwMSwxMi40MjYsMjgsMTUuODc4LDI4UzIyLDI2LjYwMSwyMiwyNC44NzVjMC0wLjIyOCwwLTEuMDk5LDAtMS4zMjZDMjIsMjUuMjc1LDE5LjMzLDI2LjY3NCwxNS44NzgsMjYuNjc0eiIgY2xhc3M9Imlzb21ldHJpY190d2FhbGYiLz4mI3hhOwk8cGF0aCBkPSJNMTcuNDcxLDIwLjUzbC0wLjE3MiwwLjIxM2wtMC4wMDIsMi4xMTFjMC4wMDUsMC4yMTMtMC4xMjksMC40MjYtMC40MSwwLjU4OCYjMTA7JiM5OyYjOTtjLTAuNTUzLDAuMzE5LTEuNDUyLDAuMzE4LTIuMDA4LTAuMDA0Yy0wLjMwNi0wLjE3Ny0wLjQ0Ny0wLjQxMi0wLjQxOC0wLjY0MmMtMC4wMDYtMC4wMjEtMC4wMDYtMS4wNzgtMC4wMDQtMmwtMC4yMDMtMC4yNjImIzEwOyYjOTsmIzk7QzExLjU5MSwyMC44OTIsMTAsMjIuMTA0LDEwLDIzLjU0OWMwLDEuNzI2LDIuNDI2LDMuMTI1LDUuODc4LDMuMTI1UzIyLDI1LjI3NSwyMiwyMy41NDlDMjIsMjIuMDk5LDIwLjE0OSwyMC44ODMsMTcuNDcxLDIwLjUzeiIgY2xhc3M9Imlzb21ldHJpY19lbGYiLz4mI3hhOwk8cGF0aCBkPSJNMTYsNEMxMC40NzcsNCw2LDYuMjI0LDYsOC45ODZjMCwwLjc4NSwwLjM3MiwxLjUyNiwxLjAxOCwyLjE4N2w3LjQzOSw5LjYyNGMwLDAtMC4wMDYsMS45NzksMCwyJiMxMDsmIzk7JiM5O2MtMC4wMjksMC4yMywwLjExNiwwLjQ2NiwwLjQyMiwwLjY0MmMwLjU1NiwwLjMyMSwxLjQ1NSwwLjMyMywyLjAwOCwwLjAwNGMwLjI4MS0wLjE2MiwwLjQxNS0wLjM3NSwwLjQxLTAuNTg4bDAuMDAyLTIuMTExJiMxMDsmIzk7JiM5O2w3Ljc5OC05LjY2YzAuMDE1LTAuMDIsMC4wMTUtMC4wMzcsMC4wMjctMC4wNTdDMjUuNjgyLDEwLjQwMywyNiw5LjcxMywyNiw4Ljk4NkMyNiw2LjIyNCwyMS41MjMsNCwxNiw0eiBNMjIuODA3LDExLjQ3JiMxMDsmIzk7JiM5O2MtMS40NTcsMC45NjItMy44NiwxLjY4Mi02LjgwNywxLjY4MnMtNS4zNS0wLjcyMS02LjgwNy0xLjY4MmMtMC45NzEtMC42NDEtMS41MjctMS4zODktMS41MjctMi4xMDUmIzEwOyYjOTsmIzk7YzAtMS43OTEsMy40MjItMy43ODgsOC4zMzMtMy43ODhzOC4zMzMsMS45OTYsOC4zMzMsMy43ODhDMjQuMzMzLDEwLjA4MSwyMy43NzgsMTAuODI4LDIyLjgwNywxMS40N3oiIGNsYXNzPSJpc29tZXRyaWNfdGllbiIvPiYjeGE7CTxwYXRoIGQ9Ik0xNiw1LjU3N2MtNC45MTEsMC04LjMzMywxLjk5Ni04LjMzMywzLjc4OGMwLDAuNzE3LDAuNTU1LDEuNDY0LDEuNTI3LDIuMTA1JiMxMDsmIzk7JiM5O2MxLjQ1Ny0wLjk2MiwzLjg2LTEuNjgyLDYuODA3LTEuNjgyczUuMzUsMC43MjEsNi44MDcsMS42ODJjMC45NzEtMC42NDEsMS41MjctMS4zODksMS41MjctMi4xMDUmIzEwOyYjOTsmIzk7QzI0LjMzMyw3LjU3MywyMC45MTEsNS41NzcsMTYsNS41Nzd6IiBjbGFzcz0iaXNvbWV0cmljX2VsZiIvPiYjeGE7CTxwYXRoIGQ9Ik05LjE5MywxMS40N2MxLjQ1NywwLjk2MiwzLjg2LDEuNjgyLDYuODA3LDEuNjgyczUuMzUtMC43MjEsNi44MDctMS42ODImIzEwOyYjOTsmIzk7QzIxLjM1LDEwLjUwOCwxOC45NDYsOS43ODcsMTYsOS43ODdTMTAuNjUsMTAuNTA4LDkuMTkzLDExLjQ3eiIgY2xhc3M9Imlzb21ldHJpY19hY2h0Ii8+JiN4YTsJPHBhdGggZD0iTTExLjczNywxNS4xOTNsMi43OTksMy42MjFjMC42NTgsMC44NTIsMS45MzksMC44NjUsMi42MTYsMC4wMjhsMi45MDUtMy41OTkmIzEwOyYjOTsmIzk7Yy0xLjE5OSwwLjI4NS0yLjU2MiwwLjQ1Ny00LjA1NiwwLjQ1N0MxNC40MTksMTUuNzAxLDEyLjk4NCwxNS41MDksMTEuNzM3LDE1LjE5M3oiIGNsYXNzPSJpc29tZXRyaWNfdmlqZiIvPiYjeGE7PC9nPiYjeGE7PC9zdmc+;" parent="1" vertex="1">
          <mxGeometry x="694.5" y="429" width="25" height="25" as="geometry" />
        </mxCell>
        <mxCell id="MuEgCA0l2RGkUJCn2qk8-47" value="" style="shape=image;verticalLabelPosition=bottom;labelBackgroundColor=default;verticalAlign=top;aspect=fixed;imageAspect=0;image=data:image/svg+xml,PHN2ZyB4bWxuczp4bGluaz0iaHR0cDovL3d3dy53My5vcmcvMTk5OS94bGluayIgeG1sbnM9Imh0dHA6Ly93d3cudzMub3JnLzIwMDAvc3ZnIiB4bWw6c3BhY2U9InByZXNlcnZlIiB2aWV3Qm94PSIwIDAgNDkxLjUyIDQ5MS41MiIgaWQ9IkxheWVyXzEiIHZlcnNpb249IjEuMSI+JiN4YTs8ZWxsaXBzZSByeT0iMTI5Ljc3NyIgcng9IjEyOS43NzciIGN5PSIxNTguNTM2IiBjeD0iMTU4LjUzNyIgc3R5bGU9Im9wYWNpdHk6MC41O2ZpbGw6IzI3QTJEQjtlbmFibGUtYmFja2dyb3VuZDpuZXcgICAgOyIvPiYjeGE7PHBhdGggZD0iTTk4LjA4MSwyMzQuNjJjLTQzLjMxNi00My4zMTUtNDMuODgyLTExMi45NzktMS4yNjQtMTU1LjU5NSYjMTA7JiM5O2M5LjUwOS05LjUxMSwyMC40MS0xNi43NDUsMzIuMDIxLTIxLjk2Yy0xNi40OTcsNC44MTItMzIuMDU2LDEzLjcwMi00NS4wNjQsMjYuNzFjLTQxLjI4OCw0MS4yODktNDEuMjg5LDEwOC4yMzEsMCwxNDkuNTIxJiMxMDsmIzk7YzE4LjI4MiwxOC4yODEsNDEuNTk2LDI4LjQzMSw2NS40ODMsMzAuNTIzQzEzMC41NjEsMjU4Ljk4NiwxMTIuNzksMjQ5LjMzLDk4LjA4MSwyMzQuNjJ6IiBzdHlsZT0ib3BhY2l0eTowLjU7ZmlsbDojRkZGRkZGO2VuYWJsZS1iYWNrZ3JvdW5kOm5ldyAgICA7Ii8+JiN4YTs8cGF0aCBkPSJNMjcwLjYzNiw0Ni40MzNjLTYxLjkxMi02MS45MTItMTYyLjI5MS02MS45MTEtMjI0LjIwMiwwLjAwMXMtNjEuOTEyLDE2Mi4yOTEtMC4wMDEsMjI0LjIwMiYjMTA7JiM5O2M1Ny4wNTQsNTcuMDU0LDE0Ni43MDMsNjEuMzk0LDIwOC44ODQsMTMuMjk0bDE0LjE4LDE0LjE4MmwyOC42MTUtMjguNjEzbC0xNC4xODItMTQuMTgyJiMxMDsmIzk7QzMzMi4wMjksMTkzLjEzNywzMjcuNjksMTAzLjQ4NywyNzAuNjM2LDQ2LjQzM3ogTTI1MC4zMDEsMjUwLjMwMmMtNTAuNjgxLDUwLjY4MS0xMzIuODUyLDUwLjY4MS0xODMuNTM0LDAmIzEwOyYjOTtjLTUwLjY4LTUwLjY4MS01MC42OC0xMzIuODUyLDAuMDAyLTE4My41MzNzMTMyLjg1LTUwLjY4MSwxODMuNTMxLDBDMzAwLjk4MiwxMTcuNDUsMzAwLjk4MiwxOTkuNjIxLDI1MC4zMDEsMjUwLjMwMnoiIHN0eWxlPSJmaWxsOiMzQTU1NkE7Ii8+JiN4YTs8cGF0aCBkPSJNMzA1LjgyMywyNTguODY1bC00Ni45NTksNDYuOTU4Yy0yLjY2OSwyLjY3LTIuNjY5LDYuOTk2LDAsOS42NjVsMTc0LjMzOSwxNzQuMzM4JiMxMDsmIzk7YzEyLjEzMiwxMi4xMzMsNjguNzU1LTQ0LjQ5LDU2LjYyMy01Ni42MjNMMzE1LjQ4OCwyNTguODY1QzMxMi44MTksMjU2LjE5NiwzMDguNDkzLDI1Ni4xOTYsMzA1LjgyMywyNTguODY1eiIgc3R5bGU9ImZpbGw6I0U1NjM1MzsiLz4mI3hhOzxnPiYjeGE7CSYjeGE7CQk8cmVjdCBoZWlnaHQ9IjEzLjU5NCIgd2lkdGg9IjgwLjA3NyIgc3R5bGU9ImZpbGw6I0VCRjBGMzsiIHRyYW5zZm9ybT0ibWF0cml4KC0wLjcwNzEgMC43MDcxIC0wLjcwNzEgLTAuNzA3MSAxMDg0Ljk5NTEgNDQ5LjQyOTQpIiB5PSI0NDIuNjI4IiB4PSI0MDkuMzc5Ii8+JiN4YTsJJiN4YTsJCTxyZWN0IGhlaWdodD0iMTMuNTk0IiB3aWR0aD0iODAuMDc3IiBzdHlsZT0iZmlsbDojRUJGMEYzOyIgdHJhbnNmb3JtPSJtYXRyaXgoLTAuNzA3MSAwLjcwNzEgLTAuNzA3MSAtMC43MDcxIDcyNS45NjA2IDMwMC42NjgzKSIgeT0iMjkzLjg4OSIgeD0iMjYwLjY3MSIvPiYjeGE7PC9nPiYjeGE7PC9zdmc+;" parent="1" vertex="1">
          <mxGeometry x="789.5" y="429" width="25" height="25" as="geometry" />
        </mxCell>
        <mxCell id="MuEgCA0l2RGkUJCn2qk8-53" value="" style="shape=curlyBracket;whiteSpace=wrap;html=1;rounded=1;flipH=1;labelPosition=right;verticalLabelPosition=middle;align=left;verticalAlign=middle;sketch=1;curveFitting=1;jiggle=2;" parent="1" vertex="1">
          <mxGeometry x="434.5" y="424" width="20" height="60" as="geometry" />
        </mxCell>
        <mxCell id="MuEgCA0l2RGkUJCn2qk8-63" style="edgeStyle=orthogonalEdgeStyle;rounded=0;orthogonalLoop=1;jettySize=auto;html=1;entryX=1;entryY=0.5;entryDx=0;entryDy=0;sketch=1;curveFitting=1;jiggle=2;" parent="1" source="bI64YxjgBMgg3WLyLpZt-8" target="MuEgCA0l2RGkUJCn2qk8-3" edge="1">
          <mxGeometry relative="1" as="geometry" />
        </mxCell>
        <mxCell id="bI64YxjgBMgg3WLyLpZt-10" style="edgeStyle=orthogonalEdgeStyle;rounded=0;orthogonalLoop=1;jettySize=auto;html=1;entryX=0.5;entryY=1;entryDx=0;entryDy=0;sketch=1;curveFitting=1;jiggle=2;endArrow=none;endFill=0;" parent="1" source="MuEgCA0l2RGkUJCn2qk8-55" target="bI64YxjgBMgg3WLyLpZt-8" edge="1">
          <mxGeometry relative="1" as="geometry" />
        </mxCell>
        <mxCell id="MuEgCA0l2RGkUJCn2qk8-55" value="" style="shape=image;verticalLabelPosition=bottom;labelBackgroundColor=default;verticalAlign=top;aspect=fixed;imageAspect=0;image=data:image/svg+xml,PHN2ZyB4bWxuczp4bGluaz0iaHR0cDovL3d3dy53My5vcmcvMTk5OS94bGluayIgeG1sbnM9Imh0dHA6Ly93d3cudzMub3JnLzIwMDAvc3ZnIiB4bWw6c3BhY2U9InByZXNlcnZlIiB2aWV3Qm94PSIwIDAgNTEyIDUxMiIgaWQ9IkxheWVyXzEiIHZlcnNpb249IjEuMSIgd2lkdGg9IjgwMHB4IiBoZWlnaHQ9IjgwMHB4Ij4mI3hhOzxwYXRoIGQ9Ik00OTkuNzI1LDE2My42MDdMMjYwLjc5MiwxLjQ3M2MtMi44OTMtMS45NjMtNi42OS0xLjk2NC05LjU4MywwTDEyLjI3NSwxNjMuNjA3JiMxMDsmIzk7Yy0yLjM0LDEuNTg3LTMuNzQyLDQuMjMxLTMuNzQyLDcuMDZ2MzMyLjhjMCw0LjcxMywzLjgyMSw4LjUzMyw4LjUzMyw4LjUzM2g0NzcuODY3YzQuNzEzLDAsOC41MzMtMy44MjEsOC41MzMtOC41MzN2LTMzMi44JiMxMDsmIzk7QzUwMy40NjcsMTY3LjgzOCw1MDIuMDY2LDE2NS4xOTQsNDk5LjcyNSwxNjMuNjA3eiIgc3R5bGU9ImZpbGw6I0YwN0I1MjsiLz4mI3hhOzxwYXRoIGQ9Ik0zNC4xMzQsNTAzLjQ2N3YtMzMyLjhjMC0yLjgyOSwxLjQwMi01LjQ3MywzLjc0Mi03LjA2MUwyNjguOCw2LjkwN2wtOC4wMDktNS40MzUmIzEwOyYjOTtjLTIuODkzLTEuOTYzLTYuNjktMS45NjQtOS41ODMsMEwxMi4yNzUsMTYzLjYwNmMtMi4zNCwxLjU4OC0zLjc0Miw0LjIzMy0zLjc0Miw3LjA2MXYzMzIuOGMwLDQuNzEzLDMuODIxLDguNTMzLDguNTMzLDguNTMzaDI1LjYmIzEwOyYjOTtDMzcuOTU0LDUxMiwzNC4xMzQsNTA4LjE4MSwzNC4xMzQsNTAzLjQ2N3oiIHN0eWxlPSJmaWxsOiNFNTU2M0M7Ii8+JiN4YTs8cGF0aCBkPSJNNDA5LjYsMjA0LjhIMTAyLjRjLTQuNzEzLDAtOC41MzMsMy44MjEtOC41MzMsOC41MzN2MjkwLjEzM2MwLDQuNzEzLDMuODIxLDguNTMzLDguNTMzLDguNTMzaDMwNy4yJiMxMDsmIzk7YzQuNzEzLDAsOC41MzMtMy44MjEsOC41MzMtOC41MzNWMjEzLjMzNEM0MTguMTM0LDIwOC42MjEsNDE0LjMxMywyMDQuOCw0MDkuNiwyMDQuOHoiIHN0eWxlPSJmaWxsOiM3NDc1N0I7Ii8+JiN4YTs8cGF0aCBkPSJNMTAyLjQsMjA0LjhjLTQuNzEzLDAtOC41MzMsMy44MjEtOC41MzMsOC41MzN2MjkwLjEzM2MwLDQuNzEzLDMuODIxLDguNTMzLDguNTMzLDguNTMzaDE3LjA2NyYjMTA7JiM5O1YyMDQuOEgxMDIuNHoiIHN0eWxlPSJmaWxsOiM2MDYyNjg7Ii8+JiN4YTs8cGF0aCBkPSJNNDI2LjY2NywxNzAuNjY3SDg1LjMzNGMtNC43MTMsMC04LjUzMywzLjgyMS04LjUzMyw4LjUzM3YzNC4xMzNjMCw0LjcxMywzLjgyMSw4LjUzMyw4LjUzMyw4LjUzMyYjMTA7JiM5O2gzNDEuMzMzYzQuNzEzLDAsOC41MzMtMy44MjEsOC41MzMtOC41MzNWMTc5LjJDNDM1LjIsMTc0LjQ4OCw0MzEuMzc5LDE3MC42NjcsNDI2LjY2NywxNzAuNjY3eiIgc3R5bGU9ImZpbGw6I0MzQzRDNjsiLz4mI3hhOzxwYXRoIGQ9Ik00MjYuNjY3LDIwNC44SDg1LjMzNGMtNC43MTMsMC04LjUzMy0zLjgyMS04LjUzMy04LjUzM3YxNy4wNjdjMCw0LjcxMywzLjgyMSw4LjUzMyw4LjUzMyw4LjUzMyYjMTA7JiM5O2gzNDEuMzMzYzQuNzEzLDAsOC41MzMtMy44MjEsOC41MzMtOC41MzN2LTE3LjA2N0M0MzUuMiwyMDAuOTgxLDQzMS4zNzksMjA0LjgsNDI2LjY2NywyMDQuOHoiIHN0eWxlPSJmaWxsOiNBRkIwQjQ7Ii8+JiN4YTs8Zz4mI3hhOwk8cGF0aCBkPSJNMjkwLjEzNCw3Ni44aC02OC4yNjdjLTQuNzEzLDAtOC41MzMtMy44MjEtOC41MzMtOC41MzNjMC00LjcxMywzLjgyMS04LjUzMyw4LjUzMy04LjUzM2g2OC4yNjcmIzEwOyYjOTsmIzk7YzQuNzEzLDAsOC41MzMsMy44MjEsOC41MzMsOC41MzNDMjk4LjY2Nyw3Mi45OCwyOTQuODQ2LDc2LjgsMjkwLjEzNCw3Ni44eiIgc3R5bGU9ImZpbGw6I0U1NTYzQzsiLz4mI3hhOwk8cGF0aCBkPSJNMjkwLjEzNCwxMTAuOTM0aC02OC4yNjdjLTQuNzEzLDAtOC41MzMtMy44MjEtOC41MzMtOC41MzNzMy44MjEtOC41MzMsOC41MzMtOC41MzNoNjguMjY3JiMxMDsmIzk7JiM5O2M0LjcxMywwLDguNTMzLDMuODIxLDguNTMzLDguNTMzUzI5NC44NDYsMTEwLjkzNCwyOTAuMTM0LDExMC45MzR6IiBzdHlsZT0iZmlsbDojRTU1NjNDOyIvPiYjeGE7CTxwYXRoIGQ9Ik0yOTAuMTM0LDE0NS4wNjdoLTY4LjI2N2MtNC43MTMsMC04LjUzMy0zLjgyMS04LjUzMy04LjUzM2MwLTQuNzEzLDMuODIxLTguNTMzLDguNTMzLTguNTMzaDY4LjI2NyYjMTA7JiM5OyYjOTtjNC43MTMsMCw4LjUzMywzLjgyMSw4LjUzMyw4LjUzM0MyOTguNjY3LDE0MS4yNDYsMjk0Ljg0NiwxNDUuMDY3LDI5MC4xMzQsMTQ1LjA2N3oiIHN0eWxlPSJmaWxsOiNFNTU2M0M7Ii8+JiN4YTs8L2c+JiN4YTs8Zz4mI3hhOwk8cGF0aCBkPSJNMjA0LjgsMjczLjA2N0gxMDIuNGMtNC43MTMsMC04LjUzMywzLjgyMS04LjUzMyw4LjUzM1YzODRjMCw0LjcxMywzLjgyMSw4LjUzMyw4LjUzMyw4LjUzMyYjMTA7JiM5OyYjOTtsNTEuMiw4LjUzM2w1MS4yLTguNTMzYzQuNzEzLDAsOC41MzMtMy44MjEsOC41MzMtOC41MzNWMjgxLjZDMjEzLjMzNCwyNzYuODg4LDIwOS41MTQsMjczLjA2NywyMDQuOCwyNzMuMDY3eiIgc3R5bGU9ImZpbGw6I0ZEREQ4NTsiLz4mI3hhOwk8cGF0aCBkPSJNMjA0LjgsMzkyLjUzNEgxMDIuNGMtNC43MTMsMC04LjUzMywzLjgyMS04LjUzMyw4LjUzM3YxMDIuNGMwLDQuNzEzLDMuODIxLDguNTMzLDguNTMzLDguNTMzJiMxMDsmIzk7JiM5O2gxMDIuNGM0LjcxMywwLDguNTMzLTMuODIxLDguNTMzLTguNTMzdi0xMDIuNEMyMTMuMzM0LDM5Ni4zNTUsMjA5LjUxNCwzOTIuNTM0LDIwNC44LDM5Mi41MzR6IiBzdHlsZT0iZmlsbDojRkRERDg1OyIvPiYjeGE7PC9nPiYjeGE7PHBhdGggZD0iTTExMC45MzQsNTAzLjQ2N3YtMTAyLjRjMC00LjcxMywzLjgyMS04LjUzMyw4LjUzMy04LjUzM0gxMDIuNGMtNC43MTMsMC04LjUzMywzLjgyMS04LjUzMyw4LjUzMyYjMTA7JiM5O3YxMDIuNGMwLDQuNzEzLDMuODIxLDguNTMzLDguNTMzLDguNTMzaDE3LjA2N0MxMTQuNzU0LDUxMiwxMTAuOTM0LDUwOC4xODEsMTEwLjkzNCw1MDMuNDY3eiIgc3R5bGU9ImZpbGw6I0ZERDA0MjsiLz4mI3hhOzxwYXRoIGQ9Ik0xNzAuNjY3LDM5Mi41MzRoLTM0LjEzM1Y0MzUuMmMwLDQuNzEzLDMuODIxLDguNTMzLDguNTMzLDguNTMzaDE3LjA2NyYjMTA7JiM5O2M0LjcxMywwLDguNTMzLTMuODIxLDguNTMzLTguNTMzVjM5Mi41MzR6IiBzdHlsZT0iZmlsbDojRjJDMTI3OyIvPiYjeGE7PHBhdGggZD0iTTE3MC42NjcsNDk0LjkzNGgtMzQuMTMzYy00LjcxMywwLTguNTMzLTMuODIxLTguNTMzLTguNTMzczMuODIxLTguNTMzLDguNTMzLTguNTMzaDM0LjEzMyYjMTA7JiM5O2M0LjcxMywwLDguNTMzLDMuODIxLDguNTMzLDguNTMzUzE3NS4zOCw0OTQuOTM0LDE3MC42NjcsNDk0LjkzNHoiIHN0eWxlPSJmaWxsOiM3NDc1N0I7Ii8+JiN4YTs8cGF0aCBkPSJNMTEwLjkzNCwzODRWMjgxLjZjMC00LjcxMywzLjgyMS04LjUzMyw4LjUzMy04LjUzM0gxMDIuNGMtNC43MTMsMC04LjUzMywzLjgyMS04LjUzMyw4LjUzM1YzODQmIzEwOyYjOTtjMCw0LjcxMywzLjgyMSw4LjUzMyw4LjUzMyw4LjUzM2gxNy4wNjdDMTE0Ljc1NCwzOTIuNTM0LDExMC45MzQsMzg4LjcxNCwxMTAuOTM0LDM4NHoiIHN0eWxlPSJmaWxsOiNGREQwNDI7Ii8+JiN4YTs8cGF0aCBkPSJNMTcwLjY2NywyNzMuMDY3aC0zNC4xMzN2NDIuNjY3YzAsNC43MTMsMy44MjEsOC41MzMsOC41MzMsOC41MzNoMTcuMDY3JiMxMDsmIzk7YzQuNzEzLDAsOC41MzMtMy44MjEsOC41MzMtOC41MzNWMjczLjA2N3oiIHN0eWxlPSJmaWxsOiNGMkMxMjc7Ii8+JiN4YTs8cGF0aCBkPSJNMTcwLjY2NywzNzUuNDY3aC0zNC4xMzNjLTQuNzEzLDAtOC41MzMtMy44MjEtOC41MzMtOC41MzNzMy44MjEtOC41MzMsOC41MzMtOC41MzNoMzQuMTMzJiMxMDsmIzk7YzQuNzEzLDAsOC41MzMsMy44MjEsOC41MzMsOC41MzNTMTc1LjM4LDM3NS40NjcsMTcwLjY2NywzNzUuNDY3eiIgc3R5bGU9ImZpbGw6Izc0NzU3QjsiLz4mI3hhOzxwYXRoIGQ9Ik0zMjQuMjY3LDM5Mi41MzRoLTEwMi40Yy00LjcxMywwLTguNTMzLDMuODIxLTguNTMzLDguNTMzdjEwMi40YzAsNC43MTMsMy44MjEsOC41MzMsOC41MzMsOC41MzMmIzEwOyYjOTtoMTAyLjRjNC43MTMsMCw4LjUzMy0zLjgyMSw4LjUzMy04LjUzM3YtMTAyLjRDMzMyLjgsMzk2LjM1NSwzMjguOTgsMzkyLjUzNCwzMjQuMjY3LDM5Mi41MzR6IiBzdHlsZT0iZmlsbDojRkRERDg1OyIvPiYjeGE7PHBhdGggZD0iTTIzMC40LDUwMy40Njd2LTEwMi40YzAtNC43MTMsMy44MjEtOC41MzMsOC41MzMtOC41MzNoLTE3LjA2N2MtNC43MTMsMC04LjUzMywzLjgyMS04LjUzMyw4LjUzMyYjMTA7JiM5O3YxMDIuNGMwLDQuNzEzLDMuODIxLDguNTMzLDguNTMzLDguNTMzaDE3LjA2N0MyMzQuMjIxLDUxMiwyMzAuNCw1MDguMTgxLDIzMC40LDUwMy40Njd6IiBzdHlsZT0iZmlsbDojRkREMDQyOyIvPiYjeGE7PHBhdGggZD0iTTI5MC4xMzQsMzkyLjUzNEgyNTZWNDM1LjJjMCw0LjcxMywzLjgyMSw4LjUzMyw4LjUzMyw4LjUzM0gyODEuNmM0LjcxMywwLDguNTMzLTMuODIxLDguNTMzLTguNTMzJiMxMDsmIzk7VjM5Mi41MzR6IiBzdHlsZT0iZmlsbDojRjJDMTI3OyIvPiYjeGE7PHBhdGggZD0iTTI5MC4xMzQsNDk0LjkzNEgyNTZjLTQuNzEzLDAtOC41MzMtMy44MjEtOC41MzMtOC41MzNzMy44MjEtOC41MzMsOC41MzMtOC41MzNoMzQuMTMzJiMxMDsmIzk7YzQuNzEzLDAsOC41MzMsMy44MjEsOC41MzMsOC41MzNTMjk0Ljg0Niw0OTQuOTM0LDI5MC4xMzQsNDk0LjkzNHoiIHN0eWxlPSJmaWxsOiM3NDc1N0I7Ii8+JiN4YTs8L3N2Zz4=;" parent="1" vertex="1">
          <mxGeometry x="487" y="209" width="50" height="50" as="geometry" />
        </mxCell>
        <mxCell id="MuEgCA0l2RGkUJCn2qk8-57" value="&lt;font face=&quot;Tahoma&quot; style=&quot;font-size: 11px;&quot;&gt;plant&lt;/font&gt;" style="text;html=1;align=center;verticalAlign=middle;whiteSpace=wrap;rounded=0;fontSize=11;" parent="1" vertex="1">
          <mxGeometry x="373.13" y="184.25" width="45" height="30" as="geometry" />
        </mxCell>
        <mxCell id="MuEgCA0l2RGkUJCn2qk8-62" value="&lt;ul style=&quot;font-size: 11px;&quot;&gt;&lt;li&gt;&lt;font face=&quot;Tahoma&quot;&gt;each line has planned and unplanned maintenance and needs to be available for production&lt;/font&gt;&lt;/li&gt;&lt;/ul&gt;" style="text;html=1;align=left;verticalAlign=middle;whiteSpace=wrap;rounded=0;fontSize=11;" parent="1" vertex="1">
          <mxGeometry x="562" y="311" width="240" height="46" as="geometry" />
        </mxCell>
        <mxCell id="0F1Y8yyRbe9YirKnJfGc-6" style="edgeStyle=orthogonalEdgeStyle;rounded=0;orthogonalLoop=1;jettySize=auto;html=1;entryX=0.5;entryY=0;entryDx=0;entryDy=0;sketch=1;curveFitting=1;jiggle=2;" parent="1" source="bI64YxjgBMgg3WLyLpZt-6" target="MuEgCA0l2RGkUJCn2qk8-70" edge="1">
          <mxGeometry relative="1" as="geometry" />
        </mxCell>
        <mxCell id="MuEgCA0l2RGkUJCn2qk8-64" value="" style="shape=image;verticalLabelPosition=bottom;labelBackgroundColor=default;verticalAlign=top;aspect=fixed;imageAspect=0;image=data:image/svg+xml,PHN2ZyB4bWxuczp4bGluaz0iaHR0cDovL3d3dy53My5vcmcvMTk5OS94bGluayIgeG1sbnM9Imh0dHA6Ly93d3cudzMub3JnLzIwMDAvc3ZnIiB4bWw6c3BhY2U9InByZXNlcnZlIiB2aWV3Qm94PSIwIDAgNTEyIDUxMiIgaWQ9IkxheWVyXzEiIHZlcnNpb249IjEuMSIgd2lkdGg9IjgwMHB4IiBoZWlnaHQ9IjgwMHB4Ij4mI3hhOzxwYXRoIGQ9Ik00ODUuOTExLDkxLjE5NmMtMi41Ny0xLjUxOS01Ljc1LTEuNTY2LTguMzY1LTAuMTI2bC05MS4xNDMsNTAuMjA5bC02OS4zODEtNzEuMjExJiMxMDsmIzk7Yy0xLjcwMy0xLjc0OC00LjA1Ny0yLjY3My02LjUxNi0yLjUzNmMtMi40MzYsMC4xMzYtNC42OTUsMS4zMi02LjE5MiwzLjI0OEwyMDMuMDQxLDIwMS4wODNsLTY2LjUyOS0yMi4zNTUmIzEwOyYjOTtjLTMuMzY2LTEuMTMyLTcuMDgyLTAuMDM0LTkuMjk1LDIuNzQ4bC01NC4zMjIsNjguMzI3TDQuNTExLDI5My45MmMtMi40MDksMS41NTMtMy44NjQsNC4yMjItMy44NjUsNy4wODhMMC41NjMsNTAzLjU1NyYjMTA7JiM5O2MtMC4wMDEsMi4yMzgsMC44ODgsNC4zODYsMi40Nyw1Ljk3QzQuNjE3LDUxMS4xMTEsNi43NjQsNTEyLDkuMDAyLDUxMmg0NzIuNjE1YzQuNjYyLDAsOC40NC0zLjc3OSw4LjQ0LTguNDRWOTguNDYyJiMxMDsmIzk7QzQ5MC4wNTcsOTUuNDc3LDQ4OC40ODEsOTIuNzE0LDQ4NS45MTEsOTEuMTk2eiIgc3R5bGU9ImZpbGw6I0ZGREI1NjsiLz4mI3hhOzxwYXRoIGQ9Ik00ODUuOTExLDkxLjE5NmMtMi41Ny0xLjUxOS01Ljc1LTEuNTY2LTguMzY1LTAuMTI2bC0yOS42ODYsMTYuMzUyVjUxMmgzMy43NTgmIzEwOyYjOTtjNC42NjIsMCw4LjQ0LTMuNzc5LDguNDQtOC40NFY5OC40NjJDNDkwLjA1Nyw5NS40NzcsNDg4LjQ4MSw5Mi43MTQsNDg1LjkxMSw5MS4xOTZ6IiBzdHlsZT0iZmlsbDojRkJBODA2OyIvPiYjeGE7PHBhdGggZD0iTTQ4My4wMjMsOTAuMTRjLTQuMDUzLTAuNjg4LTguMDIzLDEuNjU5LTkuMzc3LDUuNTQ5bC03MC4xNDUsMjAxLjY2M2wtMTIuNTE5LTI3LjkyNCYjMTA7JiM5O2MtMS4wMzMtMi4zMDMtMy4wNDMtNC4wMjQtNS40NzgtNC42ODljLTIuNDM0LTAuNjYzLTUuMDQxLTAuMjA2LTcuMTAyLDEuMjU1bC00MS4wNTIsMjkuMDc5bC0xNy45OS0xNTkuMTk2JiMxMDsmIzk7Yy0wLjQzOC0zLjg3Mi0zLjQ2OS02Ljk0MS03LjMzNy03LjQyN2MtMy44NjMtMC40NzktNy41NjIsMS43NDItOC45NDEsNS4zODZsLTgyLjMxNiwyMTcuMzk1bC0yNC4wMzUtNDQuOTg4JiMxMDsmIzk7Yy0xLjQzLTIuNjc4LTQuMTkyLTQuMzgyLTcuMjI3LTQuNDZjLTMuMDczLTAuMDY4LTUuODgxLDEuNDgxLTcuNDQ3LDQuMDgxbC00Ni4xMyw3Ni41NzVsLTI4LjkyMy04NC4xNjkmIzEwOyYjOTtjLTEuMTI4LTMuMjgtNC4xNDgtNS41MzctNy42MTQtNS42ODhjLTMuNDc4LTAuMTQzLTYuNjcyLDEuODMzLTguMDgxLDUuMDA0TDEuMjksNTAwLjEzNWMtMS4xNiwyLjYxMS0wLjkyLDUuNjMxLDAuNjM1LDguMDI3JiMxMDsmIzk7QzMuNDgzLDUxMC41NTUsNi4xNDUsNTEyLDkuMDAyLDUxMmg0NzIuNjE1YzQuNjYyLDAsOC40NC0zLjc3OSw4LjQ0LTguNDRWOTguNDYyQzQ5MC4wNTcsOTQuMzQzLDQ4Ny4wODQsOTAuODI1LDQ4My4wMjMsOTAuMTR6IiBzdHlsZT0iZmlsbDojRjc3OTM1OyIvPiYjeGE7PHBhdGggZD0iTTQ4My4wMjMsOTAuMTRjLTQuMDUzLTAuNjg4LTguMDIzLDEuNjU5LTkuMzc3LDUuNTQ5bC0yNS43ODcsNzQuMTM1VjUxMmgzMy43NTgmIzEwOyYjOTtjNC42NjIsMCw4LjQ0LTMuNzc5LDguNDQtOC40NFY5OC40NjJDNDkwLjA1Nyw5NC4zNDMsNDg3LjA4NCw5MC44MjUsNDgzLjAyMyw5MC4xNHoiIHN0eWxlPSJmaWxsOiNEOTUxMEQ7Ii8+JiN4YTs8cGF0aCBkPSJNNTAyLjk5OCw1MTJIOS4wMDJjLTQuNjYyLDAtOC40NC0zLjc3OS04LjQ0LTguNDRWOC40NEMwLjU2MywzLjc3OSw0LjM0LDAsOS4wMDIsMCYjMTA7JiM5O3M4LjQ0LDMuNzc5LDguNDQsOC40NHY0ODYuNjgxaDQ4NS41NTZjNC42NjIsMCw4LjQ0LDMuNzc5LDguNDQsOC40NFM1MDcuNjYsNTEyLDUwMi45OTgsNTEyeiIgc3R5bGU9ImZpbGw6IzgwODA4MDsiLz4mI3hhOzwvc3ZnPg==;" parent="1" vertex="1">
          <mxGeometry x="257" y="110" width="50" height="50" as="geometry" />
        </mxCell>
        <mxCell id="MuEgCA0l2RGkUJCn2qk8-66" value="&lt;font style=&quot;font-size: 11px;&quot;&gt;product demand&lt;/font&gt;" style="text;html=1;align=center;verticalAlign=middle;whiteSpace=wrap;rounded=0;fontSize=11;fontFamily=Tahoma;" parent="1" vertex="1">
          <mxGeometry x="259.5" y="80" width="45" height="30" as="geometry" />
        </mxCell>
        <mxCell id="MuEgCA0l2RGkUJCn2qk8-71" style="edgeStyle=orthogonalEdgeStyle;rounded=0;orthogonalLoop=1;jettySize=auto;html=1;entryX=0;entryY=0.5;entryDx=0;entryDy=0;sketch=1;curveFitting=1;jiggle=2;" parent="1" source="bI64YxjgBMgg3WLyLpZt-11" target="MuEgCA0l2RGkUJCn2qk8-3" edge="1">
          <mxGeometry relative="1" as="geometry" />
        </mxCell>
        <mxCell id="bI64YxjgBMgg3WLyLpZt-13" style="edgeStyle=orthogonalEdgeStyle;rounded=0;orthogonalLoop=1;jettySize=auto;html=1;entryX=0.5;entryY=1;entryDx=0;entryDy=0;sketch=1;curveFitting=1;jiggle=2;endArrow=none;endFill=0;" parent="1" source="MuEgCA0l2RGkUJCn2qk8-70" target="bI64YxjgBMgg3WLyLpZt-11" edge="1">
          <mxGeometry relative="1" as="geometry" />
        </mxCell>
        <mxCell id="MuEgCA0l2RGkUJCn2qk8-70" value="" style="shape=image;verticalLabelPosition=bottom;labelBackgroundColor=default;verticalAlign=top;aspect=fixed;imageAspect=0;image=data:image/svg+xml,PHN2ZyB4bWxuczp4bGluaz0iaHR0cDovL3d3dy53My5vcmcvMTk5OS94bGluayIgeG1sbnM9Imh0dHA6Ly93d3cudzMub3JnLzIwMDAvc3ZnIiB4bWw6c3BhY2U9InByZXNlcnZlIiB2aWV3Qm94PSIwIDAgNTEyIDUxMiIgaWQ9IkxheWVyXzEiIHZlcnNpb249IjEuMSIgd2lkdGg9IjgwMHB4IiBoZWlnaHQ9IjgwMHB4Ij4mI3hhOzxwYXRoIGQ9Ik00MzMuMjkyLDBINjguNjM4Yy00LjM5MSwwLTcuOTUsMy41Ni03Ljk1LDcuOTVWNTA0LjA1YzAsNC4zOTEsMy41Niw3Ljk1LDcuOTUsNy45NWgzNjQuNjU0JiMxMDsmIzk7YzQuMzkxLDAsNy45NS0zLjU2LDcuOTUtNy45NVY3Ljk1QzQ0MS4yNDIsMy41Niw0MzcuNjgzLDAsNDMzLjI5MiwweiIgc3R5bGU9ImZpbGw6IzQzOUVFODsiLz4mI3hhOzxwYXRoIGQ9Ik00NDMuMzYyLDBINzguNzA4Yy00LjM5MSwwLTcuOTUsMy41Ni03Ljk1LDcuOTVWNTA0LjA1YzAsNC4zOTEsMy41Niw3Ljk1LDcuOTUsNy45NWgzNjQuNjU0JiMxMDsmIzk7YzQuMzkxLDAsNy45NS0zLjU2LDcuOTUtNy45NVY3Ljk1QzQ1MS4zMTMsMy41Niw0NDcuNzUzLDAsNDQzLjM2MiwweiIgc3R5bGU9ImZpbGw6IzVDQzRFMDsiLz4mI3hhOzxwYXRoIGQ9Ik00MDQuNjcxLDY4LjM3M0g5OS4zNzljLTQuMzkxLDAtNy45NSwzLjU2LTcuOTUsNy45NXYzOTQuMzM1YzAsNC4zOTEsMy41Niw3Ljk1LDcuOTUsNy45NWgzMDUuMjkyJiMxMDsmIzk7YzQuMzkxLDAsNy45NS0zLjU2LDcuOTUtNy45NVY3Ni4zMjNDNDEyLjYyMSw3MS45MzIsNDA5LjA2MSw2OC4zNzMsNDA0LjY3MSw2OC4zNzN6IiBzdHlsZT0iZmlsbDojNDM5RUU4OyIvPiYjeGE7PHBhdGggZD0iTTQxMy42ODEsNTkuMzYySDEwOC4zODljLTQuMzkxLDAtNy45NSwzLjU2LTcuOTUsNy45NXYzOTQuMzM1YzAsNC4zOTEsMy41Niw3Ljk1LDcuOTUsNy45NWgzMDUuMjkyJiMxMDsmIzk7YzQuMzkxLDAsNy45NS0zLjU2LDcuOTUtNy45NVY2Ny4zMTNDNDIxLjYzMSw2Mi45MjIsNDE4LjA3Miw1OS4zNjIsNDEzLjY4MSw1OS4zNjJ6IiBzdHlsZT0iZmlsbDojRkZGRkZGOyIvPiYjeGE7PGc+JiN4YTsJPHBhdGggZD0iTTE5My4xOTMsMjMyLjE0OWgtNDYuNjQyYy00LjM5MSwwLTcuOTUtMy41Ni03Ljk1LTcuOTV2LTQ2LjY0MmMwLTQuMzkxLDMuNTYtNy45NSw3Ljk1LTcuOTVoNDYuNjQyJiMxMDsmIzk7JiM5O2M0LjM5MSwwLDcuOTUsMy41Niw3Ljk1LDcuOTV2NDYuNjQyQzIwMS4xNDMsMjI4LjU4OSwxOTcuNTgzLDIzMi4xNDksMTkzLjE5MywyMzIuMTQ5eiIgc3R5bGU9ImZpbGw6I0ZCQzk2QzsiLz4mI3hhOwk8cGF0aCBkPSJNMTkzLjE5MywzMjEuMTkzaC00Ni42NDJjLTQuMzkxLDAtNy45NS0zLjU2LTcuOTUtNy45NVYyNjYuNmMwLTQuMzkxLDMuNTYtNy45NSw3Ljk1LTcuOTVoNDYuNjQyJiMxMDsmIzk7JiM5O2M0LjM5MSwwLDcuOTUsMy41Niw3Ljk1LDcuOTV2NDYuNjQyQzIwMS4xNDMsMzE3LjYzMywxOTcuNTgzLDMyMS4xOTMsMTkzLjE5MywzMjEuMTkzeiIgc3R5bGU9ImZpbGw6I0ZCQzk2QzsiLz4mI3hhOwk8cGF0aCBkPSJNMTkzLjE5Myw0MTAuMjM2aC00Ni42NDJjLTQuMzkxLDAtNy45NS0zLjU2LTcuOTUtNy45NXYtNDYuNjQyYzAtNC4zOTEsMy41Ni03Ljk1LDcuOTUtNy45NWg0Ni42NDImIzEwOyYjOTsmIzk7YzQuMzkxLDAsNy45NSwzLjU2LDcuOTUsNy45NXY0Ni42NDJDMjAxLjE0Myw0MDYuNjc2LDE5Ny41ODMsNDEwLjIzNiwxOTMuMTkzLDQxMC4yMzZ6IiBzdHlsZT0iZmlsbDojRkJDOTZDOyIvPiYjeGE7PC9nPiYjeGE7PGc+JiN4YTsJPHBhdGggZD0iTTM3NS41MiwyMTAuOTQ4SDI2OC45ODZjLTQuMzkxLDAtNy45NS0zLjU2LTcuOTUtNy45NWMwLTQuMzkxLDMuNTYtNy45NSw3Ljk1LTcuOTVIMzc1LjUyJiMxMDsmIzk7JiM5O2M0LjM5MSwwLDcuOTUsMy41Niw3Ljk1LDcuOTVDMzgzLjQ3LDIwNy4zODksMzc5LjkxLDIxMC45NDgsMzc1LjUyLDIxMC45NDh6IiBzdHlsZT0iZmlsbDojQTI5QTlGOyIvPiYjeGE7CTxwYXRoIGQ9Ik0zNzUuNTIsMjk5Ljk5MkgyNjguOTg2Yy00LjM5MSwwLTcuOTUtMy41Ni03Ljk1LTcuOTVzMy41Ni03Ljk1LDcuOTUtNy45NUgzNzUuNTImIzEwOyYjOTsmIzk7YzQuMzkxLDAsNy45NSwzLjU2LDcuOTUsNy45NVMzNzkuOTEsMjk5Ljk5MiwzNzUuNTIsMjk5Ljk5MnoiIHN0eWxlPSJmaWxsOiNBMjlBOUY7Ii8+JiN4YTsJPHBhdGggZD0iTTM3NS41MiwzODkuMDM1SDI2OC45ODZjLTQuMzkxLDAtNy45NS0zLjU2LTcuOTUtNy45NXMzLjU2LTcuOTUsNy45NS03Ljk1SDM3NS41MiYjMTA7JiM5OyYjOTtjNC4zOTEsMCw3Ljk1LDMuNTYsNy45NSw3Ljk1UzM3OS45MSwzODkuMDM1LDM3NS41MiwzODkuMDM1eiIgc3R5bGU9ImZpbGw6I0EyOUE5RjsiLz4mI3hhOzwvZz4mI3hhOzxnPiYjeGE7CTxwYXRoIGQ9Ik0xNjMuNTE2LDIxMC45NDljLTIuMjQ4LDAtNC40NzUtMC45NTEtNi4wNC0yLjc3N2wtMjUuNDQxLTI5LjY4MSYjMTA7JiM5OyYjOTtjLTIuODU4LTMuMzM0LTIuNDcyLTguMzUyLDAuODYyLTExLjIxYzMuMzMzLTIuODU4LDguMzUyLTIuNDcxLDExLjIxLDAuODYybDIwLjY2NCwyNC4xMDlsODcuMzQ3LTYzLjUyNSYjMTA7JiM5OyYjOTtjMy41NTItMi41ODMsOC41MjUtMS43OTcsMTEuMTA2LDEuNzUzYzIuNTgzLDMuNTUxLDEuNzk4LDguNTIzLTEuNzUzLDExLjEwNmwtOTMuMjg0LDY3Ljg0MyYjMTA7JiM5OyYjOTtDMTY2Ljc4MSwyMTAuNDUxLDE2NS4xNDMsMjEwLjk0OSwxNjMuNTE2LDIxMC45NDl6IiBzdHlsZT0iZmlsbDojNTI5M0M0OyIvPiYjeGE7CTxwYXRoIGQ9Ik0xNjMuNTE2LDI5OS45OTNjLTIuMjQ4LDAtNC40NzUtMC45NTEtNi4wNC0yLjc3N2wtMjUuNDQxLTI5LjY4MSYjMTA7JiM5OyYjOTtjLTIuODU4LTMuMzM0LTIuNDcyLTguMzUyLDAuODYyLTExLjIxYzMuMzMzLTIuODU4LDguMzUyLTIuNDcxLDExLjIxLDAuODYybDIwLjY2NCwyNC4xMDlsODcuMzQ3LTYzLjUyNSYjMTA7JiM5OyYjOTtjMy41NTItMi41ODMsOC41MjUtMS43OTcsMTEuMTA2LDEuNzUzYzIuNTgzLDMuNTUxLDEuNzk4LDguNTIzLTEuNzUzLDExLjEwNmwtOTMuMjg0LDY3Ljg0MyYjMTA7JiM5OyYjOTtDMTY2Ljc4MSwyOTkuNDk1LDE2NS4xNDMsMjk5Ljk5MywxNjMuNTE2LDI5OS45OTN6IiBzdHlsZT0iZmlsbDojNTI5M0M0OyIvPiYjeGE7CTxwYXRoIGQ9Ik0xNjMuNTE2LDM4OS4wMzVjLTIuMjQ4LDAtNC40NzUtMC45NTEtNi4wNC0yLjc3N2wtMjUuNDQxLTI5LjY4MSYjMTA7JiM5OyYjOTtjLTIuODU4LTMuMzM0LTIuNDcyLTguMzUyLDAuODYyLTExLjIxYzMuMzMzLTIuODU4LDguMzUyLTIuNDcxLDExLjIxLDAuODYybDIwLjY2NCwyNC4xMDlsODcuMzQ3LTYzLjUyNSYjMTA7JiM5OyYjOTtjMy41NTItMi41ODMsOC41MjUtMS43OTcsMTEuMTA2LDEuNzUzYzIuNTgzLDMuNTUxLDEuNzk4LDguNTIzLTEuNzUzLDExLjEwNmwtOTMuMjg0LDY3Ljg0MyYjMTA7JiM5OyYjOTtDMTY2Ljc4MSwzODguNTM4LDE2NS4xNDMsMzg5LjAzNSwxNjMuNTE2LDM4OS4wMzV6IiBzdHlsZT0iZmlsbDojNTI5M0M0OyIvPiYjeGE7PC9nPiYjeGE7PHBhdGggZD0iTTMyMS45ODgsMzMuOTIxaC0zNy43OTNjLTcuODY3LTguMTI4LTE4LjYxNS0xMi43Mi0zMC4wNS0xMi43MmMtMTEuNDM2LDAtMjIuMTgzLDQuNTkyLTMwLjA1LDEyLjcyJiMxMDsmIzk7aC0zNy43OTNjLTQuMzkxLDAtNy45NSwzLjU2LTcuOTUsNy45NXY1NS4xMjJjMCw0LjM5MSwzLjU2LDcuOTUsNy45NSw3Ljk1aDEzNS42ODVjNC4zOTEsMCw3Ljk1LTMuNTYsNy45NS03Ljk1VjQxLjg3MiYjMTA7JiM5O0MzMjkuOTM4LDM3LjQ4MSwzMjYuMzc4LDMzLjkyMSwzMjEuOTg4LDMzLjkyMXoiIHN0eWxlPSJmaWxsOiNEQjNENUE7Ii8+JiN4YTs8cGF0aCBkPSJNMzI4Ljg3OCwzMy45MjFoLTM3Ljc5M2MtNy44NjctOC4xMjgtMTguNjE0LTEyLjcyLTMwLjA1LTEyLjcyYy0xMS40MzYsMC0yMi4xODMsNC41OTItMzAuMDUsMTIuNzImIzEwOyYjOTtoLTM3Ljc5M2MtNC4zOTEsMC03Ljk1LDMuNTYtNy45NSw3Ljk1djU1LjEyMmMwLDQuMzkxLDMuNTYsNy45NSw3Ljk1LDcuOTVoMTM1LjY4NWM0LjM5MSwwLDcuOTUtMy41Niw3Ljk1LTcuOTVWNDEuODcyJiMxMDsmIzk7QzMzNi44MjgsMzcuNDgxLDMzMy4yNjksMzMuOTIxLDMyOC44NzgsMzMuOTIxeiIgc3R5bGU9ImZpbGw6I0ZGNjc1QzsiLz4mI3hhOzxwYXRoIGQ9Ik0yMDYuNDQzLDc4LjQ0M1Y2MC40MjJjMC0yLjkyNywyLjM3My01LjMsNS4zLTUuM2gyOC4yMjhsNi4yNDktNi40NTgmIzEwOyYjOTtjMy45MDgtNC4wMzksOS4xNjktNi4yNjMsMTQuODE1LTYuMjYzYzUuNjQ2LDAsMTAuOTA3LDIuMjI0LDE0LjgxNSw2LjI2M2w2LjI0OSw2LjQ1OGgyOC4yMjhjMi45MjcsMCw1LjMsMi4zNzMsNS4zLDUuM3YxOC4wMjEmIzEwOyYjOTtjMCwyLjkyNy0yLjM3Myw1LjMtNS4zLDUuM2gtOTguNTg0QzIwOC44MTYsODMuNzQzLDIwNi40NDMsODEuMzcsMjA2LjQ0Myw3OC40NDN6IiBzdHlsZT0iZmlsbDojRkZGRkZGOyIvPiYjeGE7PC9zdmc+;" parent="1" vertex="1">
          <mxGeometry x="257" y="209" width="50" height="50" as="geometry" />
        </mxCell>
        <mxCell id="MuEgCA0l2RGkUJCn2qk8-73" value="&lt;font style=&quot;font-size: 11px;&quot;&gt;orders&lt;/font&gt;" style="text;html=1;align=center;verticalAlign=middle;whiteSpace=wrap;rounded=0;fontSize=11;fontFamily=Tahoma;" parent="1" vertex="1">
          <mxGeometry x="259.5" y="259" width="45" height="30" as="geometry" />
        </mxCell>
        <mxCell id="MuEgCA0l2RGkUJCn2qk8-84" value="&lt;font face=&quot;Tahoma&quot; style=&quot;font-size: 11px;&quot;&gt;raw materials&lt;/font&gt;" style="text;html=1;align=center;verticalAlign=middle;whiteSpace=wrap;rounded=0;fontSize=11;" parent="1" vertex="1">
          <mxGeometry x="489.5" y="80" width="45" height="30" as="geometry" />
        </mxCell>
        <mxCell id="0F1Y8yyRbe9YirKnJfGc-3" value="" style="group" parent="1" vertex="1" connectable="0">
          <mxGeometry x="487" y="110" width="62.5" height="50" as="geometry" />
        </mxCell>
        <mxCell id="MuEgCA0l2RGkUJCn2qk8-82" value="" style="shape=image;verticalLabelPosition=bottom;labelBackgroundColor=default;verticalAlign=top;aspect=fixed;imageAspect=0;image=data:image/svg+xml,PHN2ZyB4bWxuczp4bGluaz0iaHR0cDovL3d3dy53My5vcmcvMTk5OS94bGluayIgeG1sbnM9Imh0dHA6Ly93d3cudzMub3JnLzIwMDAvc3ZnIiB4bWw6c3BhY2U9InByZXNlcnZlIiB2aWV3Qm94PSIwIDAgNTEyIDUxMiIgaWQ9IkxheWVyXzEiIHZlcnNpb249IjEuMSIgd2lkdGg9IjgwMHB4IiBoZWlnaHQ9IjgwMHB4Ij4mI3hhOzxnIHRyYW5zZm9ybT0idHJhbnNsYXRlKDEgMSkiPiYjeGE7CTxnPiYjeGE7CQk8cGF0aCBkPSJNMzIzLjkyMywzODMuNDkybC02Ny45MzgsNjguOTIzSDI1NXYtMTI4aDY4LjkyM1YzODMuNDkyeiIgc3R5bGU9ImZpbGw6I0UyRTNFNTsiLz4mI3hhOwkJPHBhdGggZD0iTTQ5NC4yNjIsOTAuMDc3Yy0zMy40NzcsMjEuNjYyLTExOS4xMzgsMzcuNDE1LTIxOS41NjksMzcuNDE1Uzg4LjYsMTExLjczOCw1NS4xMjMsOTAuMDc3bDAsMGwwLDAmIzEwOyYjOTsmIzk7JiM5O2wxNzAuMzM4LDIzNC4zMzhsMCwwaDk4LjQ2MmwwLDBMNDk0LjI2Miw5MC4wNzdDNDk1LjI0Niw5MC4wNzcsNDk1LjI0Niw5MC4wNzcsNDk0LjI2Miw5MC4wNzdMNDk0LjI2Miw5MC4wNzd6IiBzdHlsZT0iZmlsbDojRTJFM0U1OyIvPiYjeGE7CQk8cGF0aCBkPSJNMjc0LjY5Miw5LjMzOHYxMTguMTU0QzQwNS42NDYsMTI3LjQ5Miw1MTEsMTAwLjkwOCw1MTEsNjguNDE1UzQwNS42NDYsOS4zMzgsMjc0LjY5Miw5LjMzOCIgc3R5bGU9ImZpbGw6I0UyRTNFNTsiLz4mI3hhOwk8L2c+JiN4YTsJPHBhdGggZD0iTTI2NC44NDYsNDAzLjE4NWwtNjcuOTM4LDk3LjQ3N2gtMC45ODVWMzI0LjQxNWg2OC45MjNWNDAzLjE4NXoiIHN0eWxlPSJmaWxsOiNGRkZGRkY7Ii8+JiN4YTsJPHBhdGggZD0iTTI5NC4zODUsNDAzLjE4NWwtNjcuOTM4LDQ5LjIzMWgtMC45ODV2LTEyOGg2OC45MjNWNDAzLjE4NXoiIHN0eWxlPSJmaWxsOiNDQ0NDQ0M7Ii8+JiN4YTsJPHBhdGggZD0iTTI2NC44NDYsNDMyLjcyM2wtMzguNCwzOS4zODVoLTAuOTg1VjMyNC40MTVoMzkuMzg1VjQzMi43MjN6IiBzdHlsZT0iZmlsbDojRTJFM0U1OyIvPiYjeGE7CTxwYXRoIGQ9Ik00NjQuNzIzLDkwLjA3N2MtMzMuNDc3LDIxLjY2Mi0xMTkuMTM4LDM3LjQxNS0yMTkuNTY5LDM3LjQxNVM1OS4wNjIsMTExLjczOCwyNS41ODUsOTAuMDc3bDAsMCYjMTA7JiM5OyYjOTtsMCwwbDE3MC4zMzgsMjM0LjMzOGwwLDBoOTguNDYybDAsMEw0NjQuNzIzLDkwLjA3N0M0NjUuNzA4LDkwLjA3Nyw0NjUuNzA4LDkwLjA3Nyw0NjQuNzIzLDkwLjA3N0w0NjQuNzIzLDkwLjA3N3oiIHN0eWxlPSJmaWxsOiNDQ0NDQ0M7Ii8+JiN4YTsJPHBhdGggZD0iTTQyOS4yNzcsOTAuMDc3Yy0zNC40NjIsMjEuNjYyLTczLjg0NiwzNy40MTUtMTc0LjI3NywzNy40MTVTNjguOTA4LDExMS43MzgsMzUuNDMxLDkwLjA3N2wwLDBsMCwwJiMxMDsmIzk7JiM5O2wxNzAuMzM4LDIzNC4zMzhsMCwwaDUzLjE2OWwwLDBMNDI5LjI3Nyw5MC4wNzdDNDMwLjI2Miw5MC4wNzcsNDMwLjI2Miw5MC4wNzcsNDI5LjI3Nyw5MC4wNzdMNDI5LjI3Nyw5MC4wNzd6IiBzdHlsZT0iZmlsbDojRTJFM0U1OyIvPiYjeGE7CTxnPiYjeGE7CQk8cGF0aCBkPSJNMjguNTM4LDkwLjA3N0wyOC41MzgsOTAuMDc3YzEwLjgzMSw2Ljg5MiwyOC41NTQsMTMuNzg1LDQ5LjIzMSwxOC43MDhsMTU3LjUzOCwyMTUuNjMxbDAsMCYjMTA7JiM5OyYjOTsmIzk7aC0zNS40NDZsMCwwTDI4LjUzOCw5MC4wNzdMMjguNTM4LDkwLjA3NyIgc3R5bGU9ImZpbGw6I0ZGRkZGRjsiLz4mI3hhOwkJPHBhdGggZD0iTTI0NS4xNTQsMTI3LjQ5MlY5LjMzOEMxMTQuMiw5LjMzOCw4Ljg0NiwzNS45MjMsOC44NDYsNjguNDE1UzExNC4yLDEyNy40OTIsMjQ1LjE1NCwxMjcuNDkyIiBzdHlsZT0iZmlsbDojRkZGRkZGOyIvPiYjeGE7CTwvZz4mI3hhOwk8cGF0aCBkPSJNMjQ1LjE1NCw5LjMzOHYxMTguMTU0YzEzMC45NTQsMCwyMzYuMzA4LTI2LjU4NSwyMzYuMzA4LTU5LjA3N1MzNzYuMTA4LDkuMzM4LDI0NS4xNTQsOS4zMzgiIHN0eWxlPSJmaWxsOiNDQ0NDQ0M7Ii8+JiN4YTsJPHBhdGggZD0iTTQ0Mi4wNzcsNjguNDE1YzAsMzIuNDkyLTY1Ljk2OSw1OS4wNzctMTk2LjkyMyw1OS4wNzdTNDguMjMxLDEwMC45MDgsNDguMjMxLDY4LjQxNSYjMTA7JiM5OyYjOTtTMTE0LjIsOS4zMzgsMjQ1LjE1NCw5LjMzOFM0NDIuMDc3LDM1LjkyMyw0NDIuMDc3LDY4LjQxNSIgc3R5bGU9ImZpbGw6I0UyRTNFNTsiLz4mI3hhOwk8Zz4mI3hhOwkJPHBhdGggZD0iTTI0NS4xNTQsMTM3LjMzOEMxMjMuMDYyLDEzNy4zMzgtMSwxMTMuNzA4LTEsNjguNDE1UzEyMy4wNjItMC41MDgsMjQ1LjE1NC0wLjUwOCYjMTA7JiM5OyYjOTsmIzk7czI0Ni4xNTQsMjMuNjMxLDI0Ni4xNTQsNjguOTIzUzM2Ny4yNDYsMTM3LjMzOCwyNDUuMTU0LDEzNy4zMzh6IE0yNDUuMTU0LDE5LjE4NWMtMTM3Ljg0NiwwLTIyNi40NjIsMjkuNTM4LTIyNi40NjIsNDkuMjMxJiMxMDsmIzk7JiM5OyYjOTtzODguNjE1LDQ5LjIzMSwyMjYuNDYyLDQ5LjIzMXMyMjYuNDYyLTI5LjUzOCwyMjYuNDYyLTQ5LjIzMVMzODMsMTkuMTg1LDI0NS4xNTQsMTkuMTg1eiIgc3R5bGU9ImZpbGw6I0I2QjZCNjsiLz4mI3hhOwkJPHBhdGggZD0iTTE5NS45MjMsNTEwLjUwOGMtMC45ODUsMC0yLjk1NCwwLTMuOTM4LTAuOTg1Yy0zLjkzOC0xLjk2OS02Ljg5Mi00LjkyMy02Ljg5Mi05Ljg0NlYzMjQuNDE1JiMxMDsmIzk7JiM5OyYjOTtjMC01LjkwOCwzLjkzOC05Ljg0Niw5Ljg0Ni05Ljg0NkgyOTMuNGM1LjkwOCwwLDkuODQ2LDMuOTM4LDkuODQ2LDkuODQ2djc4Ljc2OWMwLDIuOTU0LTAuOTg1LDQuOTIzLTIuOTU0LDYuODkybC05Ny40NzcsOTcuNDc3JiMxMDsmIzk7JiM5OyYjOTtDMjAxLjgzMSw1MDkuNTIzLDE5OC44NzcsNTEwLjUwOCwxOTUuOTIzLDUxMC41MDh6IE0yMDUuNzY5LDMzNC4yNjJ2MTQzLjc1NGw3OC43NjktNzguNzY5di02NC45ODVIMjA1Ljc2OXogTTI5NC4zODUsNDAzLjE4NSYjMTA7JiM5OyYjOTsmIzk7TDI5NC4zODUsNDAzLjE4NUwyOTQuMzg1LDQwMy4xODV6IiBzdHlsZT0iZmlsbDojQjZCNkI2OyIvPiYjeGE7CQk8cGF0aCBkPSJNMjk0LjM4NSwzMzQuMjYyaC05OC40NjJjLTIuOTU0LDAtNS45MDgtMS45NjktNy44NzctMy45MzhMMTYuNzIzLDk1Ljk4NSYjMTA7JiM5OyYjOTsmIzk7Yy0yLjk1NC0zLjkzOC0xLjk2OS05Ljg0NiwwLjk4NS0xMi44YzIuOTU0LTIuOTU0LDguODYyLTMuOTM4LDEyLjgtMS45NjljMzMuNDc3LDIxLjY2MiwxMjAuMTIzLDM2LjQzMSwyMTQuNjQ2LDM2LjQzMSYjMTA7JiM5OyYjOTsmIzk7UzQyNi4zMjMsMTAyLjg3Nyw0NTkuOCw4MS4yMTVsMCwwYzMuOTM4LTEuOTY5LDkuODQ2LTEuOTY5LDEyLjgsMS45NjljMi45NTQsMy45MzgsMi45NTQsOC44NjIsMC45ODUsMTIuOEwzMDIuMjYyLDMzMC4zMjMmIzEwOyYjOTsmIzk7JiM5O0MzMDAuMjkyLDMzMi4yOTIsMjk3LjMzOCwzMzQuMjYyLDI5NC4zODUsMzM0LjI2MnogTTIwMC44NDYsMzE0LjU2OWg4OC42MTVsMTQ2LjcwOC0yMDAuODYyJiMxMDsmIzk7JiM5OyYjOTtjLTQ1LjI5MiwxNC43NjktMTE1LjIsMjMuNjMxLTE5MS4wMTUsMjMuNjMxcy0xNDUuNzIzLTguODYyLTE5MS4wMTUtMjMuNjMxTDIwMC44NDYsMzE0LjU2OXoiIHN0eWxlPSJmaWxsOiNCNkI2QjY7Ii8+JiN4YTsJPC9nPiYjeGE7PC9nPiYjeGE7PC9zdmc+;rotation=-180;" parent="0F1Y8yyRbe9YirKnJfGc-3" vertex="1">
          <mxGeometry x="32.5" y="20" width="30" height="30" as="geometry" />
        </mxCell>
        <mxCell id="MuEgCA0l2RGkUJCn2qk8-77" value="" style="shape=image;verticalLabelPosition=bottom;labelBackgroundColor=default;verticalAlign=top;aspect=fixed;imageAspect=0;image=data:image/svg+xml,PHN2ZyB4bWxuczp4bGluaz0iaHR0cDovL3d3dy53My5vcmcvMTk5OS94bGluayIgeG1sbnM9Imh0dHA6Ly93d3cudzMub3JnLzIwMDAvc3ZnIiB4bWw6c3BhY2U9InByZXNlcnZlIiB2aWV3Qm94PSIwIDAgNTEyLjAwMiA1MTIuMDAyIiBpZD0iTGF5ZXJfMSIgdmVyc2lvbj0iMS4xIiB3aWR0aD0iODAwcHgiIGhlaWdodD0iODAwcHgiPiYjeGE7PGc+JiN4YTsJPGc+JiN4YTsJCTxwYXRoIGQ9Ik0xOTQuMjA4LDE0NS43ODFjLTIuNTk1LTMuNDc4LTUuNjY3LTYuNjQ3LTkuMjYtOS4yNjljLTExLjA2MS04LjA5NS0xNy4yMjMtMjEuMjgzLTE3LjIyMy0zNC45OTMmIzEwOyYjOTsmIzk7JiM5O1Y4OC4yNzhIMTE0Ljc2djEzLjI0MWMwLDEzLjcwOS02LjE2MiwyNi44OTgtMTcuMjIzLDM0Ljk5M2MtMTEuMzc5LDguMzE2LTE4LjA4OCwyMS41NTctMTguMDg4LDM1LjYyOHYzMjIuMjA3JiMxMDsmIzk7JiM5OyYjOTtjMCw5Ljc0Niw3LjkwMSwxNy42NTUsMTcuNjU1LDE3LjY1NWg5Ny4xMDNWMTQ1Ljc4MXoiIHN0eWxlPSJmaWxsOiM5NUE3QUY7Ii8+JiN4YTsJCTxwYXRoIGQ9Ik0zMTcuNzk0LDUxMmg5Ny4xMDNjOS43NTUsMCwxNy42NTUtNy45MSwxNy42NTUtMTcuNjU1VjE3Mi4xMzgmIzEwOyYjOTsmIzk7JiM5O2MwLTE0LjA3MS02LjcwOS0yNy4zMTMtMTguMDg4LTM1LjYyOGMtMTEuMDYxLTguMDk1LTE3LjIyMy0yMS4yODMtMTcuMjIzLTM0Ljk5M1Y4OC4yNzZoLTUyLjk2NXYxMy4yNDEmIzEwOyYjOTsmIzk7JiM5O2MwLDEzLjcwOS02LjE2MiwyNi44OTgtMTcuMjIzLDM0Ljk5M2MtMy41OTMsMi42MzEtNi42NjUsNS43OTEtOS4yNiw5LjI2OVY1MTJ6IiBzdHlsZT0iZmlsbDojOTVBN0FGOyIvPiYjeGE7CTwvZz4mI3hhOwk8Zz4mI3hhOwkJPHBvbHlnb24gcG9pbnRzPSI3OS40NDksMzE3Ljc5MyAxOTQuMjA3LDMxNy43OTMgMTk0LjIwNywxOTQuMjA3IDc5LjQ0OSwxOTQuMjA3IiBzdHlsZT0iZmlsbDojQUVDM0NFOyIvPiYjeGE7CQk8cG9seWdvbiBwb2ludHM9IjMxNy43OTQsMzE3Ljc5MyA0MzIuNTUyLDMxNy43OTMgNDMyLjU1MiwxOTQuMjA3IDMxNy43OTQsMTk0LjIwNyIgc3R5bGU9ImZpbGw6I0FFQzNDRTsiLz4mI3hhOwk8L2c+JiN4YTsJPHBhdGggZD0iTTI5OS43MDksMTAxLjE5OWMtMTEuMDYxLTguMDk1LTE3LjIyMy0yMS4yODMtMTcuMjIzLTM0Ljk5M1Y1Mi45NjVoLTUyLjk2NnYxMy4yNDEmIzEwOyYjOTsmIzk7YzAsMTMuNzA5LTYuMTYyLDI2Ljg5OC0xNy4yMjMsMzQuOTkzYy0xMS4zNzksOC4zMTYtMTguMDg4LDIxLjU1Ny0xOC4wODgsMzUuNjI4djM3NS4xNzJoMTIzLjU4NlYxMzYuODI3JiMxMDsmIzk7JiM5O0MzMTcuNzk3LDEyMi43NTYsMzExLjA4OCwxMDkuNTE0LDI5OS43MDksMTAxLjE5OSIgc3R5bGU9ImZpbGw6I0RBRTdFRjsiLz4mI3hhOwk8cG9seWdvbiBwb2ludHM9IjE5NC4yMDcsMjgyLjQ4MyAzMTcuNzk0LDI4Mi40ODMgMzE3Ljc5NCwxNTguODk3IDE5NC4yMDcsMTU4Ljg5NyIgc3R5bGU9ImZpbGw6I0FFQzNDRTsiLz4mI3hhOwk8Zz4mI3hhOwkJPHBhdGggZD0iTTI2NC44MjksMjExLjg2MmgtMTcuNjU1Yy00Ljg4MiwwLTguODI4LTMuOTQ2LTguODI4LTguODI4czMuOTQ2LTguODI4LDguODI4LTguODI4aDE3LjY1NSYjMTA7JiM5OyYjOTsmIzk7YzQuODgyLDAsOC44MjgsMy45NDYsOC44MjgsOC44MjhTMjY5LjcxMSwyMTEuODYyLDI2NC44MjksMjExLjg2MiIgc3R5bGU9ImZpbGw6I0RBRTdFRjsiLz4mI3hhOwkJPHBhdGggZD0iTTI4Mi40ODQsMjQ3LjE3MmgtNTIuOTY1Yy00Ljg4MiwwLTguODI4LTMuOTQ2LTguODI4LTguODI4YzAtNC44ODIsMy45NDYtOC44MjgsOC44MjgtOC44MjgmIzEwOyYjOTsmIzk7JiM5O2g1Mi45NjVjNC44ODIsMCw4LjgyOCwzLjk0Niw4LjgyOCw4LjgyOEMyOTEuMzEyLDI0My4yMjYsMjg3LjM2NiwyNDcuMTcyLDI4Mi40ODQsMjQ3LjE3MiIgc3R5bGU9ImZpbGw6I0RBRTdFRjsiLz4mI3hhOwk8L2c+JiN4YTsJPHBhdGggZD0iTTI5MS4zMTIsNTIuOTY2aC03MC42MjFjLTQuODczLDAtOC44MjgtMy45NTUtOC44MjgtOC44MjhWOC44MjhjMC00Ljg3MywzLjk1NS04LjgyOCw4LjgyOC04LjgyOCYjMTA7JiM5OyYjOTtoNzAuNjIxYzQuODczLDAsOC44MjgsMy45NTUsOC44MjgsOC44Mjh2MzUuMzFDMzAwLjEzOSw0OS4wMTEsMjk2LjE4NSw1Mi45NjYsMjkxLjMxMiw1Mi45NjYiIHN0eWxlPSJmaWxsOiNBRUMzQ0U7Ii8+JiN4YTsJPGc+JiN4YTsJCTxwYXRoIGQ9Ik0xNTAuMDcsMjQ3LjE3MmgtMTcuNjU1Yy00Ljg4MiwwLTguODI4LTMuOTQ2LTguODI4LTguODI4YzAtNC44ODIsMy45NDYtOC44MjgsOC44MjgtOC44MjhoMTcuNjU1JiMxMDsmIzk7JiM5OyYjOTtjNC44ODIsMCw4LjgyOCwzLjk0Niw4LjgyOCw4LjgyOEMxNTguODk4LDI0My4yMjYsMTU0Ljk1MiwyNDcuMTcyLDE1MC4wNywyNDcuMTcyIiBzdHlsZT0iZmlsbDojREFFN0VGOyIvPiYjeGE7CQk8cGF0aCBkPSJNMTY3LjcyNSwyODIuNDgzSDExNC43NmMtNC44ODIsMC04LjgyOC0zLjk0Ni04LjgyOC04LjgyOHMzLjk0Ni04LjgyOCw4LjgyOC04LjgyOGg1Mi45NjYmIzEwOyYjOTsmIzk7JiM5O2M0Ljg4MiwwLDguODI4LDMuOTQ2LDguODI4LDguODI4UzE3Mi42MDcsMjgyLjQ4MywxNjcuNzI1LDI4Mi40ODMiIHN0eWxlPSJmaWxsOiNEQUU3RUY7Ii8+JiN4YTsJPC9nPiYjeGE7CTxwYXRoIGQ9Ik0xNzYuNTUzLDg4LjI3NmgtNzAuNjIxYy00Ljg3MywwLTguODI4LTMuOTU1LTguODI4LTguODI4di0zNS4zMWMwLTQuODczLDMuOTU1LTguODI4LDguODI4LTguODI4JiMxMDsmIzk7JiM5O2g3MC42MjFjNC44NzMsMCw4LjgyOCwzLjk1NSw4LjgyOCw4LjgyOHYzNS4zMUMxODUuMzgxLDg0LjMyMSwxODEuNDI2LDg4LjI3NiwxNzYuNTUzLDg4LjI3NiIgc3R5bGU9ImZpbGw6I0FFQzNDRTsiLz4mI3hhOwk8Zz4mI3hhOwkJPHBhdGggZD0iTTM3OS41ODgsMjQ3LjE3MmgtMTcuNjU1Yy00Ljg4MiwwLTguODI4LTMuOTQ2LTguODI4LTguODI4YzAtNC44ODIsMy45NDYtOC44MjgsOC44MjgtOC44MjgmIzEwOyYjOTsmIzk7JiM5O2gxNy42NTVjNC44ODIsMCw4LjgyOCwzLjk0Niw4LjgyOCw4LjgyOEMzODguNDE1LDI0My4yMjYsMzg0LjQ2OSwyNDcuMTcyLDM3OS41ODgsMjQ3LjE3MiIgc3R5bGU9ImZpbGw6I0RBRTdFRjsiLz4mI3hhOwkJPHBhdGggZD0iTTM5Ny4yNDMsMjgyLjQ4M2gtNTIuOTY1Yy00Ljg4MiwwLTguODI4LTMuOTQ2LTguODI4LTguODI4czMuOTQ2LTguODI4LDguODI4LTguODI4aDUyLjk2NSYjMTA7JiM5OyYjOTsmIzk7YzQuODgyLDAsOC44MjgsMy45NDYsOC44MjgsOC44MjhTNDAyLjEyNCwyODIuNDgzLDM5Ny4yNDMsMjgyLjQ4MyIgc3R5bGU9ImZpbGw6I0RBRTdFRjsiLz4mI3hhOwk8L2c+JiN4YTsJPGc+JiN4YTsJCTxwYXRoIGQ9Ik00MDYuMDcsODguMjc2SDMzNS40NWMtNC44NzMsMC04LjgyOC0zLjk1NS04LjgyOC04LjgyOHYtMzUuMzFjMC00Ljg3MywzLjk1NS04LjgyOCw4LjgyOC04LjgyOCYjMTA7JiM5OyYjOTsmIzk7aDcwLjYyMWM0Ljg3MywwLDguODI4LDMuOTU1LDguODI4LDguODI4djM1LjMxQzQxNC44OTgsODQuMzIxLDQxMC45NDMsODguMjc2LDQwNi4wNyw4OC4yNzYiIHN0eWxlPSJmaWxsOiNBRUMzQ0U7Ii8+JiN4YTsJCTxwYXRoIGQ9Ik0xNDEuMjQzLDQ5NC4zNDVoLTE3LjY1NWMtMTQuNjAxLDAtMjYuNDgzLTExLjg4Mi0yNi40ODMtMjYuNDgzdi0xNy42NTUmIzEwOyYjOTsmIzk7JiM5O2MwLTQuODgyLDMuOTQ2LTguODI4LDguODI4LTguODI4czguODI4LDMuOTQ2LDguODI4LDguODI4djE3LjY1NWMwLDQuODczLDMuOTU1LDguODI4LDguODI4LDguODI4aDE3LjY1NSYjMTA7JiM5OyYjOTsmIzk7YzQuODgyLDAsOC44MjgsMy45NDYsOC44MjgsOC44MjhDMTUwLjA3LDQ5MC4zOTksMTQ2LjEyNCw0OTQuMzQ1LDE0MS4yNDMsNDk0LjM0NSIgc3R5bGU9ImZpbGw6I0FFQzNDRTsiLz4mI3hhOwkJPHBhdGggZD0iTTI1Ni4wMDEsNDk0LjM0NWgtMTcuNjU1Yy0xNC42MDEsMC0yNi40ODMtMTEuODgyLTI2LjQ4My0yNi40ODN2LTE3LjY1NSYjMTA7JiM5OyYjOTsmIzk7YzAtNC44ODIsMy45NDYtOC44MjgsOC44MjgtOC44MjhzOC44MjgsMy45NDYsOC44MjgsOC44Mjh2MTcuNjU1YzAsNC44NzMsMy45NTUsOC44MjgsOC44MjgsOC44MjhoMTcuNjU1JiMxMDsmIzk7JiM5OyYjOTtjNC44ODIsMCw4LjgyOCwzLjk0Niw4LjgyOCw4LjgyOEMyNjQuODI5LDQ5MC4zOTksMjYwLjg4Myw0OTQuMzQ1LDI1Ni4wMDEsNDk0LjM0NSIgc3R5bGU9ImZpbGw6I0FFQzNDRTsiLz4mI3hhOwkJPHBhdGggZD0iTTM3OS41ODgsNDk0LjM0NWgtMTcuNjU1Yy0xNC42MDEsMC0yNi40ODMtMTEuODgyLTI2LjQ4My0yNi40ODN2LTE3LjY1NSYjMTA7JiM5OyYjOTsmIzk7YzAtNC44ODIsMy45NDYtOC44MjgsOC44MjgtOC44MjhzOC44MjgsMy45NDYsOC44MjgsOC44Mjh2MTcuNjU1YzAsNC44NzMsMy45NTUsOC44MjgsOC44MjgsOC44MjhoMTcuNjU1JiMxMDsmIzk7JiM5OyYjOTtjNC44ODIsMCw4LjgyOCwzLjk0Niw4LjgyOCw4LjgyOEMzODguNDE1LDQ5MC4zOTksMzg0LjQ2OSw0OTQuMzQ1LDM3OS41ODgsNDk0LjM0NSIgc3R5bGU9ImZpbGw6I0FFQzNDRTsiLz4mI3hhOwk8L2c+JiN4YTs8L2c+JiN4YTs8L3N2Zz4=;" parent="0F1Y8yyRbe9YirKnJfGc-3" vertex="1">
          <mxGeometry width="50" height="50" as="geometry" />
        </mxCell>
        <mxCell id="MuEgCA0l2RGkUJCn2qk8-80" value="" style="shape=image;verticalLabelPosition=bottom;labelBackgroundColor=default;verticalAlign=top;aspect=fixed;imageAspect=0;image=data:image/svg+xml,PHN2ZyB4bWxuczp4bGluaz0iaHR0cDovL3d3dy53My5vcmcvMTk5OS94bGluayIgeG1sbnM9Imh0dHA6Ly93d3cudzMub3JnLzIwMDAvc3ZnIiBwcmVzZXJ2ZUFzcGVjdFJhdGlvPSJ4TWlkWU1pZCBtZWV0IiBjbGFzcz0iaWNvbmlmeSBpY29uaWZ5LS10d2Vtb2ppIiByb2xlPSJpbWciIGFyaWEtaGlkZGVuPSJ0cnVlIiB2aWV3Qm94PSI2IDAgMjQgMzYiIGhlaWdodD0iODAwIiB3aWR0aD0iNTMzLjMzMzMzMzMzMzMzMzQiPjxwYXRoIGQ9Ik0xNyAzaDJ2NWgtMnoiIGZpbGw9IiM2Njc1N0YiLz48cGF0aCBkPSJNMTIgMTJWOWMwLTEuMS45LTIgMi0yaDhjMS4xIDAgMiAuOSAyIDJ2M0gxMnoiIGZpbGw9IiM5OUFBQjUiLz48cGF0aCBkPSJNMjQgMTFIMTJjLTUgMC02IDIxLTYgMjFjMCAyLjIgMS44IDQgNCA0aDE2YzIuMiAwIDQtMS44IDQtNGMwIDAtMS0yMS02LTIxeiIgZmlsbD0iI0ZGQUMzMyIvPjxwYXRoIGQ9Ik04IDRzMi00IDctNGg2YzIgMCAyIDQgMCA0aC02Yy01IDAtNiAxLTYgMUw4IDR6IiBmaWxsPSIjQ0NENkREIi8+PHBhdGggZD0iTTguNDY0IDQuNDY0TDkgNXMxLTEgNi0xaDZjLjk3NSAwIDEuNDcyLS45NDkgMS40OTYtMS45MjJDMjEgMi4wNzggMTkuNTI0IDIgMTUgMmMtMy44NTkgMC01LjUxOSAxLjM3Ny02LjUzNiAyLjQ2NHoiIGZpbGw9IiM5OUFBQjUiLz48cGF0aCBkPSJNMjMuNSAxM2gtMTFjLS4yNzUgMC0uNS0uMjI1LS41LS41cy4yMjUtLjUuNS0uNWgxMWMuMjc1IDAgLjUuMjI1LjUuNXMtLjIyNS41LS41LjV6IiBmaWxsPSIjRkZDQzREIi8+PHBhdGggZD0iTTE4IDE4cy00IDQuNzkxLTQgN2E0IDQgMCAwIDAgOCAwYzAtMi4yMDktNC03LTQtN3oiIGZpbGw9IiNGRkU4QjYiLz48L3N2Zz4=;" parent="0F1Y8yyRbe9YirKnJfGc-3" vertex="1">
          <mxGeometry y="19.97999999999999" width="20" height="30.02" as="geometry" />
        </mxCell>
        <mxCell id="MuEgCA0l2RGkUJCn2qk8-81" value="" style="shape=image;verticalLabelPosition=bottom;labelBackgroundColor=default;verticalAlign=top;aspect=fixed;imageAspect=0;image=data:image/svg+xml,PHN2ZyB4bWxuczp4bGluaz0iaHR0cDovL3d3dy53My5vcmcvMTk5OS94bGluayIgeG1sbnM9Imh0dHA6Ly93d3cudzMub3JnLzIwMDAvc3ZnIiB4bWw6c3BhY2U9InByZXNlcnZlIiB2aWV3Qm94PSIwIDAgNTEyIDUxMiIgaWQ9IkxheWVyXzEiIHZlcnNpb249IjEuMSIgd2lkdGg9IjgwMHB4IiBoZWlnaHQ9IjgwMHB4Ij4mI3hhOzxwYXRoIGQ9Ik0zODAuNzg0LDE1OC45MjFjLTYuMDg3LTAuMjk0LTExLjk1MywxLjgxNS0xNi4zODgsNi4wM2MtNC40MzYsNC4yMDctNi44NzksOS44OTctNi44NzksMTYuMDA5JiMxMDsmIzk7YzAsMC43ODItMC4yNTQsMS40ODQtMC40NDYsMi4yMDdjMC4xOTEsMC43MjMsMC40NDYsMS40MjUsMC40NDYsMi4yMDd2NjEuNzkzYzAsNC44NzUtMy45NTMsOC44MjgtOC44MjgsOC44MjgmIzEwOyYjOTtjLTQuODc1LDAtOC44MjgtMy45NTMtOC44MjgtOC44Mjh2LTYxLjc5M2MwLTAuNzgyLDAuMjU0LTEuNDg0LDAuNDQ2LTIuMjA3Yy0wLjE5MS0wLjcyMy0wLjQ0Ni0xLjQyNS0wLjQ0Ni0yLjIwN1Y1MC4yOTkmIzEwOyYjOTtjMC0xMi41MTMtOS4zNjItMjMuMTg2LTIwLjg2Ni0yMy43ODljLTYuMDU2LTAuMzE0LTExLjk1NywxLjgxOC0xNi4zOTIsNi4wM2MtNC40MzUsNC4yMTItNi44OCw5Ljg5Ny02Ljg4LDE2LjAwOSYjMTA7JiM5O2MwLDAuNzgyLTAuMjU0LDEuNDg0LTAuNDQ2LDIuMjA3YzAuMTkxLDAuNzIzLDAuNDQ2LDEuNDI1LDAuNDQ2LDIuMjA3djE0MS4yMzljMCw0Ljg3NS0zLjk1Myw4LjgyOC04LjgyOCw4LjgyOCYjMTA7JiM5O3MtOC44MjgtMy45NTMtOC44MjgtOC44MjhWNTIuOTYzYzAtMC43ODIsMC4yNTQtMS40ODQsMC40NDYtMi4yMDdjLTAuMTkxLTAuNzIzLTAuNDQ2LTEuNDI1LTAuNDQ2LTIuMjA3VjIyLjA2NyYjMTA7JiM5O2MwLTYuMTEyLTIuNDQ0LTExLjc5Ny02Ljg3OS0xNi4wMDljLTQuNDI3LTQuMjExLTEwLjIyLTYuMzI3LTE2LjM5Mi02LjAzYy0xMS41MDYsMC42MDQtMjAuODY3LDExLjI3Ni0yMC44NjcsMjMuNzg5djI0LjczMyYjMTA7JiM5O2MwLDAuNzgyLTAuMjU0LDEuNDg0LTAuNDQ2LDIuMjA3YzAuMTkxLDAuNzIzLDAuNDQ2LDEuNDI1LDAuNDQ2LDIuMjA3djEzMi40MTJjMCw0Ljg3NS0zLjk1Myw4LjgyOC04LjgyOCw4LjgyOCYjMTA7JiM5O3MtOC44MjgtMy45NTMtOC44MjgtOC44MjhWNTIuOTYzYzAtMC43ODIsMC4yNTQtMS40ODQsMC40NDYtMi4yMDdjLTAuMTkxLTAuNzIzLTAuNDQ2LTEuNDI1LTAuNDQ2LTIuMjA3JiMxMDsmIzk7YzAtNi4xMTItMi40NDQtMTEuNzk3LTYuODc5LTE2LjAwOWMtNC40MzEtNC4yMTEtMTAuMTg5LTYuMzI3LTE2LjM5Mi02LjAzYy0xMS41MDYsMC42MDQtMjAuODY3LDExLjI3Ni0yMC44NjcsMjMuNzg5djU1LjYyN3Y0LjQxNCYjMTA7JiM5O3Y5Mi42OWMwLDQuODc1LTMuOTUzLDguODI4LTguODI4LDguODI4Yy00Ljg3NSwwLTguODI4LTMuOTUzLTguODI4LTguODI4di05OC44NTFjMC02LjExMi0yLjQ0NC0xMS43OTctNi44NzktMTYuMDA5JiMxMDsmIzk7Yy00LjQyNy00LjIxMS0xMC4yMjktNi4zMzItMTYuMzkyLTYuMDNjLTExLjUwNiwwLjYwNC0yMC44NjcsMTEuMjc2LTIwLjg2NywyMy43ODl2MTU0LjQxNGMwLDI1LjM1NCw0LjU0MSw1MC40ODUsMTMuNDI5LDc0LjIzJiMxMDsmIzk7YzUuMzc3LDE0LjM2NCwxMS41NjYsMzAuODUsMTYuOTc0LDQ1LjEzNGM5LjA4MSwyMy45ODcsMTMuNzM1LDQ5LjM4OSwxMy43MzUsNzUuMDM4djEzLjExN0gzNDguNjl2LTcwLjYyNiYjMTA7JiM5O2MwLjE5MSwwLDAuMzY3LDAuMDUyLDAuNTU4LDAuMDU2YzEuMTY0LTkuOTA3LDQuMzQyLTE5LjQ5OSw5LjUwNi0yOC4xMDRsMzUuMzUzLTU4LjkyMmM0LjUzLTcuNTQ4LDcuNTQ4LTE2LjQ3OSw3LjU0OC0zNS41MTcmIzEwOyYjOTt2LTkyLjA1MkM0MDEuNjU1LDE3MC4xODgsMzkyLjI5MywxNTkuNTI0LDM4MC43ODQsMTU4LjkyMXoiIHN0eWxlPSJmaWxsOiNGRkQyNTA7Ii8+JiN4YTs8Zz4mI3hhOwk8cGF0aCBkPSJNMjMzLjkzMSw1Mi45NjN2MTMyLjQxMmMwLDQuODc1LDMuOTUzLDguODI4LDguODI4LDguODI4YzQuODc1LDAsOC44MjgtMy45NTMsOC44MjgtOC44MjhWNTIuOTYzJiMxMDsmIzk7JiM5O2MwLTAuNzgyLTAuMjU0LTEuNDg0LTAuNDQ2LTIuMjA3YzAuMTkxLTAuNzIzLDAuNDQ2LTEuNDI1LDAuNDQ2LTIuMjA3VjIzLjgxNmMwLTkuNjM0LDUuNTc0LTE4LjEyNSwxMy4zNzgtMjEuODIyJiMxMDsmIzk7JiM5O2MtMy4xNDQtMS40MDItNi41NzEtMi4xNDEtMTAuMTY3LTEuOTY3Yy0xMS41MDUsMC42MDUtMjAuODY2LDExLjI3Ny0yMC44NjYsMjMuNzg5djI0LjczM2MwLDAuNzgyLDAuMjU0LDEuNDg0LDAuNDQ2LDIuMjA3JiMxMDsmIzk7JiM5O0MyMzQuMTg1LDUxLjQ3OCwyMzMuOTMxLDUyLjE4LDIzMy45MzEsNTIuOTYzeiIgc3R5bGU9ImZpbGw6I0ZDQzY0QTsiLz4mI3hhOwk8cGF0aCBkPSJNMjk2LjE3LDUwLjc1NmMtMC4xOTEsMC43MjMtMC40NDYsMS40MjUtMC40NDYsMi4yMDd2MTQxLjIzOWMwLDQuODc1LDMuOTUzLDguODI4LDguODI4LDguODI4JiMxMDsmIzk7JiM5O3M4LjgyOC0zLjk1Myw4LjgyOC04LjgyOFY1Mi45NjNjMC0wLjc4Mi0wLjI1NC0xLjQ4NC0wLjQ0Ni0yLjIwN2MwLjE5MS0wLjcyMywwLjQ0Ni0xLjQyNSwwLjQ0Ni0yLjIwNyYjMTA7JiM5OyYjOTtjMC02LjExMiwyLjQ0NC0xMS43OTcsNi44NzktMTYuMDA5YzEuODQ1LTEuNzUxLDMuOTgzLTMuMDUxLDYuMjQxLTQuMDU2Yy0yLjMzNi0xLjEwOC00Ljg1Mi0xLjgzNS03LjUwMy0xLjk3NCYjMTA7JiM5OyYjOTtjLTYuMDU2LTAuMzE0LTExLjk1NywxLjgxOC0xNi4zOTIsNi4wM2MtNC40MzUsNC4yMTItNi44OCw5Ljg5Ni02Ljg4LDE2LjAwOUMyOTUuNzI0LDQ5LjMzMiwyOTUuOTc4LDUwLjAzNCwyOTYuMTcsNTAuNzU2eiIgc3R5bGU9ImZpbGw6I0ZDQzY0QTsiLz4mI3hhOwk8cGF0aCBkPSJNMzU3Ljk2MywxODMuMTY3Yy0wLjE5MSwwLjcyMy0wLjQ0NiwxLjQyNS0wLjQ0NiwyLjIwN3Y2MS43OTNjMCw0Ljg3NSwzLjk1Myw4LjgyOCw4LjgyOCw4LjgyOCYjMTA7JiM5OyYjOTtzOC44MjgtMy45NTMsOC44MjgtOC44Mjh2LTYxLjc5M2MwLTAuNzgyLTAuMjU0LTEuNDg0LTAuNDQ2LTIuMjA3YzAuMTkxLTAuNzIzLDAuNDQ2LTEuNDI1LDAuNDQ2LTIuMjA3JiMxMDsmIzk7JiM5O2MwLTYuMTEyLDIuNDQ0LTExLjgwMSw2Ljg3OS0xNi4wMDljMS44NDctMS43NTYsMy45ODMtMy4wNTQsNi4yNC00LjA1N2MtMi4zMzctMS4xMDgtNC44NTQtMS44MzQtNy41MDgtMS45NzMmIzEwOyYjOTsmIzk7Yy02LjA4Ny0wLjI5NC0xMS45NTMsMS44MTUtMTYuMzg4LDYuMDNjLTQuNDM2LDQuMjA3LTYuODc5LDkuODk3LTYuODc5LDE2LjAwOUMzNTcuNTE3LDE4MS43NDIsMzU3Ljc3MSwxODIuNDQ0LDM1Ny45NjMsMTgzLjE2N3oiIHN0eWxlPSJmaWxsOiNGQ0M2NEE7Ii8+JiN4YTsJPHBhdGggZD0iTTE1OC40MDMsMzc5LjcwN2MtNS40MDgtMTQuMjg0LTExLjU5Ny0zMC43NzItMTYuOTc0LTQ1LjEzNCYjMTA7JiM5OyYjOTtDMTMyLjU0MSwzMTAuODI4LDEyOCwyODUuNjk3LDEyOCwyNjAuMzQzVjEwNS45MjljMC05LjYzNCw1LjU3NC0xOC4xMjUsMTMuMzc4LTIxLjgyMmMtMy4xNDYtMS40MDQtNi41NzQtMi4xNDMtMTAuMTY3LTEuOTY3JiMxMDsmIzk7JiM5O2MtMTEuNTA1LDAuNjA0LTIwLjg2NiwxMS4yNzYtMjAuODY2LDIzLjc4OXYxNTQuNDE0YzAsMjUuMzU0LDQuNTQxLDUwLjQ4NSwxMy40MjksNzQuMjNjNS4zNzcsMTQuMzY0LDExLjU2NiwzMC44NSwxNi45NzQsNDUuMTM0JiMxMDsmIzk7JiM5O2M5LjA4MSwyMy45ODcsMTMuNzM1LDQ5LjM4OSwxMy43MzUsNzUuMDM4djEzLjExN2gxNy42NTV2LTEzLjExN0MxNzIuMTM4LDQyOS4wOTcsMTY3LjQ4NSw0MDMuNjk0LDE1OC40MDMsMzc5LjcwN3oiIHN0eWxlPSJmaWxsOiNGQ0M2NEE7Ii8+JiN4YTsJPHBhdGggZD0iTTE3Mi4xMzgsMTEwLjMzOXY5Mi42OWMwLDQuODc1LDMuOTUzLDguODI4LDguODI4LDguODI4czguODI4LTMuOTUzLDguODI4LTguODI4di05Mi42OXYtNC40MTQmIzEwOyYjOTsmIzk7VjUwLjI5OGMwLTkuNjM2LDUuNTc2LTE4LjEyNywxMy4zODItMjEuODIzYy0zLjEzNy0xLjQwMS02LjU1OC0yLjE0LTEwLjE3LTEuOTY2Yy0xMS41MDUsMC42MDUtMjAuODY2LDExLjI3Ny0yMC44NjYsMjMuNzg5JiMxMDsmIzk7JiM5O3Y1My44Nzl2MS43NDdWMTEwLjMzOXoiIHN0eWxlPSJmaWxsOiNGQ0M2NEE7Ii8+JiN4YTs8L2c+JiN4YTs8cGF0aCBkPSJNMzU3LjUxNyw1MDMuMTcyYzAsNC44NjYtMy45NjEsOC44MjgtOC44MjgsOC44MjhIMTU0LjQ4M2MtNC44NjYsMC04LjgyOC0zLjk2MS04LjgyOC04LjgyOHYtMzUuMzEmIzEwOyYjOTtjMC00Ljg2NiwzLjk2MS04LjgyOCw4LjgyOC04LjgyOEgzNDguNjljNC44NjYsMCw4LjgyOCwzLjk2MSw4LjgyOCw4LjgyOFY1MDMuMTcyeiIgc3R5bGU9ImZpbGw6I0ZBQkU0NjsiLz4mI3hhOzwvc3ZnPg==;" parent="0F1Y8yyRbe9YirKnJfGc-3" vertex="1">
          <mxGeometry x="20" y="30" width="20" height="20" as="geometry" />
        </mxCell>
        <mxCell id="0F1Y8yyRbe9YirKnJfGc-4" style="edgeStyle=orthogonalEdgeStyle;rounded=0;orthogonalLoop=1;jettySize=auto;html=1;sketch=1;curveFitting=1;jiggle=2;" parent="1" source="bI64YxjgBMgg3WLyLpZt-1" target="MuEgCA0l2RGkUJCn2qk8-55" edge="1">
          <mxGeometry relative="1" as="geometry" />
        </mxCell>
        <mxCell id="0F1Y8yyRbe9YirKnJfGc-10" value="&lt;ul style=&quot;&quot;&gt;&lt;li style=&quot;&quot;&gt;&lt;font face=&quot;Tahoma&quot;&gt;primary packaged drug product demand is forecast over a 24 month period&lt;/font&gt;&lt;br&gt;&lt;/li&gt;&lt;li style=&quot;&quot;&gt;&lt;font face=&quot;Tahoma&quot;&gt;each product is identified by a material number&lt;/font&gt;&lt;/li&gt;&lt;li&gt;&lt;font face=&quot;Tahoma&quot;&gt;orders of specific material numbers for the next 2 months are confirmed&lt;/font&gt;&lt;/li&gt;&lt;/ul&gt;" style="text;html=1;align=left;verticalAlign=middle;whiteSpace=wrap;rounded=0;fontSize=11;" parent="1" vertex="1">
          <mxGeometry y="142.5" width="240" height="83" as="geometry" />
        </mxCell>
        <mxCell id="oPzESkwU3yV3f0Xb60sg-2" value="&lt;ul style=&quot;font-size: 11px;&quot;&gt;&lt;li&gt;&lt;font face=&quot;Tahoma&quot;&gt;material stock that is part of the bill-of-material (e.g., drug substance, excipients, containment) is managed by material planners, rest (e.g., consumables) is managed by the enterprise resource planning system (i.e., SAP)&lt;/font&gt;&lt;/li&gt;&lt;/ul&gt;" style="text;html=1;align=left;verticalAlign=middle;whiteSpace=wrap;rounded=0;fontSize=11;" parent="1" vertex="1">
          <mxGeometry x="562" y="129" width="240" height="110" as="geometry" />
        </mxCell>
        <mxCell id="bI64YxjgBMgg3WLyLpZt-5" value="" style="edgeStyle=orthogonalEdgeStyle;rounded=0;orthogonalLoop=1;jettySize=auto;html=1;sketch=1;curveFitting=1;jiggle=2;endArrow=none;endFill=0;" parent="1" source="MuEgCA0l2RGkUJCn2qk8-77" target="bI64YxjgBMgg3WLyLpZt-1" edge="1">
          <mxGeometry relative="1" as="geometry">
            <mxPoint x="512" y="160" as="sourcePoint" />
            <mxPoint x="512" y="209" as="targetPoint" />
          </mxGeometry>
        </mxCell>
        <mxCell id="bI64YxjgBMgg3WLyLpZt-1" value="&lt;font face=&quot;Tahoma&quot;&gt;stored in&lt;/font&gt;" style="text;html=1;align=center;verticalAlign=middle;whiteSpace=wrap;rounded=0;fontSize=11;" parent="1" vertex="1">
          <mxGeometry x="484.5" y="179" width="55" height="10" as="geometry" />
        </mxCell>
        <mxCell id="bI64YxjgBMgg3WLyLpZt-7" value="" style="edgeStyle=orthogonalEdgeStyle;rounded=0;orthogonalLoop=1;jettySize=auto;html=1;entryX=0.5;entryY=0;entryDx=0;entryDy=0;sketch=1;curveFitting=1;jiggle=2;endArrow=none;endFill=0;" parent="1" source="MuEgCA0l2RGkUJCn2qk8-64" target="bI64YxjgBMgg3WLyLpZt-6" edge="1">
          <mxGeometry relative="1" as="geometry">
            <mxPoint x="282" y="160" as="sourcePoint" />
            <mxPoint x="282" y="209" as="targetPoint" />
          </mxGeometry>
        </mxCell>
        <mxCell id="bI64YxjgBMgg3WLyLpZt-6" value="&lt;font face=&quot;Tahoma&quot;&gt;manifests as&lt;/font&gt;" style="text;html=1;align=center;verticalAlign=middle;whiteSpace=wrap;rounded=0;fontSize=11;" parent="1" vertex="1">
          <mxGeometry x="247.5" y="180" width="69" height="9" as="geometry" />
        </mxCell>
        <mxCell id="bI64YxjgBMgg3WLyLpZt-8" value="&lt;font face=&quot;Tahoma&quot;&gt;supplies&lt;/font&gt;" style="text;html=1;align=center;verticalAlign=middle;whiteSpace=wrap;rounded=0;fontSize=11;direction=east;rotation=270;" parent="1" vertex="1">
          <mxGeometry x="434.5" y="227.25" width="42.25" height="13.5" as="geometry" />
        </mxCell>
        <mxCell id="bI64YxjgBMgg3WLyLpZt-11" value="&lt;font face=&quot;Tahoma&quot;&gt;received by&lt;/font&gt;" style="text;html=1;align=center;verticalAlign=middle;whiteSpace=wrap;rounded=0;fontSize=11;direction=east;rotation=90;" parent="1" vertex="1">
          <mxGeometry x="307" y="227.25" width="61" height="13.5" as="geometry" />
        </mxCell>
        <mxCell id="E7evMZmx6Xfd9XbpY0vn-1" value="" style="rounded=1;whiteSpace=wrap;html=1;sketch=1;curveFitting=1;jiggle=2;fillColor=none;" vertex="1" parent="1">
          <mxGeometry x="462" y="424" width="371.75" height="60" as="geometry" />
        </mxCell>
      </root>
    </mxGraphModel>
  </diagram>
</mxfile>
